<svg width="33" height="33" viewBox="0 0 33 33" fill="none" xmlns="http://www.w3.org/2000/svg">
<path d="M16.4558 3.57841C23.5804 3.57841 29.3773 9.37534 29.3773 16.5C29.3773 23.6246 23.5804 29.4215 16.4558 29.4215C9.33115 29.4215 3.53422 23.6246 3.53422 16.5C3.53422 9.37534 9.33115 3.57841 16.4558 3.57841ZM16.4558 0.348022C7.53505 0.348022 0.303833 7.57924 0.303833 16.5C0.303833 25.4207 7.53505 32.6519 16.4558 32.6519C25.3765 32.6519 32.6077 25.4207 32.6077 16.5C32.6077 7.57924 25.3765 0.348022 16.4558 0.348022ZM24.5317 14.8848H18.071V8.42399H14.8406V14.8848H8.3798V18.1151H14.8406V24.5759H18.071V18.1151H24.5317V14.8848Z" fill="#FF62BD"/>
</svg>
