<svg width="20" height="20" viewBox="0 0 20 20" fill="none" xmlns="http://www.w3.org/2000/svg">
<path d="M10 1.43164C14.7336 1.43164 18.5715 5.2695 18.5715 10.0031C18.5715 14.7366 14.7336 18.5745 10 18.5745C8.59583 18.5765 7.21282 18.232 5.9736 17.5716L2.56645 18.5409C2.41351 18.5844 2.25173 18.5862 2.09785 18.5462C1.94397 18.5062 1.80356 18.4258 1.69113 18.3134C1.5787 18.201 1.49833 18.0606 1.45833 17.9067C1.41833 17.7528 1.42015 17.591 1.4636 17.4381L2.43217 14.0309C1.7713 12.7913 1.42659 11.4078 1.4286 10.0031C1.4286 5.2695 5.26646 1.43164 10 1.43164ZM10.5357 6.25307C10.5357 6.11099 10.4793 5.97473 10.3788 5.87426C10.2784 5.7738 10.1421 5.71735 10 5.71735C9.85795 5.71735 9.72169 5.7738 9.62122 5.87426C9.52075 5.97473 9.46431 6.11099 9.46431 6.25307V9.46735H6.25003C6.10795 9.46735 5.97169 9.5238 5.87122 9.62426C5.77075 9.72473 5.71431 9.86099 5.71431 10.0031C5.71431 10.1451 5.77075 10.2814 5.87122 10.3819C5.97169 10.4823 6.10795 10.5388 6.25003 10.5388H9.46431V13.7531C9.46431 13.8951 9.52075 14.0314 9.62122 14.1319C9.72169 14.2323 9.85795 14.2888 10 14.2888C10.1421 14.2888 10.2784 14.2323 10.3788 14.1319C10.4793 14.0314 10.5357 13.8951 10.5357 13.7531V10.5388H13.75C13.8921 10.5388 14.0284 10.4823 14.1288 10.3819C14.2293 10.2814 14.2857 10.1451 14.2857 10.0031C14.2857 9.86099 14.2293 9.72473 14.1288 9.62426C14.0284 9.5238 13.8921 9.46735 13.75 9.46735H10.5357V6.25307Z" fill="#FF62BD"/>
</svg>
