<svg width="30" height="30" viewBox="0 0 30 30" fill="none" xmlns="http://www.w3.org/2000/svg">
<path d="M29.5 10.9656V11.1853C29.4999 12.0157 29.1378 12.7672 28.5127 13.2761L15.25 5.6189L15 5.47437L14.75 5.6189L1.48633 13.2761C0.86163 12.7673 0.500096 12.0155 0.5 11.1853V10.9656L15 2.59351L29.5 10.9656Z" stroke="#B54686"/>
<path d="M25.6885 14.8297L24.9365 22.1393L24.8799 22.6901H28.7422V21.5524H29.5V27.483H21.5547V20.1676C21.5547 16.5577 18.6186 13.621 15.0088 13.6207C11.3987 13.6207 8.46191 16.5575 8.46191 20.1676V27.483H0.5V21.5524H1.25781V22.6901H5.1123L5.05469 22.1383L4.29004 14.8414L15 8.65784L25.6885 14.8297ZM1.25781 26.7252H5.53418L5.47656 26.1725L5.23828 23.8961L5.19141 23.4479H1.25781V26.7252ZM24.7559 23.8971L24.5215 26.1735L24.4648 26.7252H28.7422V23.4479H24.8018L24.7559 23.8971ZM12.4824 12.8824H17.5176V10.1246H12.4824V12.8824Z" stroke="#B54686"/>
<path d="M15.0079 16.3789C17.0963 16.3789 18.7968 18.0786 18.797 20.167V27.4824H11.2198V20.167C11.2201 18.0788 12.9197 16.3792 15.0079 16.3789Z" stroke="#B54686"/>
</svg>
