<svg width="22" height="11" viewBox="0 0 22 11" fill="none" xmlns="http://www.w3.org/2000/svg">
<path d="M5.8579 6.96302C5.42636 6.96302 5.05887 6.8113 4.75543 6.50786C4.45198 6.20441 4.30026 5.83692 4.30026 5.40538C4.30026 4.97385 4.45198 4.60636 4.75543 4.30291C5.05887 3.99947 5.42636 3.84775 5.8579 3.84775C6.28944 3.84775 6.65693 3.99947 6.96037 4.30291C7.26381 4.60636 7.41553 4.97385 7.41553 5.40538C7.41553 5.83692 7.26381 6.20441 6.96037 6.50786C6.65693 6.8113 6.28944 6.96302 5.8579 6.96302ZM5.8579 10.7092C4.38665 10.7092 3.13487 10.193 2.10255 9.16073C1.07024 8.12841 0.554077 6.87663 0.554077 5.40538C0.554077 3.93414 1.07024 2.68235 2.10255 1.65004C3.13487 0.61772 4.38665 0.101562 5.8579 0.101562C6.8915 0.101562 7.82618 0.36828 8.66193 0.901716C9.49769 1.43531 10.1356 2.13293 10.5756 2.99456H19.2566L21.6674 5.40538L17.9583 9.09564L16.1688 7.75136L14.3329 9.1142L12.4505 7.81621H10.5756C10.1356 8.67173 9.49769 9.36774 8.66193 9.90423C7.82618 10.4409 6.8915 10.7092 5.8579 10.7092ZM5.8579 9.26271C6.78269 9.26271 7.58349 8.98329 8.26029 8.42446C8.93725 7.86563 9.37899 7.18072 9.58552 6.36971H12.905L14.2939 7.33043L16.1782 5.9524L17.8156 7.20434L19.6146 5.40538L18.6502 4.44105H9.58552C9.37899 3.63005 8.93725 2.94513 8.26029 2.3863C7.58349 1.82747 6.78269 1.54806 5.8579 1.54806C4.79713 1.54806 3.88906 1.92576 3.13366 2.68115C2.37827 3.43654 2.00057 4.34462 2.00057 5.40538C2.00057 6.46615 2.37827 7.37423 3.13366 8.12962C3.88906 8.88501 4.79713 9.26271 5.8579 9.26271Z" fill="#FF96D3"/>
</svg>
