<svg width="24" height="24" viewBox="0 0 24 24" fill="none" xmlns="http://www.w3.org/2000/svg">
<g clip-path="url(#clip0_2995_2194)">
<path d="M9.74236 8.1977H17.256M9.74236 12.1391H15.1007M13.4992 18.7914C15.3724 18.791 17.1945 18.1806 18.6899 17.0526C20.1854 15.9246 21.2729 14.3404 21.788 12.5394C22.303 10.7384 22.2176 8.81868 21.5446 7.07056C20.8717 5.32243 19.6478 3.84098 18.0581 2.85024C16.4683 1.85951 14.5992 1.41338 12.7334 1.57932C10.8676 1.74527 9.10657 2.51426 7.71663 3.77001C6.3267 5.02575 5.38348 6.69994 5.02961 8.53939C4.67574 10.3788 4.93047 12.2835 5.75527 13.9653C5.85595 14.1704 5.88951 14.4016 5.83824 14.6235L5.07755 17.9198C5.05611 18.0123 5.05857 18.1087 5.0847 18.2C5.11083 18.2913 5.15978 18.3744 5.22693 18.4416C5.29407 18.5087 5.37721 18.5577 5.4685 18.5838C5.5598 18.6099 5.65624 18.6124 5.74875 18.591L9.04413 17.8293C9.26662 17.7806 9.49912 17.8103 9.70227 17.9132C10.8838 18.4934 12.1829 18.7939 13.4992 18.7914Z" stroke="#F8F8F7" stroke-width="1.7246" stroke-linecap="round" stroke-linejoin="round"/>
</g>
<defs>
<clipPath id="clip0_2995_2194">
<rect width="22.9947" height="22.9947" fill="white" transform="translate(0.275406 0.395752)"/>
</clipPath>
</defs>
</svg>
