<svg width="206" height="207" viewBox="0 0 206 207" fill="none" xmlns="http://www.w3.org/2000/svg">
<path d="M102.945 206.161C159.642 206.161 205.604 160.199 205.604 103.502C205.604 46.8049 159.642 0.842773 102.945 0.842773C46.248 0.842773 0.28595 46.8049 0.28595 103.502C0.28595 160.199 46.248 206.161 102.945 206.161Z" fill="#B5ED90"/>
<path d="M124.547 203.74C126.515 203.359 128.472 202.919 130.415 202.423C133.71 201.502 136.956 200.417 140.142 199.172C143.332 197.937 146.459 196.544 149.51 194.997C152.562 193.444 155.534 191.74 158.415 189.89C161.294 188.04 164.077 186.047 166.757 183.919C169.44 181.787 172.016 179.523 174.473 177.134C176.926 174.752 179.259 172.248 181.462 169.632C183.668 167.014 185.741 164.287 187.673 161.462C189.606 158.641 191.396 155.726 193.037 152.727C194.679 149.724 196.169 146.64 197.503 143.488C198.838 140.335 200.014 137.117 201.028 133.847C201.895 130.983 202.637 128.083 203.252 125.155L142.255 64.1666C137.104 58.9926 130.981 54.8883 124.237 52.09C117.494 49.2916 110.263 47.8543 102.962 47.8609C95.6548 47.8529 88.4177 49.2893 81.6672 52.0877C74.9166 54.886 68.7857 58.9909 63.6268 64.1666C58.4551 69.327 54.3519 75.4568 51.5523 82.2051C48.7528 88.9534 47.3117 96.1876 47.3117 103.494C47.3117 110.8 48.7528 118.034 51.5523 124.782C54.3519 131.53 58.4551 137.66 63.6268 142.821L124.547 203.74Z" fill="#B5ED90"/>
<path d="M102.954 47.8692C117.172 47.8692 131.39 53.3016 142.272 64.1749C147.444 69.3353 151.547 75.4651 154.347 82.2134C157.146 88.9617 158.587 96.1959 158.587 103.502C158.587 110.808 157.146 118.042 154.347 124.79C151.547 131.539 147.444 137.668 142.272 142.829C137.112 148.001 130.982 152.104 124.234 154.903C117.485 157.703 110.251 159.144 102.945 159.144C95.6393 159.144 88.4051 157.703 81.6568 154.903C74.9085 152.104 68.7786 148.001 63.6182 142.829C58.4465 137.668 54.3433 131.539 51.5437 124.79C48.7441 118.042 47.3031 110.808 47.3031 103.502C47.3031 96.1959 48.7441 88.9617 51.5437 82.2134C54.3433 75.4651 58.4465 69.3353 63.6182 64.1749C68.7771 58.9992 74.908 54.8943 81.6586 52.096C88.4091 49.2976 95.6462 47.8612 102.954 47.8692ZM128.276 86.3835C127.467 86.461 126.695 86.7666 126.052 87.2646L94.7924 110.705L80.3089 96.2302C77.1692 92.9622 70.984 99.1389 74.2606 102.279L91.3704 119.388C92.1121 120.09 93.0737 120.513 94.0919 120.586C95.1101 120.66 96.1223 120.378 96.9568 119.79L131.177 94.1257C134.051 92.0297 132.28 86.4434 128.721 86.392C128.576 86.3846 128.43 86.3846 128.285 86.392L128.276 86.3835Z" fill="white"/>
</svg>
