<svg width="36" height="36" viewBox="0 0 36 36" fill="none" xmlns="http://www.w3.org/2000/svg">
<path d="M31.4332 17.4162C31.3594 17.416 31.2862 17.4305 31.2179 17.4586C31.1496 17.4868 31.0876 17.5282 31.0353 17.5803C30.983 17.6325 30.9416 17.6945 30.9133 17.7627C30.885 17.831 30.8704 17.9041 30.8704 17.978V20.7921H27.4934C27.3446 20.7921 27.2019 20.8512 27.0966 20.9563C26.9912 21.0614 26.9319 21.204 26.9316 21.3528C26.9315 21.4267 26.9459 21.4998 26.9741 21.5681C27.0023 21.6364 27.0436 21.6985 27.0958 21.7507C27.148 21.803 27.21 21.8445 27.2782 21.8728C27.3464 21.9011 27.4195 21.9157 27.4934 21.9157H31.4332C31.5072 21.9158 31.5804 21.9013 31.6488 21.8731C31.7171 21.8449 31.7792 21.8034 31.8315 21.7511C31.8838 21.6988 31.9253 21.6367 31.9535 21.5684C31.9817 21.5 31.9962 21.4268 31.9961 21.3528V17.9758C31.9961 17.902 31.9815 17.8288 31.9532 17.7606C31.9249 17.6924 31.8834 17.6304 31.8312 17.5782C31.7789 17.526 31.7168 17.4847 31.6485 17.4565C31.5803 17.4284 31.5071 17.4139 31.4332 17.4141V17.4162Z" fill="#313940"/>
<path d="M2.81372 10.1205C2.66473 10.1205 2.52184 10.1797 2.41649 10.2851C2.31114 10.3904 2.25195 10.5333 2.25195 10.6823V25.3372C2.25195 25.4862 2.31114 25.6291 2.41649 25.7344C2.52184 25.8398 2.66473 25.899 2.81372 25.899H6.19071V30.9538C6.19053 31.065 6.22334 31.1737 6.28499 31.2663C6.34664 31.3588 6.43435 31.4309 6.53703 31.4736C6.63971 31.5162 6.75273 31.5274 6.86178 31.5058C6.97084 31.4842 7.07102 31.4307 7.14965 31.3521L12.6081 25.8936H25.8824C26.0314 25.8936 26.1743 25.8345 26.2796 25.7291C26.385 25.6238 26.4442 25.4809 26.4442 25.3319V10.677C26.4442 10.528 26.385 10.3851 26.2796 10.2798C26.1743 10.1744 26.0314 10.1152 25.8824 10.1152L2.81372 10.1205Z" fill="#FFDE55"/>
<path d="M14.6553 10.1202V25.837H25.9119C26.0609 25.837 26.2038 25.7778 26.3091 25.6725C26.4145 25.5671 26.4737 25.4242 26.4737 25.2752V10.6204C26.4737 10.4714 26.4145 10.3285 26.3091 10.2231C26.2038 10.1178 26.0609 10.0586 25.9119 10.0586L14.6553 10.1202Z" fill="#FFBB4B"/>
<path d="M25.9115 4.49219C22.9168 4.49219 21.2602 6.07449 20.4849 7.61431C19.715 9.15413 19.7235 10.6727 19.7235 10.6727V12.924C19.7234 12.998 19.7378 13.0712 19.7661 13.1396C19.7943 13.2079 19.8358 13.27 19.8881 13.3223C19.9403 13.3746 20.0024 13.4161 20.0708 13.4443C20.1391 13.4726 20.2124 13.487 20.2863 13.4869C20.3602 13.4869 20.4333 13.4723 20.5016 13.444C20.5698 13.4157 20.6318 13.3742 20.684 13.322C20.7361 13.2697 20.7775 13.2076 20.8057 13.1394C20.8338 13.0711 20.8483 12.9979 20.8481 12.924V10.6727C20.8481 10.6727 20.8556 9.38776 21.4917 8.11343C22.1278 6.83909 23.2863 5.61785 25.9094 5.61785C28.5324 5.61785 29.6899 6.84971 30.3271 8.11343C30.9632 9.38776 30.9706 10.6727 30.9706 10.6727V12.924C30.9705 12.998 30.9849 13.0712 31.0132 13.1396C31.0414 13.2079 31.0828 13.27 31.1351 13.3223C31.1874 13.3746 31.2495 13.4161 31.3179 13.4443C31.3862 13.4726 31.4595 13.487 31.5334 13.4869C31.6074 13.487 31.6806 13.4726 31.749 13.4443C31.8173 13.4161 31.8794 13.3746 31.9317 13.3223C31.984 13.27 32.0255 13.2079 32.0537 13.1396C32.0819 13.0712 32.0964 12.998 32.0963 12.924V10.6727C32.0963 10.6727 32.1026 9.15413 31.3327 7.61431C30.5628 6.07449 28.9115 4.49219 25.9062 4.49219H25.9115Z" fill="#535A65"/>
<path d="M25.9115 4.49219V5.61785C28.5345 5.61803 29.692 6.84971 30.3292 8.11343C30.9653 9.38776 30.9717 10.6727 30.9717 10.6727V12.924C30.9717 12.9979 30.9862 13.071 31.0145 13.1393C31.0428 13.2075 31.0843 13.2695 31.1366 13.3217C31.1889 13.3738 31.2509 13.4152 31.3192 13.4434C31.3875 13.4715 31.4606 13.486 31.5345 13.4858C31.6835 13.4858 31.8264 13.4266 31.9317 13.3213C32.0371 13.2159 32.0963 13.073 32.0963 12.924V10.6727C32.0963 10.6727 32.1024 9.15413 31.3327 7.61431C30.5628 6.07449 28.9115 4.49219 25.9062 4.49219H25.9115Z" fill="#313940"/>
<path d="M18.5843 12.3184C18.4355 12.3181 18.2927 12.3768 18.1871 12.4818C18.0816 12.5867 18.022 12.7292 18.0215 12.878V17.9435C18.0213 18.0174 18.0358 18.0907 18.064 18.159C18.0923 18.2274 18.1337 18.2895 18.186 18.3418C18.2383 18.3941 18.3004 18.4355 18.3688 18.4638C18.4371 18.492 18.5104 18.5065 18.5843 18.5063H21.9613C22.0352 18.5063 22.1083 18.4918 22.1765 18.4635C22.2448 18.4352 22.3067 18.3937 22.3589 18.3414C22.4111 18.2891 22.4525 18.2271 22.4806 18.1588C22.5088 18.0905 22.5232 18.0174 22.5231 17.9435V12.878C22.5225 12.7294 22.4631 12.587 22.3578 12.4821C22.2525 12.3773 22.1099 12.3184 21.9613 12.3184H18.5843ZM29.841 12.3184C29.6921 12.3181 29.5493 12.3768 29.4438 12.4818C29.3383 12.5867 29.2787 12.7292 29.2781 12.878V17.9435C29.278 18.0174 29.2924 18.0907 29.3207 18.159C29.3489 18.2274 29.3904 18.2895 29.4427 18.3418C29.495 18.3941 29.5571 18.4355 29.6254 18.4638C29.6938 18.492 29.767 18.5065 29.841 18.5063H33.2073C33.2813 18.5065 33.3545 18.492 33.4229 18.4638C33.4912 18.4355 33.5533 18.3941 33.6056 18.3418C33.6579 18.2895 33.6994 18.2274 33.7276 18.159C33.7558 18.0907 33.7703 18.0174 33.7702 17.9435V12.878C33.7696 12.7292 33.71 12.5867 33.6045 12.4818C33.499 12.3768 33.3561 12.3181 33.2073 12.3184H29.841ZM24.2126 19.6458C24.1388 19.6458 24.0656 19.6604 23.9974 19.6887C23.9292 19.717 23.8672 19.7584 23.815 19.8107C23.7629 19.863 23.7215 19.925 23.6933 19.9933C23.6652 20.0616 23.6507 20.1348 23.6509 20.2086V22.46C23.6509 22.6089 23.7101 22.7518 23.8154 22.8572C23.9208 22.9625 24.0636 23.0217 24.2126 23.0217H27.5896C27.7386 23.0217 27.8815 22.9625 27.9869 22.8572C28.0922 22.7518 28.1514 22.6089 28.1514 22.46V20.2086C28.1515 20.1348 28.1371 20.0616 28.1089 19.9933C28.0808 19.925 28.0394 19.863 27.9872 19.8107C27.9351 19.7584 27.8731 19.717 27.8049 19.6887C27.7366 19.6604 27.6635 19.6458 27.5896 19.6458H24.2126Z" fill="#FF6A51"/>
<path d="M7.30583 14.0176C7.15702 14.0179 7.0144 14.0772 6.90928 14.1825C6.80416 14.2878 6.74512 14.4305 6.74512 14.5793C6.74498 14.6531 6.75937 14.7262 6.78747 14.7944C6.81558 14.8626 6.85684 14.9246 6.90891 14.9769C6.96097 15.0292 7.02282 15.0707 7.09093 15.099C7.15903 15.1274 7.23205 15.142 7.30583 15.1422H14.0492C14.1231 15.1423 14.1964 15.1279 14.2647 15.0996C14.3331 15.0714 14.3952 15.0299 14.4475 14.9776C14.4998 14.9254 14.5412 14.8633 14.5695 14.7949C14.5977 14.7266 14.6122 14.6533 14.612 14.5793C14.612 14.5055 14.5975 14.4323 14.5692 14.3641C14.5409 14.2959 14.4994 14.2339 14.4471 14.1817C14.3948 14.1296 14.3328 14.0882 14.2645 14.06C14.1962 14.0319 14.1231 14.0174 14.0492 14.0176H7.30583ZM7.30583 17.4158C7.15702 17.4161 7.0144 17.4754 6.90928 17.5807C6.80416 17.686 6.74512 17.8288 6.74512 17.9776C6.74498 18.0514 6.75937 18.1244 6.78747 18.1926C6.81558 18.2609 6.85684 18.3229 6.90891 18.3751C6.96097 18.4274 7.02282 18.4689 7.09093 18.4972C7.15903 18.5256 7.23205 18.5403 7.30583 18.5404H14.0492C14.1231 18.5406 14.1964 18.5261 14.2647 18.4979C14.3331 18.4696 14.3952 18.4282 14.4475 18.3759C14.4998 18.3236 14.5412 18.2615 14.5695 18.1931C14.5977 18.1248 14.6122 18.0515 14.612 17.9776C14.612 17.9037 14.5975 17.8306 14.5692 17.7624C14.5409 17.6941 14.4994 17.6322 14.4471 17.58C14.3948 17.5278 14.3328 17.4864 14.2645 17.4583C14.1962 17.4301 14.1231 17.4157 14.0492 17.4158H7.30583ZM7.30583 20.814C7.1572 20.8143 7.01475 20.8735 6.90966 20.9786C6.80456 21.0837 6.7454 21.2261 6.74512 21.3747C6.74498 21.4485 6.75937 21.5216 6.78747 21.5898C6.81558 21.658 6.85684 21.72 6.90891 21.7723C6.96097 21.8246 7.02282 21.8661 7.09093 21.8944C7.15903 21.9228 7.23205 21.9374 7.30583 21.9376H14.0492C14.1231 21.9377 14.1964 21.9233 14.2647 21.895C14.3331 21.8668 14.3952 21.8253 14.4475 21.773C14.4998 21.7208 14.5412 21.6586 14.5695 21.5903C14.5977 21.522 14.6122 21.4487 14.612 21.3747C14.6119 21.301 14.5972 21.228 14.5689 21.1598C14.5405 21.0917 14.499 21.0299 14.4467 20.9778C14.3945 20.9258 14.3325 20.8845 14.2642 20.8564C14.196 20.8283 14.123 20.8139 14.0492 20.814H7.30583Z" fill="#535A65"/>
<path d="M25.9111 19.6465V23.0235H27.5996C27.7486 23.0235 27.8915 22.9643 27.9969 22.8589C28.1022 22.7536 28.1614 22.6107 28.1614 22.4617V20.2104C28.1615 20.1365 28.1471 20.0634 28.1189 19.9951C28.0908 19.9268 28.0494 19.8647 27.9972 19.8125C27.9451 19.7602 27.8831 19.7187 27.8149 19.6904C27.7466 19.6621 27.6735 19.6475 27.5996 19.6475L25.9111 19.6465Z" fill="#FF382D"/>
<path d="M10.7256 14.0176V15.1432H14.1026C14.1765 15.1434 14.2497 15.129 14.3179 15.1008C14.3862 15.0726 14.4483 15.0313 14.5006 14.9791C14.5528 14.9269 14.5943 14.8649 14.6226 14.7967C14.6509 14.7285 14.6655 14.6553 14.6655 14.5815C14.6655 14.5076 14.6509 14.4345 14.6226 14.3662C14.5943 14.298 14.5528 14.236 14.5006 14.1839C14.4483 14.1317 14.3862 14.0903 14.3179 14.0622C14.2497 14.034 14.1765 14.0196 14.1026 14.0197L10.7256 14.0176ZM10.7256 17.4158V18.5415H14.1026C14.1765 18.5416 14.2497 18.5272 14.3179 18.499C14.3862 18.4708 14.4483 18.4295 14.5006 18.3773C14.5528 18.3251 14.5943 18.2632 14.6226 18.1949C14.6509 18.1267 14.6655 18.0536 14.6655 17.9797C14.6655 17.9058 14.6509 17.8327 14.6226 17.7645C14.5943 17.6962 14.5528 17.6343 14.5006 17.5821C14.4483 17.5299 14.3862 17.4886 14.3179 17.4604C14.2497 17.4322 14.1765 17.4178 14.1026 17.4179L10.7256 17.4158ZM10.7256 20.814V21.9397H14.1026C14.1765 21.9398 14.2497 21.9254 14.3179 21.8972C14.3862 21.8691 14.4483 21.8277 14.5006 21.7755C14.5528 21.7234 14.5943 21.6614 14.6226 21.5932C14.6509 21.5249 14.6655 21.4518 14.6655 21.3779C14.6655 21.3041 14.6509 21.2309 14.6226 21.1627C14.5943 21.0945 14.5528 21.0325 14.5006 20.9803C14.4483 20.9281 14.3862 20.8868 14.3179 20.8586C14.2497 20.8305 14.1765 20.816 14.1026 20.8162L10.7256 20.814Z" fill="#313940"/>
<path d="M20.2832 12.318V18.4985H21.9717C22.0456 18.4985 22.1187 18.4839 22.1869 18.4556C22.2552 18.4273 22.3171 18.3859 22.3693 18.3336C22.4215 18.2813 22.4628 18.2193 22.491 18.151C22.5192 18.0827 22.5336 18.0095 22.5335 17.9357V12.8702C22.5329 12.7216 22.4735 12.5792 22.3682 12.4743C22.2629 12.3694 22.1203 12.3105 21.9717 12.3105L20.2832 12.318Z" fill="#FF382D"/>
<path d="M31.4337 12.318V18.4985H33.1222C33.1961 18.4987 33.2694 18.4842 33.3377 18.456C33.4061 18.4277 33.4682 18.3863 33.5204 18.334C33.5727 18.2817 33.6142 18.2196 33.6424 18.1512C33.6707 18.0829 33.6851 18.0096 33.685 17.9357V12.8702C33.6844 12.7214 33.6248 12.5789 33.5193 12.474C33.4138 12.369 33.271 12.3103 33.1222 12.3105L31.4337 12.318Z" fill="#FF382D"/>
</svg>
