<svg width="15" height="18" viewBox="0 0 15 18" fill="none" xmlns="http://www.w3.org/2000/svg">
<path d="M3.15462 17.1045C2.67374 17.1045 2.26294 16.9342 1.92221 16.5937C1.58164 16.2529 1.41135 15.8421 1.41135 15.3612V3.12171H0.447021V1.67522H4.78651V0.822266H10.5725V1.67522H14.912V3.12171H13.9477V15.3612C13.9477 15.8484 13.7789 16.2607 13.4414 16.5982C13.1039 16.9358 12.6915 17.1045 12.2044 17.1045H3.15462ZM12.5012 3.12171H2.85785V15.3612C2.85785 15.4479 2.88565 15.519 2.94126 15.5746C2.99687 15.6302 3.06799 15.658 3.15462 15.658H12.2044C12.2786 15.658 12.3466 15.6271 12.4083 15.5652C12.4702 15.5035 12.5012 15.4355 12.5012 15.3612V3.12171ZM5.1761 13.7294H6.62236V5.05038H5.1761V13.7294ZM8.73665 13.7294H10.1829V5.05038H8.73665V13.7294Z" fill="#FF96D3"/>
</svg>
