<svg width="22" height="21" viewBox="0 0 22 21" fill="none" xmlns="http://www.w3.org/2000/svg">
<path d="M7.21659 17.4841C6.83548 17.4841 6.51109 17.3502 6.24341 17.0825C5.97573 16.8149 5.84189 16.4907 5.84189 16.1102V5.57455H4.99121V4.72387H8.39393V4.06885H13.498V4.72387H16.9007V5.57455H16.05V16.1102C16.05 16.5015 15.919 16.8285 15.657 17.091C15.395 17.3536 15.0678 17.4846 14.6753 17.4841H7.21659ZM15.1994 5.57455H6.69257V16.1102C6.69257 16.2628 6.74162 16.3881 6.83974 16.4862C6.93785 16.5843 7.06346 16.6334 7.21659 16.6334H14.6762C14.8066 16.6334 14.9266 16.5789 15.036 16.47C15.1455 16.3612 15.1999 16.2409 15.1994 16.1094V5.57455ZM9.08127 14.932H9.93195V7.27591H9.08127V14.932ZM11.96 14.932H12.8107V7.27591H11.96V14.932Z" fill="#91DF92"/>
</svg>
