<svg width="17" height="16" viewBox="0 0 17 16" fill="none" xmlns="http://www.w3.org/2000/svg">
<path d="M3.76883 3.97754H2.91815C2.46693 3.97754 2.03418 4.15679 1.71511 4.47586C1.39605 4.79492 1.2168 5.22767 1.2168 5.6789V13.335C1.2168 13.7862 1.39605 14.219 1.71511 14.538C2.03418 14.8571 2.46693 15.0364 2.91815 15.0364H10.5743C11.0255 15.0364 11.4582 14.8571 11.7773 14.538C12.0964 14.219 12.2756 13.7862 12.2756 13.335V12.4843" stroke="#91DF92" stroke-width="0.850679" stroke-linecap="round" stroke-linejoin="round"/>
<path d="M11.4255 2.27616L13.9775 4.82819M15.1557 3.62448C15.4907 3.28944 15.6789 2.83504 15.6789 2.36122C15.6789 1.88741 15.4907 1.433 15.1557 1.09797C14.8206 0.762929 14.3662 0.574707 13.8924 0.574707C13.4186 0.574707 12.9642 0.762929 12.6292 1.09797L5.4707 8.23091V10.7829H8.02274L15.1557 3.62448Z" stroke="#91DF92" stroke-width="0.850679" stroke-linecap="round" stroke-linejoin="round"/>
</svg>
