<svg width="22" height="21" viewBox="0 0 22 21" fill="none" xmlns="http://www.w3.org/2000/svg">
<g clip-path="url(#clip0_3861_76)">
<path d="M6.76883 8.97754H5.91815C5.46693 8.97754 5.03418 9.15679 4.71511 9.47586C4.39605 9.79492 4.2168 10.2277 4.2168 10.6789V18.335C4.2168 18.7862 4.39605 19.219 4.71511 19.538C5.03418 19.8571 5.46693 20.0364 5.91815 20.0364H13.5743C14.0255 20.0364 14.4582 19.8571 14.7773 19.538C15.0964 19.219 15.2756 18.7862 15.2756 18.335V17.4843" stroke="#91DF92" stroke-width="0.850679" stroke-linecap="round" stroke-linejoin="round"/>
<path d="M14.4255 7.27616L16.9775 9.82819M18.1557 8.62448C18.4907 8.28944 18.6789 7.83504 18.6789 7.36122C18.6789 6.88741 18.4907 6.433 18.1557 6.09797C17.8206 5.76293 17.3662 5.57471 16.8924 5.57471C16.4186 5.57471 15.9642 5.76293 15.6292 6.09797L8.4707 13.2309V15.7829H11.0227L18.1557 8.62448Z" stroke="#91DF92" stroke-width="0.850679" stroke-linecap="round" stroke-linejoin="round"/>
</g>
<defs>
<clipPath id="clip0_3861_76">
<rect width="20.4163" height="20.4163" fill="white" transform="translate(0.814453 0.470703)"/>
</clipPath>
</defs>
</svg>
