<svg width="29" height="28" viewBox="0 0 29 28" fill="none" xmlns="http://www.w3.org/2000/svg">
<path d="M9.04021 19.0666L17.0883 16.7672L19.3878 8.71904L11.3397 11.0185L9.04021 19.0666ZM14.214 15.6174C13.7349 15.6174 13.3279 15.45 12.993 15.115C12.658 14.78 12.4902 14.3727 12.4894 13.8928C12.4886 13.413 12.6565 13.006 12.993 12.6718C13.3295 12.3376 13.7365 12.1698 14.214 12.1682C14.6915 12.1667 15.0989 12.3346 15.4362 12.6718C15.7734 13.0091 15.9409 13.4161 15.9386 13.8928C15.9363 14.3696 15.7688 14.777 15.4362 15.115C15.1035 15.453 14.6961 15.6205 14.214 15.6174ZM14.214 25.3902C12.6235 25.3902 11.1289 25.0882 9.73005 24.4842C8.3312 23.8802 7.1144 23.0612 6.07964 22.0272C5.04488 20.9932 4.22589 19.7764 3.62267 18.3768C3.01944 16.9772 2.71744 15.4825 2.71668 13.8928C2.71591 12.3031 3.01791 10.8085 3.62267 9.40888C4.22743 8.00927 5.04642 6.79247 6.07964 5.75848C7.11287 4.72448 8.32967 3.90549 9.73005 3.3015C11.1304 2.6975 12.6251 2.39551 14.214 2.39551C15.8029 2.39551 17.2976 2.6975 18.698 3.3015C20.0983 3.90549 21.3151 4.72448 22.3484 5.75848C23.3816 6.79247 24.201 8.00927 24.8065 9.40888C25.412 10.8085 25.7136 12.3031 25.7113 13.8928C25.709 15.4825 25.407 16.9772 24.8053 18.3768C24.2036 19.7764 23.3847 20.9932 22.3484 22.0272C21.3121 23.0612 20.0953 23.8806 18.698 24.4853C17.3007 25.0901 15.806 25.3917 14.214 25.3902ZM14.214 23.0907C16.7626 23.0907 18.9329 22.1951 20.7249 20.4038C22.517 18.6125 23.4126 16.4422 23.4119 13.8928C23.4111 11.3435 22.5155 9.17318 20.7249 7.3819C18.9344 5.59061 16.7641 4.69497 14.214 4.69497C11.6639 4.69497 9.49358 5.591 7.70307 7.38305C5.91255 9.1751 5.01691 11.345 5.01614 13.8928C5.01537 16.4406 5.9114 18.611 7.70422 20.4038C9.49703 22.1966 11.667 23.0922 14.214 23.0907Z" fill="white"/>
</svg>
