<svg width="24" height="24" viewBox="0 0 24 24" fill="none" xmlns="http://www.w3.org/2000/svg">
<mask id="mask0_3489_5315" style="mask-type:alpha" maskUnits="userSpaceOnUse" x="0" y="0" width="24" height="24">
<rect x="0.107422" y="0.466797" width="23.1439" height="23.1439" fill="#D9D9D9"/>
</mask>
<g mask="url(#mask0_3489_5315)">
<path d="M13.6081 14.9308C13.8813 14.9308 14.1184 14.8304 14.3193 14.6295C14.5202 14.4286 14.6207 14.1915 14.6207 13.9183C14.6207 13.6451 14.5202 13.408 14.3193 13.2071C14.1184 13.0062 13.8813 12.9057 13.6081 12.9057C13.3349 12.9057 13.0978 13.0062 12.8969 13.2071C12.696 13.408 12.5956 13.6451 12.5956 13.9183C12.5956 14.1915 12.696 14.4286 12.8969 14.6295C13.0978 14.8304 13.3349 14.9308 13.6081 14.9308ZM12.8849 11.845H14.3314C14.3314 11.3789 14.3796 11.0373 14.476 10.8204C14.5724 10.6034 14.7974 10.3181 15.151 9.96453C15.6332 9.48236 15.9546 9.09261 16.1154 8.79528C16.2761 8.49794 16.3564 8.14837 16.3564 7.74657C16.3564 7.02332 16.1033 6.43267 15.597 5.97461C15.0908 5.51655 14.4278 5.28752 13.6081 5.28752C12.9491 5.28752 12.3746 5.47235 11.8844 5.84201C11.3942 6.21167 11.0526 6.70188 10.8598 7.31262L12.1616 7.843C12.3063 7.4412 12.5031 7.13984 12.7523 6.93894C13.0014 6.73804 13.2867 6.63759 13.6081 6.63759C13.9938 6.63759 14.3072 6.74608 14.5483 6.96305C14.7894 7.18002 14.91 7.47334 14.91 7.843C14.91 8.06801 14.8457 8.28097 14.7171 8.48187C14.5885 8.68277 14.3635 8.93591 14.0421 9.24128C13.5117 9.70738 13.1862 10.073 13.0657 10.3382C12.9451 10.6034 12.8849 11.1057 12.8849 11.845ZM7.82212 17.8238C7.29174 17.8238 6.8377 17.635 6.46 17.2573C6.0823 16.8796 5.89346 16.4255 5.89346 15.8952V4.32319C5.89346 3.79281 6.0823 3.33877 6.46 2.96108C6.8377 2.58338 7.29174 2.39453 7.82212 2.39453H19.3941C19.9245 2.39453 20.3785 2.58338 20.7562 2.96108C21.1339 3.33877 21.3228 3.79281 21.3228 4.32319V15.8952C21.3228 16.4255 21.1339 16.8796 20.7562 17.2573C20.3785 17.635 19.9245 17.8238 19.3941 17.8238H7.82212ZM7.82212 15.8952H19.3941V4.32319H7.82212V15.8952ZM3.96479 21.6812C3.43441 21.6812 2.98037 21.4923 2.60268 21.1146C2.22498 20.7369 2.03613 20.2829 2.03613 19.7525V6.25186H3.96479V19.7525H17.4654V21.6812H3.96479Z" fill="#FF96D3"/>
</g>
</svg>
