<svg width="35" height="35" viewBox="0 0 35 35" fill="none" xmlns="http://www.w3.org/2000/svg">
<path d="M10.191 8.7547C10.1913 7.41597 10.5713 6.1048 11.287 4.97345C12.0027 3.84211 13.0247 2.93702 14.2343 2.36332C15.4438 1.78961 16.7913 1.57083 18.1203 1.73237C19.4492 1.89392 20.7051 2.42917 21.7419 3.27596C22.7788 4.12275 23.5542 5.24632 23.978 6.51619C24.4018 7.78605 24.4567 9.1501 24.1362 10.4499C23.8157 11.7497 23.1331 12.9319 22.1676 13.8592C21.202 14.7865 19.9932 15.4209 18.6816 15.6887V24.3207H15.8514V15.6887C14.2532 15.3624 12.8168 14.4941 11.7854 13.2305C10.7539 11.9669 10.1907 10.3858 10.191 8.7547ZM4.6792 15.8302H11.6061V18.6604H7.21222L6.11127 28.566H28.4216L27.3207 18.6604H22.9268V15.8302H29.8537L31.583 31.3962H2.94995L4.6792 15.8302Z" fill="#FF62BD"/>
</svg>
