<svg width="20" height="21" viewBox="0 0 20 21" fill="none" xmlns="http://www.w3.org/2000/svg">
<path d="M9.95 16.5039C10.3 16.5039 10.5958 16.3831 10.8375 16.1414C11.0792 15.8997 11.2 15.6039 11.2 15.2539C11.2 14.9039 11.0792 14.6081 10.8375 14.3664C10.5958 14.1247 10.3 14.0039 9.95 14.0039C9.6 14.0039 9.30417 14.1247 9.0625 14.3664C8.82083 14.6081 8.7 14.9039 8.7 15.2539C8.7 15.6039 8.82083 15.8997 9.0625 16.1414C9.30417 16.3831 9.6 16.5039 9.95 16.5039ZM9.05 12.6539H10.9C10.9 12.1039 10.9625 11.6706 11.0875 11.3539C11.2125 11.0372 11.5667 10.6039 12.15 10.0539C12.5833 9.62057 12.925 9.20807 13.175 8.81641C13.425 8.42474 13.55 7.95391 13.55 7.40391C13.55 6.47057 13.2083 5.75391 12.525 5.25391C11.8417 4.75391 11.0333 4.50391 10.1 4.50391C9.15 4.50391 8.37917 4.75391 7.7875 5.25391C7.19583 5.75391 6.78333 6.35391 6.55 7.05391L8.2 7.70391C8.28333 7.40391 8.47083 7.07891 8.7625 6.72891C9.05417 6.37891 9.5 6.20391 10.1 6.20391C10.6333 6.20391 11.0333 6.34974 11.3 6.64141C11.5667 6.93307 11.7 7.25391 11.7 7.60391C11.7 7.93724 11.6 8.24974 11.4 8.54141C11.2 8.83307 10.95 9.10391 10.65 9.35391C9.91667 10.0039 9.46667 10.4956 9.3 10.8289C9.13333 11.1622 9.05 11.7706 9.05 12.6539ZM10 20.5039C8.61667 20.5039 7.31667 20.2414 6.1 19.7164C4.88333 19.1914 3.825 18.4789 2.925 17.5789C2.025 16.6789 1.3125 15.6206 0.7875 14.4039C0.2625 13.1872 0 11.8872 0 10.5039C0 9.12057 0.2625 7.82057 0.7875 6.60391C1.3125 5.38724 2.025 4.32891 2.925 3.42891C3.825 2.52891 4.88333 1.81641 6.1 1.29141C7.31667 0.766406 8.61667 0.503906 10 0.503906C11.3833 0.503906 12.6833 0.766406 13.9 1.29141C15.1167 1.81641 16.175 2.52891 17.075 3.42891C17.975 4.32891 18.6875 5.38724 19.2125 6.60391C19.7375 7.82057 20 9.12057 20 10.5039C20 11.8872 19.7375 13.1872 19.2125 14.4039C18.6875 15.6206 17.975 16.6789 17.075 17.5789C16.175 18.4789 15.1167 19.1914 13.9 19.7164C12.6833 20.2414 11.3833 20.5039 10 20.5039ZM10 18.5039C12.2333 18.5039 14.125 17.7289 15.675 16.1789C17.225 14.6289 18 12.7372 18 10.5039C18 8.27057 17.225 6.37891 15.675 4.82891C14.125 3.27891 12.2333 2.50391 10 2.50391C7.76667 2.50391 5.875 3.27891 4.325 4.82891C2.775 6.37891 2 8.27057 2 10.5039C2 12.7372 2.775 14.6289 4.325 16.1789C5.875 17.7289 7.76667 18.5039 10 18.5039Z" fill="#FF62BD"/>
</svg>
