<svg width="29" height="28" viewBox="0 0 29 28" fill="none" xmlns="http://www.w3.org/2000/svg">
<path fill-rule="evenodd" clip-rule="evenodd" d="M13.6738 1.48828C14.089 1.16536 14.6704 1.16536 15.0856 1.48828L25.4332 9.53641C25.7132 9.75423 25.877 10.0892 25.877 10.444V23.091C25.877 24.0058 25.5136 24.8831 24.8668 25.53C24.2199 26.1768 23.3426 26.5402 22.4278 26.5402H6.33158C5.4168 26.5402 4.53948 26.1768 3.89263 25.53C3.24578 24.8831 2.88239 24.0058 2.88239 23.091V10.444C2.88239 10.0892 3.04619 9.75423 3.32625 9.53641L13.6738 1.48828ZM5.18185 11.0063V23.091C5.18185 23.3959 5.30298 23.6884 5.5186 23.904C5.73422 24.1196 6.02666 24.2407 6.33158 24.2407H22.4278C22.7328 24.2407 23.0252 24.1196 23.2408 23.904C23.4564 23.6884 23.5776 23.3959 23.5776 23.091V11.0063L14.3797 3.85238L5.18185 11.0063Z" fill="#E6E6E6"/>
<path fill-rule="evenodd" clip-rule="evenodd" d="M9.78079 13.8931C9.78079 13.2582 10.2955 12.7434 10.9305 12.7434H17.8289C18.4639 12.7434 18.9787 13.2582 18.9787 13.8931V25.3905C18.9787 26.0254 18.4639 26.5402 17.8289 26.5402C17.1939 26.5402 16.6792 26.0254 16.6792 25.3905V15.0429H12.0803V25.3905C12.0803 26.0254 11.5655 26.5402 10.9305 26.5402C10.2955 26.5402 9.78079 26.0254 9.78079 25.3905V13.8931Z" fill="#E6E6E6"/>
</svg>
