<svg width="21" height="21" viewBox="0 0 21 21" fill="none" xmlns="http://www.w3.org/2000/svg">
<path d="M20.3148 10.7289H7.07588C6.69789 10.7289 6.39111 10.4221 6.39111 10.0441C6.39111 9.66615 6.69789 9.35938 7.07588 9.35938H20.3148C20.6928 9.35938 20.9996 9.66615 20.9996 10.0441C20.9996 10.4221 20.6928 10.7289 20.3148 10.7289Z" fill="#E64D4D"/>
<path d="M10.7281 14.3794C10.5527 14.3794 10.3775 14.3128 10.2441 14.1786L6.5921 10.5265C6.32461 10.2589 6.32461 9.82522 6.5921 9.55774L10.2441 5.90569C10.5116 5.63821 10.9453 5.63821 11.2129 5.90569C11.4804 6.17318 11.4804 6.60685 11.2129 6.87433L8.04472 10.0426L11.2129 13.2108C11.4804 13.4783 11.4804 13.9119 11.2129 14.1794C11.0787 14.3128 10.9033 14.3794 10.7281 14.3794Z" fill="#E64D4D"/>
<path d="M10.0433 20.0866C4.50583 20.0866 0 15.5808 0 10.0433C0 4.50583 4.50583 0 10.0433 0C14.1984 0 17.867 2.49984 19.3908 6.36938C19.5296 6.72079 19.3561 7.11801 19.0047 7.2576C18.6531 7.39469 18.2559 7.22383 18.1163 6.87058C16.8006 3.52883 13.6315 1.36954 10.0433 1.36954C5.26081 1.36954 1.36954 5.26098 1.36954 10.0433C1.36954 14.8257 5.26081 18.7171 10.0433 18.7171C13.6315 18.7171 16.8006 16.5578 18.1163 13.2171C18.255 12.8636 18.6522 12.693 19.0047 12.8299C19.3561 12.9686 19.5296 13.3667 19.3908 13.7183C17.867 17.5868 14.1984 20.0866 10.0433 20.0866Z" fill="#E64D4D"/>
</svg>
