<svg width="19" height="19" viewBox="0 0 19 19" fill="none" xmlns="http://www.w3.org/2000/svg">
<path d="M9.49632 19.0026C9.43377 19.0026 9.37043 18.9876 9.31342 18.9575L0.214092 14.2067C0.0834455 14.1386 0.00109863 14.0032 0.00109863 13.856V4.94824C0.00109863 4.81126 0.0723603 4.68378 0.188754 4.61172C0.305149 4.53967 0.451631 4.53334 0.573568 4.59431L9.6729 9.14714C9.80671 9.21444 9.89143 9.35142 9.89143 9.50107V18.6067C9.89143 18.7453 9.81938 18.8736 9.70061 18.9456C9.63885 18.9836 9.56759 19.0026 9.49632 19.0026ZM0.792895 13.616L9.10043 17.9535V9.74574L0.792895 5.5888V13.616Z" fill="#FF62BD"/>
<path d="M9.50894 19.0032C9.43767 19.0032 9.36641 18.9842 9.30386 18.9462C9.18588 18.8742 9.11304 18.7459 9.11304 18.6073V9.50166C9.11304 9.35201 9.19776 9.21503 9.33157 9.14773L18.4309 4.59489C18.552 4.53313 18.6993 4.53947 18.8157 4.61231C18.9329 4.68437 19.0042 4.81185 19.0042 4.94883V13.8565C19.0042 14.0038 18.9218 14.1392 18.7912 14.2073L9.69184 18.9581C9.63483 18.9882 9.57149 19.0032 9.50894 19.0032ZM9.90483 9.74632V17.9541L18.2124 13.6166V5.58939L9.90483 9.74632ZM18.6083 13.8565H18.6162H18.6083Z" fill="#FF62BD"/>
<path d="M0.396721 5.34423C0.251031 5.34423 0.111674 5.26426 0.0419964 5.1257C-0.0561864 4.93012 0.023785 4.69258 0.219359 4.5944L9.33136 0.0415693C9.443 -0.0138564 9.57444 -0.0138564 9.68529 0.0415693L18.7846 4.5944C18.9802 4.69258 19.0594 4.93012 18.962 5.1257C18.8638 5.32127 18.627 5.39966 18.4307 5.30306L9.50872 0.838117L0.574084 5.30227C0.517074 5.33077 0.456898 5.34423 0.396721 5.34423Z" fill="#FF62BD"/>
<path d="M14.2534 11.8774C14.0348 11.8774 13.8575 11.7 13.8575 11.4815V7.37126L4.97666 2.92769C4.78109 2.8303 4.70191 2.59197 4.80009 2.3964C4.89828 2.20082 5.13581 2.12244 5.33139 2.21904L14.4307 6.77187C14.5645 6.83996 14.6493 6.97694 14.6493 7.12659V11.4815C14.6493 11.7 14.4719 11.8774 14.2534 11.8774Z" fill="#FF62BD"/>
</svg>
