<svg width="20" height="20" viewBox="0 0 20 20" fill="none" xmlns="http://www.w3.org/2000/svg">
<path d="M3.67484 13.9629C3.47484 16.3712 5.29151 18.3379 7.70818 18.3379H11.6998C14.4165 18.3379 16.2832 16.1462 15.8332 13.4629C15.3582 10.6462 12.6415 8.33789 9.78318 8.33789C6.68318 8.33789 3.93318 10.8712 3.67484 13.9629Z" stroke="#FF62BD" stroke-width="1.64189" stroke-linecap="round" stroke-linejoin="round"/>
<path d="M8.72494 6.25456C9.87553 6.25456 10.8083 5.32182 10.8083 4.17122C10.8083 3.02063 9.87553 2.08789 8.72494 2.08789C7.57434 2.08789 6.6416 3.02063 6.6416 4.17122C6.6416 5.32182 7.57434 6.25456 8.72494 6.25456Z" stroke="#FF62BD" stroke-width="1.64189" stroke-linecap="round" stroke-linejoin="round"/>
<path d="M14.4167 7.25326C15.3371 7.25326 16.0833 6.50706 16.0833 5.58659C16.0833 4.66611 15.3371 3.91992 14.4167 3.91992C13.4962 3.91992 12.75 4.66611 12.75 5.58659C12.75 6.50706 13.4962 7.25326 14.4167 7.25326Z" stroke="#FF62BD" stroke-width="1.64189" stroke-linecap="round" stroke-linejoin="round"/>
<path d="M17.4999 10.5879C18.1902 10.5879 18.7499 10.0282 18.7499 9.33789C18.7499 8.64753 18.1902 8.08789 17.4999 8.08789C16.8095 8.08789 16.2499 8.64753 16.2499 9.33789C16.2499 10.0282 16.8095 10.5879 17.4999 10.5879Z" stroke="#FF62BD" stroke-width="1.64189" stroke-linecap="round" stroke-linejoin="round"/>
<path d="M3.30827 8.92122C4.22874 8.92122 4.97493 8.17503 4.97493 7.25456C4.97493 6.33408 4.22874 5.58789 3.30827 5.58789C2.38779 5.58789 1.6416 6.33408 1.6416 7.25456C1.6416 8.17503 2.38779 8.92122 3.30827 8.92122Z" stroke="#FF62BD" stroke-width="1.64189" stroke-linecap="round" stroke-linejoin="round"/>
</svg>
