<svg width="29" height="28" viewBox="0 0 29 28" fill="none" xmlns="http://www.w3.org/2000/svg">
<g clip-path="url(#clip0_2995_2198)">
<mask id="path-1-inside-1_2995_2198" fill="white">
<path d="M22.4635 7.58735C22.5155 7.62466 22.5155 7.62466 22.5685 7.66272C23.1937 8.1536 23.3887 8.90653 23.5476 9.65008C23.563 9.72044 23.5785 9.79081 23.5939 9.86116C23.6355 10.0507 23.6764 10.2404 23.7171 10.4301C23.7514 10.5894 23.7859 10.7485 23.8205 10.9077C23.902 11.2839 23.983 11.6601 24.0637 12.0365C24.1465 12.4226 24.2303 12.8084 24.3146 13.1942C24.3874 13.5272 24.4594 13.8604 24.5309 14.1937C24.5734 14.392 24.6162 14.5902 24.6598 14.7882C25.1045 16.816 25.1045 16.816 24.7348 17.7067C24.6439 17.9287 24.5546 18.1513 24.4663 18.3743C24.3036 18.7839 24.1382 19.1924 23.9725 19.6007C23.8932 19.7961 23.8141 19.9917 23.7351 20.1872C23.5809 20.5683 23.4265 20.9493 23.2719 21.3302C23.3159 21.33 23.36 21.3298 23.4054 21.3295C23.8224 21.3274 24.2394 21.3257 24.6564 21.3247C24.8707 21.3241 25.0851 21.3233 25.2994 21.3221C25.5066 21.3209 25.7138 21.3203 25.9211 21.32C25.9997 21.3198 26.0784 21.3194 26.1571 21.3189C26.9054 21.3135 27.5428 21.3554 28.1122 21.886C28.5111 22.3099 28.5798 22.7682 28.5682 23.3334C28.5335 23.8207 28.3191 24.1841 27.9607 24.51C27.4121 24.9198 26.8739 24.9492 26.2097 24.949C26.149 24.9491 26.0883 24.9493 26.0257 24.9495C25.8259 24.95 25.6262 24.9501 25.4264 24.9502C25.2869 24.9504 25.1475 24.9505 25.008 24.9507C24.716 24.951 24.424 24.9511 24.1319 24.9511C23.7956 24.9511 23.4592 24.9517 23.1228 24.9525C22.7978 24.9533 22.4728 24.9535 22.1478 24.9535C22.0102 24.9535 21.8725 24.9538 21.7349 24.9542C21.5421 24.9547 21.3493 24.9545 21.1565 24.9542C21.1002 24.9545 21.0438 24.9548 20.9858 24.9551C20.3585 24.9525 19.7501 24.8562 19.2838 24.4022C18.955 23.9938 18.753 23.5288 18.7778 22.9971C18.8655 22.3364 19.2061 21.6778 19.4623 21.0675C19.5144 20.9428 19.5664 20.8181 19.6183 20.6934C19.6503 20.6166 19.6824 20.5399 19.7146 20.4632C19.7902 20.309 19.7902 20.309 19.8227 20.1446C19.555 20.2201 19.2873 20.2959 19.0198 20.3719C18.9287 20.3977 18.8375 20.4235 18.7464 20.4492C18.6157 20.4861 18.485 20.5232 18.3543 20.5604C18.3133 20.5719 18.2723 20.5834 18.2301 20.5953C18.0411 20.6372 18.0411 20.6372 17.8825 20.7374C17.8999 20.8646 17.9209 20.989 17.9448 21.1151C17.9521 21.1546 17.9594 21.1941 17.9668 21.2349C17.9827 21.3211 17.9988 21.4073 18.0149 21.4935C18.0406 21.6304 18.0658 21.7673 18.091 21.9042C18.1447 22.1958 18.1988 22.4872 18.2531 22.7786C18.3155 23.1146 18.3777 23.4505 18.4396 23.7866C18.4643 23.9207 18.4894 24.0547 18.5145 24.1887C18.7999 25.7266 18.7999 25.7266 18.4 26.3872C18.1198 26.7664 17.7542 27.0495 17.2897 27.1508C16.6642 27.2156 16.181 27.141 15.6864 26.7466C15.0789 26.1437 15.0096 25.3281 14.8685 24.5224C14.845 24.3925 14.8214 24.2626 14.7978 24.1328C14.736 23.7926 14.6755 23.4522 14.6152 23.1117C14.5536 22.7652 14.4908 22.419 14.4282 22.0727C14.3369 21.5668 14.2459 21.0609 14.156 20.5547C14.1466 20.5022 14.1373 20.4496 14.1276 20.3955C13.9977 19.6614 13.8997 19.0427 14.3087 18.3796C14.7631 17.7466 15.5031 17.5891 16.2173 17.3901C16.289 17.3699 16.3608 17.3497 16.4325 17.3294C16.6194 17.2767 16.8063 17.2243 16.9933 17.1721C17.1849 17.1184 17.3763 17.0645 17.5678 17.0105C17.9421 16.9052 18.3165 16.8002 18.6909 16.6954C18.623 16.3683 18.5549 16.0412 18.4867 15.7142C18.4635 15.6029 18.4403 15.4916 18.4172 15.3803C18.384 15.2204 18.3506 15.0605 18.3173 14.9007C18.3018 14.8259 18.3018 14.8259 18.286 14.7496C18.2714 14.68 18.2714 14.68 18.2565 14.609C18.248 14.5682 18.2395 14.5274 18.2308 14.4854C18.2053 14.3677 18.2053 14.3677 18.152 14.2163C18.1233 14.2536 18.1233 14.2536 18.0941 14.2916C17.0415 15.5812 15.2527 16.179 13.6496 16.3548C13.3554 16.3786 13.0611 16.3876 12.766 16.3922C12.7143 16.3936 12.6626 16.3951 12.6093 16.3965C12.2896 16.3973 12.0734 16.3423 11.788 16.2006C11.6423 16.1383 11.563 16.158 11.4153 16.2103C11.3467 16.2235 11.2781 16.2367 11.2075 16.2503C10.8578 16.3344 10.5473 16.4271 10.342 16.7394C10.222 16.9559 10.1234 17.1817 10.0261 17.4091C9.91148 17.6674 9.7762 17.9147 9.64353 18.164C9.58869 18.2689 9.53396 18.3739 9.47932 18.4789C9.45199 18.5314 9.42465 18.5838 9.39648 18.6379C9.36908 18.6905 9.34167 18.7431 9.31343 18.7972C8.98886 19.4201 8.66408 20.0427 8.33633 20.6639C8.20605 20.9111 8.07669 21.1588 7.94798 21.4069C7.91693 21.4667 7.88587 21.5266 7.85387 21.5883C7.79336 21.705 7.73291 21.8217 7.67253 21.9385C7.64456 21.9925 7.6166 22.0464 7.58778 22.102C7.56327 22.1494 7.53876 22.1968 7.51351 22.2456C7.42715 22.4081 7.42715 22.4081 7.35726 22.5115C7.13007 22.8652 7.12927 23.1524 7.15495 23.5643C7.15772 23.6278 7.16049 23.6912 7.16335 23.7566C7.17246 23.9584 7.18354 24.1601 7.19474 24.3618C7.20452 24.5627 7.2139 24.7637 7.22323 24.9647C7.22917 25.0893 7.23544 25.2139 7.24213 25.3385C7.31058 26.6435 7.31058 26.6435 6.96906 27.0362C6.77253 27.1872 6.57388 27.1885 6.33286 27.1773C6.11404 27.1373 5.95906 27.0461 5.81034 26.8813C5.57459 26.4728 5.63533 25.9046 5.61834 25.4464C5.61485 25.3575 5.61485 25.3575 5.61129 25.2668C5.60564 25.1223 5.60013 24.9778 5.59477 24.8333C5.5861 24.8885 5.57743 24.9437 5.5685 25.0005C5.53591 25.2066 5.50233 25.4126 5.46845 25.6185C5.45397 25.7074 5.43976 25.7963 5.42582 25.8853C5.40565 26.0137 5.38451 26.1419 5.36319 26.2702C5.35425 26.3291 5.35425 26.3291 5.34513 26.3893C5.29789 26.6653 5.21356 26.8641 5.05583 27.0969C4.80213 27.2453 4.59309 27.295 4.30132 27.2586C4.06443 27.1622 3.92248 27.074 3.78933 26.8544C3.58047 26.3469 3.80334 25.6588 3.88554 25.1357C3.89756 25.058 3.90957 24.9804 3.92155 24.9028C3.95281 24.7008 3.98433 24.4988 4.01591 24.2968C4.04823 24.0898 4.08029 23.8827 4.11237 23.6757C4.1751 23.2711 4.23812 22.8665 4.30132 22.462C4.2598 22.4459 4.21828 22.4299 4.1755 22.4133C3.96929 22.3285 3.78569 22.2092 3.59607 22.0926C3.16675 21.9239 2.67929 22.2297 2.2823 22.3953C1.56321 22.6875 1.56321 22.6875 1.20917 22.5563C1.06769 22.462 1.06769 22.462 0.959907 22.3003C0.939907 22.1761 0.939907 22.1761 0.936328 22.0376C0.934174 21.9922 0.932021 21.9467 0.929802 21.8999C0.973371 21.6994 1.0759 21.6251 1.22938 21.4919C1.39317 21.4208 1.39317 21.4208 1.57484 21.3658C2.46523 21.0898 2.46523 21.0898 3.09455 20.442C3.19277 20.2374 3.28284 20.0305 3.36855 19.8204C3.49014 19.5429 3.6496 19.2885 3.80617 19.0297C4.15864 18.4326 4.49553 17.8276 4.83057 17.2206C4.87572 17.1395 4.87572 17.1395 4.92179 17.0567C4.96955 16.9699 5.01641 16.8825 5.06134 16.7942C5.18442 16.5573 5.32335 16.435 5.54424 16.2878C5.6121 16.2415 5.67988 16.1951 5.74761 16.1487C5.78385 16.124 5.8201 16.0994 5.85745 16.074C6.06414 15.9311 6.26533 15.7807 6.46717 15.631C6.55404 15.5668 6.64092 15.5027 6.7278 15.4386C6.86405 15.3379 7.00027 15.2371 7.13647 15.1363C7.22989 15.0672 7.32333 14.9981 7.4168 14.9291C7.50442 14.8643 7.59199 14.7995 7.6795 14.7346C7.75771 14.6769 7.83614 14.6194 7.91485 14.5623C7.9811 14.5141 8.04673 14.465 8.11143 14.4146C8.23826 14.3202 8.3112 14.2674 8.47204 14.2812C8.63054 14.3295 8.72748 14.3953 8.8587 14.4959C9.36251 14.8789 9.36251 14.8789 9.95845 15.0223C10.2622 14.9611 10.5363 14.8409 10.8123 14.7025C10.924 14.6504 11.0288 14.6162 11.1479 14.586C11.2269 14.563 11.2269 14.563 11.3075 14.5396C11.3456 14.4507 11.3811 14.3607 11.4153 14.2702C11.7075 13.9669 11.956 13.7827 12.381 13.7487C12.4437 13.7432 12.5064 13.7376 12.571 13.7319C12.6376 13.7262 12.7041 13.7204 12.7727 13.7144C14.1604 13.5768 15.4 13.1243 16.3222 12.0314C16.8554 11.3629 17.1557 10.569 17.2903 9.73188C17.4348 8.84729 17.7625 8.17828 18.4956 7.62104C19.7046 6.80255 21.2472 6.70726 22.4635 7.58735Z"/>
</mask>
<path d="M22.4635 7.58735C22.5155 7.62466 22.5155 7.62466 22.5685 7.66272C23.1937 8.1536 23.3887 8.90653 23.5476 9.65008C23.563 9.72044 23.5785 9.79081 23.5939 9.86116C23.6355 10.0507 23.6764 10.2404 23.7171 10.4301C23.7514 10.5894 23.7859 10.7485 23.8205 10.9077C23.902 11.2839 23.983 11.6601 24.0637 12.0365C24.1465 12.4226 24.2303 12.8084 24.3146 13.1942C24.3874 13.5272 24.4594 13.8604 24.5309 14.1937C24.5734 14.392 24.6162 14.5902 24.6598 14.7882C25.1045 16.816 25.1045 16.816 24.7348 17.7067C24.6439 17.9287 24.5546 18.1513 24.4663 18.3743C24.3036 18.7839 24.1382 19.1924 23.9725 19.6007C23.8932 19.7961 23.8141 19.9917 23.7351 20.1872C23.5809 20.5683 23.4265 20.9493 23.2719 21.3302C23.3159 21.33 23.36 21.3298 23.4054 21.3295C23.8224 21.3274 24.2394 21.3257 24.6564 21.3247C24.8707 21.3241 25.0851 21.3233 25.2994 21.3221C25.5066 21.3209 25.7138 21.3203 25.9211 21.32C25.9997 21.3198 26.0784 21.3194 26.1571 21.3189C26.9054 21.3135 27.5428 21.3554 28.1122 21.886C28.5111 22.3099 28.5798 22.7682 28.5682 23.3334C28.5335 23.8207 28.3191 24.1841 27.9607 24.51C27.4121 24.9198 26.8739 24.9492 26.2097 24.949C26.149 24.9491 26.0883 24.9493 26.0257 24.9495C25.8259 24.95 25.6262 24.9501 25.4264 24.9502C25.2869 24.9504 25.1475 24.9505 25.008 24.9507C24.716 24.951 24.424 24.9511 24.1319 24.9511C23.7956 24.9511 23.4592 24.9517 23.1228 24.9525C22.7978 24.9533 22.4728 24.9535 22.1478 24.9535C22.0102 24.9535 21.8725 24.9538 21.7349 24.9542C21.5421 24.9547 21.3493 24.9545 21.1565 24.9542C21.1002 24.9545 21.0438 24.9548 20.9858 24.9551C20.3585 24.9525 19.7501 24.8562 19.2838 24.4022C18.955 23.9938 18.753 23.5288 18.7778 22.9971C18.8655 22.3364 19.2061 21.6778 19.4623 21.0675C19.5144 20.9428 19.5664 20.8181 19.6183 20.6934C19.6503 20.6166 19.6824 20.5399 19.7146 20.4632C19.7902 20.309 19.7902 20.309 19.8227 20.1446C19.555 20.2201 19.2873 20.2959 19.0198 20.3719C18.9287 20.3977 18.8375 20.4235 18.7464 20.4492C18.6157 20.4861 18.485 20.5232 18.3543 20.5604C18.3133 20.5719 18.2723 20.5834 18.2301 20.5953C18.0411 20.6372 18.0411 20.6372 17.8825 20.7374C17.8999 20.8646 17.9209 20.989 17.9448 21.1151C17.9521 21.1546 17.9594 21.1941 17.9668 21.2349C17.9827 21.3211 17.9988 21.4073 18.0149 21.4935C18.0406 21.6304 18.0658 21.7673 18.091 21.9042C18.1447 22.1958 18.1988 22.4872 18.2531 22.7786C18.3155 23.1146 18.3777 23.4505 18.4396 23.7866C18.4643 23.9207 18.4894 24.0547 18.5145 24.1887C18.7999 25.7266 18.7999 25.7266 18.4 26.3872C18.1198 26.7664 17.7542 27.0495 17.2897 27.1508C16.6642 27.2156 16.181 27.141 15.6864 26.7466C15.0789 26.1437 15.0096 25.3281 14.8685 24.5224C14.845 24.3925 14.8214 24.2626 14.7978 24.1328C14.736 23.7926 14.6755 23.4522 14.6152 23.1117C14.5536 22.7652 14.4908 22.419 14.4282 22.0727C14.3369 21.5668 14.2459 21.0609 14.156 20.5547C14.1466 20.5022 14.1373 20.4496 14.1276 20.3955C13.9977 19.6614 13.8997 19.0427 14.3087 18.3796C14.7631 17.7466 15.5031 17.5891 16.2173 17.3901C16.289 17.3699 16.3608 17.3497 16.4325 17.3294C16.6194 17.2767 16.8063 17.2243 16.9933 17.1721C17.1849 17.1184 17.3763 17.0645 17.5678 17.0105C17.9421 16.9052 18.3165 16.8002 18.6909 16.6954C18.623 16.3683 18.5549 16.0412 18.4867 15.7142C18.4635 15.6029 18.4403 15.4916 18.4172 15.3803C18.384 15.2204 18.3506 15.0605 18.3173 14.9007C18.3018 14.8259 18.3018 14.8259 18.286 14.7496C18.2714 14.68 18.2714 14.68 18.2565 14.609C18.248 14.5682 18.2395 14.5274 18.2308 14.4854C18.2053 14.3677 18.2053 14.3677 18.152 14.2163C18.1233 14.2536 18.1233 14.2536 18.0941 14.2916C17.0415 15.5812 15.2527 16.179 13.6496 16.3548C13.3554 16.3786 13.0611 16.3876 12.766 16.3922C12.7143 16.3936 12.6626 16.3951 12.6093 16.3965C12.2896 16.3973 12.0734 16.3423 11.788 16.2006C11.6423 16.1383 11.563 16.158 11.4153 16.2103C11.3467 16.2235 11.2781 16.2367 11.2075 16.2503C10.8578 16.3344 10.5473 16.4271 10.342 16.7394C10.222 16.9559 10.1234 17.1817 10.0261 17.4091C9.91148 17.6674 9.7762 17.9147 9.64353 18.164C9.58869 18.2689 9.53396 18.3739 9.47932 18.4789C9.45199 18.5314 9.42465 18.5838 9.39648 18.6379C9.36908 18.6905 9.34167 18.7431 9.31343 18.7972C8.98886 19.4201 8.66408 20.0427 8.33633 20.6639C8.20605 20.9111 8.07669 21.1588 7.94798 21.4069C7.91693 21.4667 7.88587 21.5266 7.85387 21.5883C7.79336 21.705 7.73291 21.8217 7.67253 21.9385C7.64456 21.9925 7.6166 22.0464 7.58778 22.102C7.56327 22.1494 7.53876 22.1968 7.51351 22.2456C7.42715 22.4081 7.42715 22.4081 7.35726 22.5115C7.13007 22.8652 7.12927 23.1524 7.15495 23.5643C7.15772 23.6278 7.16049 23.6912 7.16335 23.7566C7.17246 23.9584 7.18354 24.1601 7.19474 24.3618C7.20452 24.5627 7.2139 24.7637 7.22323 24.9647C7.22917 25.0893 7.23544 25.2139 7.24213 25.3385C7.31058 26.6435 7.31058 26.6435 6.96906 27.0362C6.77253 27.1872 6.57388 27.1885 6.33286 27.1773C6.11404 27.1373 5.95906 27.0461 5.81034 26.8813C5.57459 26.4728 5.63533 25.9046 5.61834 25.4464C5.61485 25.3575 5.61485 25.3575 5.61129 25.2668C5.60564 25.1223 5.60013 24.9778 5.59477 24.8333C5.5861 24.8885 5.57743 24.9437 5.5685 25.0005C5.53591 25.2066 5.50233 25.4126 5.46845 25.6185C5.45397 25.7074 5.43976 25.7963 5.42582 25.8853C5.40565 26.0137 5.38451 26.1419 5.36319 26.2702C5.35425 26.3291 5.35425 26.3291 5.34513 26.3893C5.29789 26.6653 5.21356 26.8641 5.05583 27.0969C4.80213 27.2453 4.59309 27.295 4.30132 27.2586C4.06443 27.1622 3.92248 27.074 3.78933 26.8544C3.58047 26.3469 3.80334 25.6588 3.88554 25.1357C3.89756 25.058 3.90957 24.9804 3.92155 24.9028C3.95281 24.7008 3.98433 24.4988 4.01591 24.2968C4.04823 24.0898 4.08029 23.8827 4.11237 23.6757C4.1751 23.2711 4.23812 22.8665 4.30132 22.462C4.2598 22.4459 4.21828 22.4299 4.1755 22.4133C3.96929 22.3285 3.78569 22.2092 3.59607 22.0926C3.16675 21.9239 2.67929 22.2297 2.2823 22.3953C1.56321 22.6875 1.56321 22.6875 1.20917 22.5563C1.06769 22.462 1.06769 22.462 0.959907 22.3003C0.939907 22.1761 0.939907 22.1761 0.936328 22.0376C0.934174 21.9922 0.932021 21.9467 0.929802 21.8999C0.973371 21.6994 1.0759 21.6251 1.22938 21.4919C1.39317 21.4208 1.39317 21.4208 1.57484 21.3658C2.46523 21.0898 2.46523 21.0898 3.09455 20.442C3.19277 20.2374 3.28284 20.0305 3.36855 19.8204C3.49014 19.5429 3.6496 19.2885 3.80617 19.0297C4.15864 18.4326 4.49553 17.8276 4.83057 17.2206C4.87572 17.1395 4.87572 17.1395 4.92179 17.0567C4.96955 16.9699 5.01641 16.8825 5.06134 16.7942C5.18442 16.5573 5.32335 16.435 5.54424 16.2878C5.6121 16.2415 5.67988 16.1951 5.74761 16.1487C5.78385 16.124 5.8201 16.0994 5.85745 16.074C6.06414 15.9311 6.26533 15.7807 6.46717 15.631C6.55404 15.5668 6.64092 15.5027 6.7278 15.4386C6.86405 15.3379 7.00027 15.2371 7.13647 15.1363C7.22989 15.0672 7.32333 14.9981 7.4168 14.9291C7.50442 14.8643 7.59199 14.7995 7.6795 14.7346C7.75771 14.6769 7.83614 14.6194 7.91485 14.5623C7.9811 14.5141 8.04673 14.465 8.11143 14.4146C8.23826 14.3202 8.3112 14.2674 8.47204 14.2812C8.63054 14.3295 8.72748 14.3953 8.8587 14.4959C9.36251 14.8789 9.36251 14.8789 9.95845 15.0223C10.2622 14.9611 10.5363 14.8409 10.8123 14.7025C10.924 14.6504 11.0288 14.6162 11.1479 14.586C11.2269 14.563 11.2269 14.563 11.3075 14.5396C11.3456 14.4507 11.3811 14.3607 11.4153 14.2702C11.7075 13.9669 11.956 13.7827 12.381 13.7487C12.4437 13.7432 12.5064 13.7376 12.571 13.7319C12.6376 13.7262 12.7041 13.7204 12.7727 13.7144C14.1604 13.5768 15.4 13.1243 16.3222 12.0314C16.8554 11.3629 17.1557 10.569 17.2903 9.73188C17.4348 8.84729 17.7625 8.17828 18.4956 7.62104C19.7046 6.80255 21.2472 6.70726 22.4635 7.58735Z" stroke="#F8F8F8" stroke-width="2.29947" mask="url(#path-1-inside-1_2995_2198)"/>
<path d="M17.7267 1.14966C18.4839 0.940664 19.3914 1.14338 20.0392 1.62622C20.1557 1.72902 20.2682 1.83633 20.381 1.95239L20.3869 1.95825L20.3927 1.96509C20.4234 1.99477 20.4541 2.02452 20.4855 2.05493C20.9456 2.53348 21.1603 3.22767 21.1554 3.96021C21.1248 4.71287 20.8248 5.40374 20.2902 5.92407C19.6585 6.45812 18.9245 6.69767 18.0959 6.64771C17.4931 6.58672 17.0037 6.36249 16.5451 5.96313L16.3478 5.77954L16.341 5.77271L16.2424 5.677C15.7857 5.19519 15.5757 4.50952 15.5822 3.77856C15.6108 2.9766 15.9392 2.32919 16.5412 1.76392C16.7791 1.55778 17.0241 1.41226 17.3146 1.29419L17.6252 1.18384L17.631 1.18091C17.6812 1.16437 17.69 1.16177 17.7267 1.14966Z" stroke="#F8F8F8" stroke-width="1.14973"/>
<path d="M7.72167 10.4448C7.85629 10.3896 7.96484 10.3813 8.08495 10.4253C8.18477 10.5229 8.25648 10.634 8.31249 10.7798C8.34348 11.317 8.22909 11.7126 7.90624 12.1167C7.8382 12.1892 7.76905 12.2609 7.69823 12.3315L7.46484 12.5581L7.1953 12.811L7.31347 13.1606C7.33215 13.2161 7.35087 13.2715 7.37011 13.3286V13.3296L7.44433 13.5503L7.4453 13.5513L7.48241 13.6626C7.49514 13.7006 7.5067 13.7382 7.51855 13.7749C7.21859 13.9968 7.04023 14.1301 6.89941 14.2329L6.35644 14.6226H6.35546L5.81542 15.0112L5.68554 15.106L5.43456 15.2896C5.36369 15.3411 5.29081 15.3875 5.21972 15.4351C5.19812 15.403 5.17573 15.3715 5.15429 15.3394L4.79784 14.7896V14.7886L4.41113 14.1802C4.20512 13.8602 4.07326 13.6698 3.8457 13.3647L3.4121 12.7905L3.4082 12.7866L3.30175 12.6489L3.29589 12.6421L3.29003 12.6343L3.19335 12.5239C3.16095 12.4887 3.12875 12.4548 3.0957 12.4224L2.88964 12.2378C2.69353 12.0697 2.62723 11.9942 2.60253 11.9321C2.60414 11.9303 2.60641 11.9284 2.60839 11.9263C2.61969 11.914 2.63298 11.9006 2.65038 11.8833C2.72138 11.8512 2.80287 11.8413 2.95019 11.8628C3.01212 11.8901 3.07494 11.9182 3.13769 11.9507L3.38671 12.0894C3.53598 12.1771 3.5633 12.1893 3.76073 12.27L3.95019 12.3472L4.14745 12.2866C4.39008 12.2119 4.60179 12.0944 4.75585 12.0112C4.95228 11.9119 5.15702 11.8492 5.40429 11.7886L5.66698 11.728L5.67773 11.7251C6.11919 11.6155 6.43817 11.4456 6.77538 11.1519L6.93749 11.0142L6.94433 11.0083C7.01849 10.9436 7.01882 10.9437 7.09472 10.8774L7.09374 10.8765C7.33705 10.6694 7.53629 10.5209 7.72167 10.4448Z" stroke="#F8F8F8" stroke-width="1.14973"/>
</g>
<defs>
<clipPath id="clip0_2995_2198">
<rect width="27.5936" height="27.5936" fill="white" transform="translate(0.959908 0.0961914)"/>
</clipPath>
</defs>
</svg>
