<svg width="310" height="310" viewBox="0 0 310 310" fill="none" xmlns="http://www.w3.org/2000/svg">
<path d="M301.512 183.849L300.781 183.539L298.648 182.596C296.788 181.784 294.004 180.556 290.396 179.087C286.787 177.618 282.336 175.888 277.059 174.276C274.418 173.464 271.56 172.701 268.497 172.019C265.263 171.333 261.992 170.83 258.701 170.512C251.13 169.893 243.51 170.42 236.096 172.075C228.086 173.749 219.753 176.458 211.017 179.341C208.822 180.048 206.615 180.798 204.364 181.493L200.967 182.553L197.513 183.551L195.765 184.047L193.998 184.5C192.814 184.791 191.636 185.12 190.433 185.386C188.021 185.87 185.603 186.453 183.111 186.769L181.251 187.048C180.941 187.097 180.631 187.147 180.315 187.184L179.366 187.265L175.572 187.593C174.294 187.668 173.011 187.637 171.728 187.662H169.793L167.853 187.544C162.615 187.178 157.425 186.31 152.353 184.952C142.048 182.261 132.426 178.275 122.965 175.032C118.337 173.382 113.627 171.973 108.853 170.81C104.273 169.722 99.6249 168.939 94.9406 168.466C86.2716 167.615 77.5331 167.773 68.9006 168.938C61.3814 169.983 53.9839 171.769 46.8162 174.27C40.9008 176.321 35.1701 178.87 29.6856 181.889L26.2322 183.911L24.6016 184.865C24.087 185.2 23.591 185.547 23.095 185.876L20.2864 187.779L18.972 188.666C18.5628 188.97 18.1722 189.286 17.7878 189.584L13.64 192.758C12.5116 193.738 11.5754 194.618 10.8066 195.275L9.0644 196.819L8.4444 197.34L9.021 196.8L10.7446 195.226C11.5072 194.537 12.4372 193.676 13.5594 192.684C14.6816 191.692 16.1014 190.687 17.6328 189.484C18.0172 189.187 18.4016 188.864 18.817 188.561L20.1252 187.668L22.9338 185.752C23.4236 185.417 23.9196 185.07 24.4342 184.735L26.0648 183.768L29.5182 181.734C35.0012 178.688 40.7368 176.12 46.6612 174.059C53.8503 171.532 61.2732 169.727 68.82 168.671C77.4762 167.494 86.2398 167.328 94.9344 168.175C99.6312 168.643 104.292 169.424 108.884 170.512C113.669 171.673 118.389 173.082 123.027 174.735C132.506 177.996 142.116 181.976 152.396 184.655C157.457 186.011 162.638 186.877 167.865 187.24L169.793 187.358H171.721C172.999 187.358 174.276 187.358 175.547 187.29L179.329 186.967L180.271 186.887C180.581 186.887 180.891 186.8 181.201 186.756L183.061 186.471C185.541 186.161 187.959 185.585 190.365 185.101C191.561 184.828 192.739 184.481 193.924 184.214L195.684 183.768L197.427 183.272L200.88 182.28L204.271 181.22C206.522 180.532 208.729 179.781 210.924 179.081C219.666 176.204 228.011 173.501 236.04 171.833C243.479 170.181 251.126 169.665 258.72 170.302C262.02 170.628 265.299 171.142 268.541 171.839C271.61 172.527 274.468 173.296 277.109 174.121C282.404 175.758 286.837 177.518 290.439 178.994C297.631 181.97 301.512 183.849 301.512 183.849Z" fill="#F5F5F5"/>
<path d="M142.891 150.66C142.863 150.758 142.828 150.853 142.786 150.945L142.433 151.739C142.116 152.421 141.676 153.425 141.193 154.671C139.864 157.92 138.781 161.262 137.95 164.672C137.132 168.087 136.575 171.558 136.282 175.057C136.171 176.402 136.102 177.494 136.078 178.244C136.078 178.591 136.04 178.864 136.028 179.112C136.032 179.214 136.019 179.317 135.991 179.416C135.976 179.315 135.976 179.213 135.991 179.112C135.991 178.876 135.991 178.591 135.991 178.244C135.991 177.487 135.991 176.384 136.09 175.045C136.553 167.99 138.231 161.068 141.05 154.585C141.596 153.345 142.067 152.359 142.42 151.689C142.581 151.385 142.718 151.131 142.823 150.92C142.929 150.71 142.879 150.66 142.891 150.66Z" fill="#F5F5F5"/>
<path d="M152.948 166.427C152.743 166.591 152.52 166.732 152.284 166.848C151.844 167.096 151.224 167.468 150.468 167.964C146.517 170.522 143.169 173.906 140.653 177.884C140.17 178.641 139.798 179.273 139.556 179.713C139.44 179.95 139.301 180.174 139.14 180.383C139.215 180.129 139.317 179.883 139.444 179.651C139.752 179.015 140.091 178.394 140.461 177.791C142.896 173.711 146.288 170.285 150.344 167.809C151.125 167.338 151.77 166.991 152.204 166.774C152.439 166.633 152.688 166.516 152.948 166.427Z" fill="#F5F5F5"/>
<path d="M139.023 149.594C138.037 150.152 137.318 151.354 137.696 152.421C137.741 152.589 137.83 152.743 137.952 152.867C138.075 152.991 138.228 153.081 138.396 153.128C138.73 153.15 139.06 153.046 139.32 152.836C140.799 151.865 141.99 150.514 142.767 148.924C141.639 148.98 140.008 149.042 139.023 149.594Z" fill="#F5F5F5"/>
<path d="M141.546 144.9C140.783 144.063 139.45 143.629 138.496 144.237C138.343 144.321 138.213 144.442 138.12 144.589C138.027 144.737 137.972 144.906 137.962 145.08C138.015 145.409 138.19 145.706 138.452 145.911C139.729 147.134 141.312 147.991 143.034 148.391C142.73 147.312 142.309 145.737 141.546 144.9Z" fill="#F5F5F5"/>
<path d="M145.824 152.942C146.053 154.045 145.619 155.384 144.584 155.8C144.426 155.876 144.252 155.91 144.077 155.899C143.902 155.888 143.733 155.833 143.586 155.738C143.349 155.503 143.211 155.185 143.201 154.851C142.955 153.098 143.188 151.311 143.877 149.68C144.565 150.567 145.595 151.832 145.824 152.942Z" fill="#F5F5F5"/>
<path d="M147.938 148.062C149.067 148.062 150.269 148.806 150.418 149.922C150.457 150.092 150.451 150.269 150.403 150.436C150.354 150.603 150.263 150.755 150.139 150.877C149.856 151.058 149.514 151.122 149.184 151.057C147.423 150.904 145.735 150.278 144.299 149.246C145.34 148.757 146.804 148.044 147.938 148.062Z" fill="#F5F5F5"/>
<path d="M147.157 146.32C147.851 145.427 148.044 144.038 147.281 143.22C147.174 143.083 147.033 142.975 146.872 142.908C146.712 142.841 146.536 142.816 146.363 142.836C146.047 142.939 145.782 143.161 145.626 143.456C144.634 144.929 144.06 146.643 143.964 148.416C144.987 147.913 146.463 147.225 147.157 146.32Z" fill="#F5F5F5"/>
<path d="M143.487 149.457C143.702 149.457 143.877 149.282 143.877 149.067C143.877 148.851 143.702 148.676 143.487 148.676C143.271 148.676 143.096 148.851 143.096 149.067C143.096 149.282 143.271 149.457 143.487 149.457Z" fill="#F5F5F5"/>
<path d="M150.152 163.804C149.029 163.661 147.74 164.201 147.405 165.286C147.343 165.449 147.324 165.625 147.349 165.797C147.374 165.97 147.442 166.133 147.548 166.272C147.802 166.49 148.13 166.603 148.465 166.588C150.231 166.685 151.99 166.308 153.562 165.497C152.619 164.864 151.28 163.947 150.152 163.804Z" fill="#F5F5F5"/>
<path d="M155 161.535C154.888 160.406 154.07 159.266 152.948 159.185C152.775 159.161 152.599 159.181 152.436 159.244C152.273 159.307 152.129 159.41 152.018 159.545C151.858 159.839 151.82 160.184 151.912 160.506C152.208 162.25 152.968 163.882 154.113 165.23C154.492 164.176 155.087 162.657 155 161.535Z" fill="#F5F5F5"/>
<path d="M153.63 170.543C153.159 171.566 152.012 172.403 150.92 172.093C150.751 172.063 150.593 171.99 150.459 171.882C150.326 171.773 150.222 171.633 150.158 171.473C150.107 171.143 150.185 170.806 150.375 170.531C151.22 168.976 152.472 167.68 153.996 166.78C154.033 167.884 154.101 169.514 153.63 170.543Z" fill="#F5F5F5"/>
<path d="M158.23 167.877C159.123 168.566 159.662 169.861 159.142 170.866C159.072 171.029 158.963 171.172 158.823 171.28C158.683 171.389 158.517 171.46 158.342 171.486C158.01 171.464 157.699 171.315 157.474 171.07C156.152 169.905 155.167 168.406 154.622 166.73C155.732 166.892 157.331 167.189 158.23 167.877Z" fill="#F5F5F5"/>
<path d="M158.633 166.024C159.724 165.714 160.704 164.715 160.592 163.593C160.586 163.419 160.536 163.249 160.446 163.099C160.356 162.949 160.229 162.825 160.078 162.738C159.759 162.637 159.414 162.66 159.111 162.8C157.444 163.394 155.969 164.427 154.839 165.788C155.949 166.005 157.548 166.327 158.633 166.024Z" fill="#F5F5F5"/>
<path d="M154.38 166.272C154.333 166.335 154.269 166.383 154.195 166.41C154.121 166.436 154.041 166.441 153.964 166.422C153.888 166.402 153.819 166.361 153.766 166.303C153.713 166.244 153.679 166.172 153.668 166.094C153.656 166.016 153.668 165.937 153.702 165.866C153.736 165.795 153.79 165.735 153.858 165.695C153.926 165.655 154.004 165.636 154.083 165.64C154.161 165.645 154.237 165.672 154.299 165.72C154.383 165.783 154.438 165.876 154.453 165.979C154.468 166.082 154.442 166.188 154.38 166.272Z" fill="#F5F5F5"/>
<path d="M36.3258 146.94C36.3881 147.021 36.4421 147.108 36.487 147.2L36.8962 147.969C37.2496 148.639 37.7146 149.625 38.2602 150.865C39.6584 154.103 40.7784 157.455 41.6082 160.884C42.4305 164.313 42.9594 167.806 43.1892 171.325C43.2698 172.676 43.3008 173.774 43.2946 174.53C43.2946 174.877 43.2946 175.15 43.2946 175.398C43.3091 175.499 43.3091 175.601 43.2946 175.702C43.2667 175.603 43.2541 175.501 43.2574 175.398C43.2574 175.162 43.2574 174.877 43.2078 174.53C43.2078 173.78 43.1148 172.67 43.0032 171.343C42.7105 167.844 42.153 164.373 41.3354 160.958C40.5076 157.546 39.4237 154.201 38.0928 150.951C37.5782 149.711 37.1442 148.707 36.8528 148.025C36.7164 147.707 36.5986 147.44 36.4994 147.225C36.4251 147.141 36.3664 147.045 36.3258 146.94Z" fill="#F5F5F5"/>
<path d="M26.2632 162.719C26.5126 162.798 26.7535 162.902 26.9824 163.029C27.6204 163.341 28.2413 163.686 28.8424 164.064C32.9084 166.533 36.3096 169.957 38.75 174.04C39.1207 174.653 39.4601 175.284 39.7668 175.931C39.8934 176.162 39.9952 176.405 40.0706 176.657C39.9092 176.451 39.77 176.228 39.6552 175.993C39.4134 175.547 39.0352 174.921 38.5578 174.164C37.3082 172.188 35.8535 170.348 34.2178 168.677C32.5643 167.016 30.7396 165.534 28.7742 164.257C28.0178 163.767 27.3978 163.389 26.9576 163.141C26.711 163.027 26.478 162.885 26.2632 162.719Z" fill="#F5F5F5"/>
<path d="M40.1884 145.886C41.1742 146.438 41.8934 147.647 41.5152 148.713C41.4677 148.881 41.3785 149.033 41.256 149.157C41.1335 149.281 40.9816 149.371 40.8146 149.42C40.4809 149.443 40.151 149.339 39.8908 149.129C38.4116 148.157 37.221 146.806 36.4436 145.216C37.5782 145.266 39.2026 145.328 40.1884 145.886Z" fill="#F5F5F5"/>
<path d="M37.665 141.193C38.4276 140.356 39.7606 139.953 40.7154 140.529C40.868 140.612 40.997 140.732 41.0903 140.879C41.1836 141.025 41.2381 141.193 41.2486 141.366C41.1974 141.697 41.0223 141.996 40.7588 142.203C39.483 143.428 37.8999 144.285 36.177 144.683C36.4808 143.604 36.9024 142.03 37.665 141.193Z" fill="#F5F5F5"/>
<path d="M33.387 149.234C33.1576 150.338 33.5916 151.671 34.627 152.092C34.7855 152.165 34.9597 152.198 35.1339 152.187C35.3082 152.176 35.477 152.122 35.6252 152.03C35.8623 151.795 35.9999 151.478 36.0096 151.144C36.2586 149.391 36.0271 147.604 35.34 145.973C34.6456 146.859 33.6164 148.124 33.387 149.234Z" fill="#F5F5F5"/>
<path d="M31.279 144.355C30.1444 144.355 28.9416 145.092 28.768 146.215C28.7291 146.386 28.7349 146.564 28.7848 146.732C28.8348 146.901 28.9272 147.053 29.0532 147.176C29.3363 147.351 29.6742 147.415 30.0018 147.355C31.7638 147.203 33.4519 146.578 34.8874 145.545C33.8706 145.08 32.4074 144.33 31.279 144.355Z" fill="#F5F5F5"/>
<path d="M32.054 142.6C31.3658 141.707 31.1674 140.318 31.93 139.5C32.0392 139.364 32.1814 139.258 32.343 139.191C32.5046 139.125 32.6804 139.101 32.8538 139.122C33.167 139.229 33.4283 139.45 33.5854 139.742C34.5783 141.214 35.1526 142.929 35.247 144.702C34.224 144.206 32.7484 143.518 32.054 142.6Z" fill="#F5F5F5"/>
<path d="M35.34 145.359C35.34 145.463 35.3812 145.562 35.4544 145.635C35.5277 145.708 35.627 145.75 35.7306 145.75C35.8342 145.75 35.9335 145.708 36.0068 145.635C36.08 145.562 36.1212 145.463 36.1212 145.359C36.1212 145.255 36.08 145.156 36.0068 145.083C35.9335 145.01 35.8342 144.968 35.7306 144.968C35.627 144.968 35.5277 145.01 35.4544 145.083C35.3812 145.156 35.34 145.255 35.34 145.359Z" fill="#F5F5F5"/>
<path d="M29.0594 160.096C30.1816 159.954 31.4774 160.493 31.806 161.572C31.8687 161.736 31.8886 161.913 31.8636 162.087C31.8386 162.26 31.7697 162.425 31.6634 162.564C31.4104 162.78 31.0842 162.891 30.752 162.874C28.9837 162.979 27.2201 162.602 25.6494 161.783C26.5918 161.157 27.9372 160.233 29.0594 160.096Z" fill="#F5F5F5"/>
<path d="M24.2358 157.827C24.3474 156.699 25.1658 155.558 26.2942 155.477C26.467 155.452 26.6434 155.472 26.8063 155.535C26.9692 155.598 27.1131 155.702 27.2242 155.837C27.3787 156.133 27.4142 156.477 27.3234 156.798C27.028 158.542 26.2677 160.174 25.1224 161.522C24.7194 160.468 24.1242 158.949 24.2358 157.827Z" fill="#F5F5F5"/>
<path d="M25.5812 166.83C26.0586 167.859 27.1994 168.69 28.2906 168.386C28.4589 168.353 28.6166 168.28 28.7496 168.171C28.8827 168.063 28.9869 167.924 29.0532 167.766C29.1039 167.436 29.0262 167.098 28.8362 166.823C27.9867 165.282 26.7383 163.997 25.2216 163.103C25.1782 164.176 25.11 165.807 25.5812 166.83Z" fill="#F5F5F5"/>
<path d="M20.9808 164.17C20.088 164.858 19.5486 166.154 20.0756 167.152C20.1432 167.315 20.2518 167.458 20.3908 167.566C20.5299 167.675 20.6947 167.746 20.8692 167.772C21.2019 167.748 21.5125 167.597 21.7372 167.35C23.0617 166.187 24.0471 164.688 24.5892 163.01C23.4794 163.184 21.8798 163.475 20.9808 164.17Z" fill="#F5F5F5"/>
<path d="M20.5778 162.31C19.4928 162.006 18.507 161.008 18.6186 159.879C18.6253 159.705 18.676 159.535 18.766 159.385C18.8559 159.236 18.9823 159.111 19.1332 159.024C19.4525 158.922 19.7985 158.947 20.1004 159.092C21.7676 159.685 23.2435 160.718 24.3722 162.08C23.2624 162.291 21.7 162.62 20.5778 162.31Z" fill="#F5F5F5"/>
<path d="M24.8372 162.564C24.863 162.617 24.9001 162.663 24.9459 162.699C24.9917 162.736 25.045 162.762 25.102 162.775C25.1591 162.789 25.2184 162.79 25.2757 162.777C25.333 162.765 25.3869 162.741 25.4336 162.705C25.4802 162.67 25.5184 162.624 25.5455 162.572C25.5725 162.52 25.5877 162.463 25.59 162.405C25.5922 162.346 25.5815 162.288 25.5585 162.234C25.5356 162.18 25.501 162.132 25.4572 162.093C25.4271 162.051 25.389 162.016 25.3451 161.989C25.3012 161.962 25.2523 161.945 25.2014 161.937C25.1506 161.93 25.0987 161.932 25.0489 161.945C24.9991 161.958 24.9524 161.981 24.9116 162.012C24.8293 162.076 24.7753 162.17 24.7614 162.273C24.7474 162.376 24.7747 162.481 24.8372 162.564Z" fill="#F5F5F5"/>
<path d="M262.75 141.831C262.728 141.931 262.692 142.027 262.644 142.116C262.553 142.335 262.436 142.602 262.291 142.916C261.975 143.598 261.535 144.596 261.051 145.843C258.368 152.345 256.71 159.224 256.134 166.234C256.023 167.58 255.961 168.671 255.93 169.421C255.93 169.768 255.893 170.041 255.88 170.289C255.883 170.392 255.871 170.494 255.843 170.593C255.828 170.492 255.828 170.39 255.843 170.289C255.843 170.054 255.843 169.768 255.843 169.421C255.843 168.665 255.843 167.561 255.948 166.216C256.401 159.163 258.069 152.241 260.877 145.756C261.417 144.516 261.888 143.53 262.241 142.86C262.403 142.55 262.539 142.302 262.651 142.092C262.762 141.881 262.737 141.825 262.75 141.831Z" fill="#F5F5F5"/>
<path d="M272.552 156.482C272.344 156.646 272.12 156.787 271.882 156.903C271.448 157.151 270.822 157.523 270.066 158.019C266.115 160.577 262.766 163.962 260.251 167.939C259.774 168.696 259.396 169.328 259.154 169.768C259.038 170.005 258.899 170.229 258.738 170.438C258.816 170.187 258.918 169.944 259.042 169.713C259.253 169.248 259.6 168.603 260.059 167.853C262.494 163.77 265.889 160.344 269.948 157.871C270.723 157.399 271.368 157.052 271.808 156.835C272.043 156.691 272.292 156.573 272.552 156.482Z" fill="#F5F5F5"/>
<path d="M258.881 140.74C257.895 141.292 257.176 142.501 257.554 143.567C257.602 143.735 257.691 143.887 257.813 144.011C257.936 144.135 258.088 144.225 258.255 144.274C258.589 144.297 258.919 144.193 259.179 143.983C260.659 143.013 261.85 141.661 262.626 140.07C261.497 140.151 259.867 140.207 258.881 140.74Z" fill="#F5F5F5"/>
<path d="M261.404 136.071C260.648 135.234 259.315 134.8 258.354 135.408C258.201 135.491 258.072 135.611 257.979 135.758C257.886 135.904 257.831 136.072 257.821 136.245C257.872 136.576 258.047 136.875 258.311 137.082C259.587 138.306 261.17 139.162 262.892 139.562C262.589 138.483 262.167 136.908 261.404 136.071Z" fill="#F5F5F5"/>
<path d="M265.682 144.113C265.912 145.216 265.484 146.549 264.442 146.971C264.285 147.044 264.112 147.077 263.939 147.066C263.765 147.055 263.598 147.001 263.45 146.909C263.214 146.673 263.074 146.356 263.06 146.022C262.82 144.269 263.053 142.484 263.736 140.852C264.43 141.738 265.453 143.003 265.682 144.113Z" fill="#F5F5F5"/>
<path d="M267.797 139.233C268.925 139.233 270.128 139.971 270.277 141.093C270.315 141.263 270.309 141.44 270.26 141.607C270.211 141.774 270.121 141.926 269.998 142.048C269.714 142.223 269.377 142.287 269.049 142.228C267.285 142.076 265.595 141.451 264.157 140.418C265.199 139.928 266.662 139.209 267.797 139.233Z" fill="#F5F5F5"/>
<path d="M267.015 137.497C267.71 136.605 267.902 135.216 267.146 134.397C267.036 134.261 266.894 134.155 266.733 134.089C266.571 134.023 266.395 133.999 266.222 134.019C265.907 134.126 265.643 134.347 265.484 134.639C264.493 136.112 263.921 137.826 263.829 139.599C264.845 139.085 266.321 138.396 267.015 137.497Z" fill="#F5F5F5"/>
<path d="M263.742 140.238C263.74 140.342 263.698 140.441 263.623 140.514C263.549 140.587 263.449 140.628 263.345 140.628C263.241 140.628 263.142 140.587 263.069 140.514C262.996 140.441 262.954 140.341 262.954 140.238C262.954 140.134 262.995 140.034 263.068 139.959C263.142 139.885 263.241 139.843 263.345 139.841C263.45 139.841 263.551 139.883 263.626 139.957C263.7 140.032 263.742 140.133 263.742 140.238Z" fill="#F5F5F5"/>
<path d="M269.75 153.859C268.634 153.717 267.338 154.256 267.003 155.341C266.941 155.504 266.922 155.68 266.947 155.852C266.972 156.025 267.04 156.188 267.146 156.327C267.4 156.545 267.728 156.659 268.063 156.643C269.829 156.744 271.59 156.367 273.16 155.552C272.217 154.919 270.872 154.002 269.75 153.859Z" fill="#F5F5F5"/>
<path d="M274.573 151.59C274.462 150.468 273.649 149.321 272.521 149.24C272.348 149.216 272.172 149.236 272.009 149.299C271.846 149.362 271.702 149.466 271.591 149.6C271.431 149.894 271.393 150.239 271.486 150.561C271.78 152.305 272.54 153.938 273.687 155.285C274.09 154.231 274.66 152.712 274.573 151.59Z" fill="#F5F5F5"/>
<path d="M273.228 160.58C272.757 161.603 271.616 162.44 270.518 162.13C270.349 162.1 270.191 162.027 270.057 161.918C269.924 161.81 269.82 161.669 269.756 161.51C269.708 161.18 269.786 160.844 269.973 160.568C270.818 159.013 272.07 157.716 273.594 156.817C273.631 157.939 273.699 159.569 273.228 160.58Z" fill="#F5F5F5"/>
<path d="M277.828 157.933C278.721 158.621 279.267 159.917 278.74 160.921C278.671 161.085 278.562 161.228 278.422 161.337C278.282 161.446 278.115 161.516 277.94 161.541C277.608 161.519 277.297 161.37 277.072 161.126C275.75 159.96 274.765 158.461 274.22 156.786C275.33 156.947 276.935 157.244 277.828 157.933Z" fill="#F5F5F5"/>
<path d="M278.231 156.079C279.322 155.769 280.302 154.771 280.19 153.648C280.184 153.474 280.134 153.304 280.044 153.154C279.954 153.004 279.827 152.88 279.676 152.793C279.357 152.693 279.012 152.715 278.709 152.855C277.042 153.45 275.567 154.482 274.437 155.843C275.547 156.06 277.14 156.383 278.231 156.079Z" fill="#F5F5F5"/>
<path d="M273.972 156.327C273.909 156.41 273.816 156.465 273.712 156.48C273.609 156.496 273.504 156.469 273.42 156.407C273.359 156.339 273.323 156.251 273.32 156.159C273.316 156.067 273.345 155.977 273.401 155.904C273.456 155.83 273.536 155.779 273.625 155.758C273.715 155.736 273.809 155.747 273.891 155.787C273.971 155.85 274.024 155.941 274.039 156.041C274.054 156.141 274.03 156.244 273.972 156.327Z" fill="#F5F5F5"/>
<path d="M239.816 156.159C240.068 156.239 240.312 156.345 240.541 156.476C241.178 156.787 241.799 157.131 242.401 157.505C246.475 159.977 249.886 163.403 252.34 167.487C252.71 168.099 253.048 168.73 253.351 169.378C253.478 169.609 253.582 169.852 253.661 170.103C253.498 169.896 253.358 169.672 253.245 169.434C252.997 168.993 252.625 168.367 252.142 167.605C249.622 163.63 246.274 160.247 242.327 157.685C241.577 157.195 240.951 156.817 240.51 156.569C240.262 156.463 240.029 156.325 239.816 156.159Z" fill="#F5F5F5"/>
<path d="M242.612 153.537C243.734 153.4 245.03 153.94 245.359 155.019C245.422 155.181 245.442 155.358 245.417 155.53C245.392 155.703 245.323 155.866 245.216 156.004C244.965 156.224 244.638 156.338 244.305 156.321C242.539 156.423 240.778 156.046 239.208 155.229C240.145 154.597 241.49 153.679 242.612 153.537Z" fill="#F5F5F5"/>
<path d="M237.789 151.28C237.906 150.158 238.719 149.017 239.847 148.93C240.02 148.906 240.196 148.927 240.358 148.99C240.521 149.053 240.665 149.156 240.777 149.29C240.93 149.586 240.968 149.929 240.882 150.251C240.595 152.001 239.842 153.642 238.7 155C238.272 153.909 237.677 152.396 237.789 151.28Z" fill="#F5F5F5"/>
<path d="M239.14 160.276C239.611 161.305 240.752 162.136 241.843 161.826C242.013 161.796 242.172 161.724 242.305 161.615C242.439 161.507 242.542 161.366 242.606 161.206C242.66 160.877 242.584 160.539 242.395 160.264C241.545 158.711 240.295 157.413 238.774 156.507C238.737 157.623 238.663 159.247 239.14 160.276Z" fill="#F5F5F5"/>
<path d="M234.54 157.61C233.641 158.305 233.101 159.594 233.628 160.599C233.696 160.762 233.805 160.904 233.944 161.013C234.083 161.122 234.247 161.193 234.422 161.219C234.756 161.193 235.068 161.042 235.296 160.797C236.618 159.632 237.603 158.133 238.148 156.457C237.038 156.624 235.433 156.922 234.54 157.61Z" fill="#F5F5F5"/>
<path d="M234.131 155.756C233.046 155.453 232.06 154.448 232.178 153.326C232.183 153.151 232.233 152.981 232.323 152.831C232.413 152.681 232.54 152.557 232.692 152.47C233.009 152.369 233.353 152.394 233.653 152.539C235.322 153.129 236.8 154.16 237.931 155.521C236.84 155.738 235.222 156.06 234.131 155.756Z" fill="#F5F5F5"/>
<path d="M238.396 156.004C238.458 156.087 238.55 156.142 238.652 156.157C238.755 156.173 238.859 156.147 238.942 156.085C238.984 156.055 239.02 156.018 239.047 155.974C239.074 155.93 239.093 155.882 239.101 155.831C239.109 155.78 239.107 155.728 239.094 155.678C239.082 155.628 239.06 155.581 239.029 155.539C238.966 155.456 238.873 155.401 238.769 155.386C238.666 155.371 238.561 155.397 238.477 155.459C238.435 155.489 238.4 155.527 238.373 155.571C238.346 155.615 238.329 155.664 238.321 155.715C238.314 155.765 238.316 155.817 238.329 155.867C238.342 155.917 238.365 155.964 238.396 156.004Z" fill="#F5F5F5"/>
<path d="M221.111 64.5234C219.815 61.566 218.488 58.5714 216.306 56.0232C214.033 53.2704 210.804 51.4786 207.266 51.0074C203.596 50.623 199.528 52.3156 198.332 55.2978C197.805 48.577 196.683 41.6578 192.752 35.836C188.821 30.0142 181.437 25.4076 173.532 25.8168C166.092 26.2074 159.724 30.9194 156.172 36.5118C152.619 42.1042 151.423 48.5212 150.257 54.8018C147.436 51.8506 141.484 52.7744 138.539 55.6388C135.594 58.5032 134.856 62.5022 134.23 66.2718H222.382L221.111 64.5234Z" fill="#F5F5F5"/>
<path d="M96.2736 54.1508C95.387 52.1358 94.488 50.0898 92.9938 48.3476C91.4364 46.4603 89.2203 45.2348 86.7938 44.919C84.2828 44.6586 81.5052 45.8118 80.6868 47.8516C80.3272 43.2574 79.5646 38.5516 76.8676 34.5526C74.1706 30.5536 69.1362 27.4288 63.7484 27.7326C58.6644 27.9992 54.312 31.217 51.894 35.0424C49.476 38.8678 48.67 43.2202 47.8764 47.5106C45.9482 45.4956 41.881 46.128 39.8722 48.0872C37.8634 50.0464 37.355 52.7744 36.9272 55.3474H97.1478L96.2736 54.1508Z" fill="#F5F5F5"/>
<path d="M129.152 86.2668C128.69 85.0608 128.05 83.9304 127.255 82.9126C126.359 81.8273 125.085 81.1208 123.69 80.9348C122.239 80.7798 120.633 81.4494 120.162 82.6274C119.951 79.9738 119.511 77.2458 117.955 74.9394C117.186 73.7047 116.109 72.6908 114.831 71.9968C113.552 71.3027 112.115 70.9523 110.661 70.9798C109.206 71.0073 107.784 71.4118 106.532 72.1536C105.281 72.8955 104.244 73.9494 103.521 75.2122C102.126 77.4194 101.661 79.949 101.19 82.429C100.074 81.2634 97.7244 81.6292 96.565 82.7576C95.4056 83.886 95.108 85.467 94.86 86.955H129.654L129.152 86.2668Z" fill="#FAFAFA"/>
<path d="M273.99 39.401C273.532 38.1943 272.895 37.0635 272.099 36.0468C271.196 34.9717 269.921 34.2765 268.528 34.1C267.077 33.945 265.472 34.6146 265 35.7926C264.79 33.139 264.349 30.411 262.793 28.1046C262.025 26.8698 260.949 25.8557 259.671 25.1615C258.393 24.4673 256.956 24.1168 255.502 24.1443C254.048 24.1718 252.626 24.5764 251.375 25.3184C250.124 26.0604 249.087 27.1145 248.366 28.3774C246.965 30.5846 246.506 33.1142 246.028 35.5942C244.912 34.4286 242.563 34.7944 241.403 35.929C240.244 37.0636 239.946 38.6384 239.698 40.1202H274.493L273.99 39.401Z" fill="#EBEBEB"/>
<path d="M136.598 33.1824C136.136 31.9764 135.496 30.846 134.701 29.8282C133.804 28.7392 132.528 28.0303 131.13 27.8442C129.679 27.6954 128.073 28.365 127.602 29.543C127.398 26.8832 126.951 24.1614 125.395 21.855C124.627 20.6199 123.551 19.6054 122.274 18.9107C120.996 18.2159 119.56 17.8648 118.106 17.8917C116.651 17.9186 115.229 18.3225 113.978 19.064C112.727 19.8054 111.689 20.859 110.968 22.1216C109.566 24.3288 109.108 26.8646 108.63 29.3446C107.52 28.179 105.164 28.5448 104.005 29.6732C102.846 30.8016 102.548 32.3826 102.3 33.8706H137.101L136.598 33.1824Z" fill="#FAFAFA"/>
<path d="M216.225 119.04C215.764 117.834 215.124 116.703 214.328 115.686C213.431 114.597 212.155 113.888 210.757 113.702C209.312 113.553 207.706 114.216 207.235 115.394C207.024 112.741 206.584 110.019 205.028 107.713C204.26 106.476 203.184 105.46 201.906 104.765C200.628 104.069 199.19 103.717 197.735 103.744C196.28 103.771 194.857 104.175 193.605 104.918C192.353 105.66 191.316 106.715 190.594 107.979C189.199 110.186 188.734 112.722 188.263 115.202C187.147 114.037 184.797 114.402 183.638 115.531C182.478 116.659 182.181 118.24 181.933 119.728H216.727L216.225 119.04Z" fill="#FAFAFA"/>
<path d="M282.001 97.4392C281.223 95.4065 280.147 93.5009 278.808 91.7848C277.297 89.9522 275.148 88.7603 272.794 88.4492C270.357 88.195 267.648 89.3234 266.854 91.3074C266.507 86.831 265.763 82.243 263.134 78.3618C260.505 74.4806 255.614 71.424 250.368 71.6968C245.408 71.9572 241.186 75.0882 238.83 78.8082C236.474 82.5282 235.668 86.8 234.899 90.9726C233.039 89.0072 229.065 89.6272 227.106 91.5306C225.147 93.434 224.626 96.0938 224.235 98.5986H282.85L282.001 97.4392Z" fill="#F5F5F5"/>
<path d="M296.112 286.564C296.112 286.657 232.928 286.725 155.006 286.725C77.0846 286.725 13.888 286.657 13.888 286.564C13.888 286.471 77.0598 286.403 155.006 286.403C232.953 286.403 296.112 286.477 296.112 286.564Z" fill="#263238"/>
<path d="M134.782 279.781C135.471 280.812 136.006 281.937 136.369 283.123C136.835 284.273 137.134 285.484 137.256 286.719C137.163 286.719 136.753 285.138 136.065 283.228C135.377 281.319 134.695 279.825 134.782 279.781Z" fill="#263238"/>
<path d="M140.777 269.936C140.827 269.936 140.734 270.872 140.628 272.372C140.523 273.873 140.418 275.956 140.436 278.256C140.455 280.556 140.591 282.627 140.728 284.127C140.835 284.936 140.899 285.749 140.92 286.564C140.846 286.364 140.796 286.156 140.771 285.944C140.69 285.529 140.597 284.921 140.498 284.171C140.02 280.26 139.987 276.309 140.399 272.391C140.48 271.641 140.566 271.033 140.635 270.618C140.655 270.385 140.703 270.156 140.777 269.936Z" fill="#263238"/>
<path d="M149.011 276.979C148.846 277.463 148.639 277.932 148.391 278.38C147.994 279.236 147.467 280.426 146.965 281.771C146.463 283.117 146.091 284.357 145.836 285.268C145.727 285.767 145.577 286.256 145.39 286.731C145.398 286.217 145.473 285.707 145.613 285.212C146.155 282.797 147.018 280.466 148.18 278.281C148.4 277.813 148.679 277.375 149.011 276.979Z" fill="#263238"/>
<path d="M273.215 279.211C273.315 279.211 273.494 280.916 273.972 282.987C274.449 285.057 275.02 286.707 274.927 286.707C273.81 284.363 273.226 281.801 273.215 279.205V279.211Z" fill="#263238"/>
<path d="M278.454 273.829C278.387 274.456 278.277 275.077 278.126 275.689C277.909 276.811 277.642 278.374 277.506 280.116C277.369 281.858 277.283 283.439 277.276 284.586C277.306 285.206 277.294 285.828 277.239 286.446C277.112 285.834 277.047 285.211 277.047 284.586C276.989 283.084 277.035 281.58 277.183 280.085C277.328 278.587 277.579 277.102 277.934 275.64C278.042 275.019 278.217 274.412 278.454 273.829Z" fill="#263238"/>
<path d="M284.437 278.603C284.518 278.665 283.365 280.259 282.305 282.422C281.244 284.586 280.68 286.465 280.581 286.44C280.616 286.015 280.712 285.597 280.866 285.2C281.485 283.209 282.41 281.327 283.607 279.62C283.828 279.239 284.109 278.896 284.437 278.603Z" fill="#263238"/>
<path d="M22.3572 279.713C23.3056 280.63 24.0825 281.709 24.6512 282.9C25.3148 284.038 25.7724 285.285 26.0028 286.583C25.9098 286.583 25.3828 284.946 24.366 283.049C23.3492 281.151 22.2828 279.775 22.3572 279.713Z" fill="#263238"/>
<path d="M28.0302 274.865C28.2455 276.856 28.3552 278.857 28.3588 280.86C28.4631 282.859 28.4631 284.862 28.3588 286.862C28.1356 284.871 28.0238 282.869 28.024 280.866C27.9197 278.867 27.9217 276.864 28.0302 274.865Z" fill="#263238"/>
<path d="M215.531 163.711C213.485 160.146 208.711 158.819 204.724 159.836C200.737 160.853 197.284 163.624 194.947 166.985C193.446 169.117 190.421 174.797 188.089 178.188C180.966 188.561 178.442 192.746 169.409 193.545L193.031 201.233C200.793 195.703 212.685 183.253 215.593 174.183C216.69 170.754 217.322 166.83 215.531 163.711Z" fill="#7DBA90"/>
<g opacity="0.3">
<path d="M215.531 163.711C213.485 160.146 208.711 158.819 204.724 159.836C200.737 160.853 197.284 163.624 194.947 166.985C193.446 169.117 190.421 174.797 188.089 178.188C180.966 188.561 178.442 192.746 169.409 193.545L193.031 201.233C200.793 195.703 212.685 183.253 215.593 174.183C216.69 170.754 217.322 166.83 215.531 163.711Z" fill="black"/>
</g>
<path d="M201.438 286C200.818 286.105 184.338 286 184.338 286C184.338 286 183.793 276.08 193.595 275.323H207.427C207.427 275.323 199.262 269.427 203.087 262.514C206.913 255.601 243.604 268.677 243.604 268.677L236.852 286.037L201.438 286Z" fill="#7DBA90"/>
<path opacity="0.3" d="M201.438 286C200.818 286.105 184.338 286 184.338 286C184.338 286 183.793 276.08 193.595 275.323H207.427C207.427 275.323 199.262 269.427 203.087 262.514C206.913 255.601 243.604 268.677 243.604 268.677L236.852 286.037L201.438 286Z" fill="black"/>
<path d="M196.36 257.511C196.906 258.131 204.172 262.297 208.76 267.71C213.348 273.122 222.816 276.353 234.372 276.774C245.929 277.196 253.431 276.253 256.134 273.439C258.838 270.624 271.548 228.042 245.725 213.361C219.902 198.679 202.914 208.078 195.629 208.494C191.383 208.769 187.121 208.302 183.036 207.111L177.084 242.736L196.36 257.511Z" fill="#7DBA90"/>
<path d="M183.588 237.46C184.345 237.231 201.519 240.43 210.186 245.52C218.854 250.61 222.382 275.187 222.382 275.187C218.236 275.064 214.26 273.516 211.122 270.804C205.834 266.253 176.402 242.222 176.402 242.222L183.588 237.46Z" fill="#FFBF9D"/>
<path d="M174.679 196.075C184.722 194.11 194.335 190.373 203.069 185.039C206.968 182.652 210.695 179.949 214.793 177.915C218.891 175.882 223.473 174.524 228.024 175.082C232.574 175.64 237.007 178.399 238.669 182.664C240.045 186.205 239.351 190.309 237.528 193.638C235.705 196.968 232.847 199.621 229.828 201.922C223.33 206.882 217.88 207.446 209.808 208.655C201.736 209.864 191.041 211.606 184.022 207.415" fill="#7DBA90"/>
<path d="M174.679 196.075C184.722 194.11 194.335 190.373 203.069 185.039C206.968 182.652 210.695 179.949 214.793 177.915C218.891 175.882 223.473 174.524 228.024 175.082C232.574 175.64 237.007 178.399 238.669 182.664C240.045 186.205 239.351 190.309 237.528 193.638C235.705 196.968 232.847 199.621 229.828 201.922C223.33 206.882 213.739 208.649 205.611 209.362C196.311 210.168 184.177 207.44 184.022 207.44" fill="#7DBA90"/>
<path d="M184.022 207.433C184.022 207.433 184.146 207.433 184.388 207.489L185.442 207.681C186.372 207.849 187.748 208.091 189.522 208.357C191.295 208.624 193.471 208.915 196.013 209.132C198.886 209.403 201.775 209.459 204.656 209.3C208.143 209.056 211.61 208.581 215.035 207.88C218.968 207.115 222.775 205.802 226.343 203.98C228.245 202.938 230.027 201.691 231.657 200.26C233.395 198.824 234.945 197.174 236.27 195.35C237.643 193.46 238.581 191.29 239.016 188.995C239.229 187.827 239.281 186.636 239.171 185.454C239.042 184.26 238.715 183.095 238.204 182.007C237.115 179.864 235.395 178.107 233.275 176.973C231.234 175.834 228.952 175.196 226.616 175.113C224.363 175.049 222.113 175.352 219.957 176.012C217.884 176.639 215.878 177.47 213.968 178.492C210.248 180.47 206.925 182.832 203.707 184.791C200.722 186.629 197.629 188.285 194.444 189.751C189.832 191.872 185.042 193.582 180.129 194.86C178.386 195.3 177.029 195.604 176.092 195.784L175.038 195.988C174.803 196.032 174.679 196.044 174.679 196.044C174.679 196.044 174.797 196.007 175.032 195.957L176.08 195.722C177.004 195.517 178.362 195.195 180.091 194.736C184.985 193.415 189.755 191.677 194.351 189.54C197.52 188.061 200.596 186.392 203.565 184.543C206.77 182.559 210.062 180.203 213.832 178.213C215.756 177.177 217.779 176.336 219.871 175.702C222.059 175.035 224.341 174.725 226.629 174.784C229.017 174.855 231.355 175.493 233.449 176.644C235.628 177.808 237.394 179.616 238.508 181.821C239.043 182.937 239.38 184.137 239.506 185.368C239.622 186.582 239.57 187.807 239.351 189.007C238.903 191.344 237.946 193.554 236.549 195.48C235.204 197.322 233.634 198.989 231.874 200.44C230.225 201.871 228.424 203.119 226.505 204.16C222.91 205.996 219.073 207.316 215.109 208.078C211.666 208.805 208.178 209.3 204.668 209.56C201.773 209.702 198.872 209.629 195.988 209.343C193.446 209.107 191.27 208.797 189.497 208.512C185.957 207.905 184.022 207.433 184.022 207.433Z" fill="#263238"/>
<g opacity="0.3">
<path d="M230.64 184.679C221.222 181.412 211.525 186.149 204.253 190.21C196.639 194.457 194.519 196.472 187.544 201.556C197.774 203.738 205.077 203.875 215.202 201.246C219.083 200.235 222.927 198.859 226.232 196.577C229.536 194.296 232.593 192.095 232.977 188.096C233.12 186.527 230.64 184.679 230.64 184.679Z" fill="black"/>
</g>
<path d="M191.94 220.869C192.07 221.402 189.46 232.612 183.588 237.441C177.717 242.271 164.703 247.306 158.218 245.911C149.922 244.131 145.024 242.079 147.275 225.909C149.525 209.74 151.987 204.104 156.023 199.665C159.489 195.852 165.156 193.335 170.853 192.671C176.551 192.008 186.062 196.23 186.062 196.23L191.946 211.594L191.94 220.869Z" fill="#7DBA90"/>
<path d="M150.257 241.546C150.579 241.323 164.709 230.733 164.709 230.733C164.709 230.733 169.923 221.743 178.529 222.741C187.135 223.739 187.302 231.303 184.989 236.22C182.677 241.137 168.683 245.638 162.824 245.948C156.965 246.258 154.324 246.531 151.633 243.858C148.943 241.186 150.257 241.546 150.257 241.546Z" fill="#FFBF9D"/>
<path d="M149.24 241.93C149.752 240.864 150.565 239.972 151.579 239.364C152.593 238.756 153.763 238.458 154.944 238.508C154.944 238.508 156.333 244.708 153.927 244.59C151.522 244.472 149.24 241.93 149.24 241.93Z" fill="#263238"/>
<path d="M164.883 237.77C164.967 237.949 165.017 238.143 165.032 238.34C165.103 238.879 165.103 239.426 165.032 239.965C164.941 240.867 164.671 241.741 164.236 242.537C163.802 243.333 163.212 244.033 162.503 244.597C161.793 245.16 160.977 245.576 160.103 245.818C159.23 246.061 158.317 246.126 157.418 246.01C156.878 245.948 156.348 245.814 155.843 245.613C155.653 245.554 155.474 245.462 155.316 245.34C156.011 245.55 156.722 245.697 157.443 245.78C159.191 245.955 160.938 245.444 162.316 244.354C163.694 243.264 164.594 241.681 164.827 239.94C164.911 239.22 164.929 238.494 164.883 237.77Z" fill="#263238"/>
<path d="M173.724 233.015C173.755 233.095 170.581 234.193 166.644 235.464C162.707 236.735 159.495 237.689 159.47 237.603C159.445 237.516 162.607 236.425 166.544 235.123C170.481 233.821 173.699 232.928 173.724 233.015Z" fill="white"/>
<path d="M157.889 223.677C157.672 225.026 157.86 226.409 158.429 227.65C158.998 228.892 159.923 229.938 161.086 230.654C162.248 231.371 163.598 231.726 164.963 231.676C166.328 231.625 167.647 231.172 168.754 230.371C169.861 229.571 170.706 228.461 171.182 227.18C171.658 225.9 171.744 224.507 171.428 223.178C171.113 221.849 170.41 220.644 169.41 219.714C168.409 218.784 167.155 218.172 165.807 217.955C164.911 217.811 163.996 217.844 163.113 218.054C162.23 218.263 161.398 218.645 160.662 219.176C159.927 219.707 159.304 220.378 158.828 221.151C158.352 221.923 158.033 222.782 157.889 223.677Z" fill="white"/>
<path d="M169.142 229.846C169.364 228.454 169.135 227.027 168.488 225.774C167.841 224.52 166.811 223.507 165.548 222.88C164.285 222.254 162.854 222.047 161.465 222.291C160.076 222.535 158.802 223.216 157.827 224.235C157.719 225.586 158.01 226.938 158.665 228.123C159.321 229.309 160.311 230.275 161.512 230.901C162.713 231.528 164.072 231.786 165.419 231.645C166.766 231.504 168.041 230.969 169.086 230.107C169.105 230.02 169.13 229.933 169.142 229.846Z" fill="#263238"/>
<path d="M154.38 214.694C156.009 213.158 158.004 212.067 160.175 211.524C162.346 210.982 164.621 211.005 166.78 211.594" fill="#7DBA90"/>
<path d="M166.78 211.612C166.78 211.668 166.042 211.47 164.852 211.352C161.723 211.048 158.585 211.827 155.961 213.559C154.963 214.216 154.417 214.737 154.38 214.694C154.343 214.65 154.485 214.539 154.727 214.297C155.069 213.957 155.438 213.646 155.831 213.367C156.418 212.949 157.041 212.582 157.691 212.269C158.487 211.894 159.318 211.595 160.171 211.377C161.023 211.174 161.893 211.051 162.769 211.011C163.484 210.984 164.199 211.021 164.908 211.122C165.384 211.185 165.855 211.287 166.315 211.426C166.478 211.465 166.635 211.528 166.78 211.612Z" fill="#263238"/>
<path d="M169.365 239.01C168.02 239.28 166.656 239.446 165.286 239.506C163.925 239.674 162.552 239.732 161.181 239.68C162.527 239.41 163.89 239.244 165.261 239.184C166.623 239.019 167.995 238.961 169.365 239.01Z" fill="white"/>
<path d="M282.267 262.053C286.628 255.706 285.017 247.025 278.67 242.665C272.323 238.304 263.642 239.914 259.281 246.262C254.92 252.609 256.531 261.29 262.878 265.65C269.225 270.011 277.906 268.401 282.267 262.053Z" fill="#7DBA90"/>
<path d="M275.156 247.907C275.239 247.946 275.316 247.996 275.385 248.056C275.605 248.208 275.813 248.378 276.005 248.564C276.704 249.243 277.269 250.046 277.673 250.933C278.285 252.251 278.534 253.708 278.392 255.155C278.372 255.367 278.322 255.576 278.244 255.775C278.158 256.006 277.999 256.202 277.791 256.333C277.67 256.394 277.533 256.419 277.398 256.405C277.263 256.391 277.134 256.338 277.028 256.252C276.854 256.11 276.69 255.954 276.539 255.787L274.679 253.84L273.29 252.396L273.55 252.222C273.878 252.999 273.993 253.848 273.884 254.684C273.776 255.52 273.446 256.311 272.93 256.978L272.769 257.182L272.688 256.934C272.221 255.427 271.597 253.972 270.828 252.594C270.549 252.092 270.32 251.708 270.159 251.447C270.065 251.319 269.987 251.18 269.929 251.032C270.044 251.141 270.144 251.264 270.227 251.398C270.413 251.646 270.667 252.018 270.971 252.514C271.799 253.879 272.467 255.335 272.961 256.854L272.719 256.81C273.19 256.179 273.486 255.436 273.577 254.654C273.668 253.873 273.552 253.081 273.24 252.359L272.868 251.534L273.488 252.154L274.883 253.599L276.743 255.552C277.041 255.874 277.363 256.209 277.624 256.041C277.763 255.925 277.875 255.78 277.952 255.617C278.029 255.453 278.069 255.274 278.07 255.093C278.224 253.696 278.01 252.283 277.45 250.995C277.071 250.121 276.547 249.318 275.9 248.62C275.435 248.161 275.137 247.932 275.156 247.907Z" fill="#263238"/>
<path d="M220.621 224.384C220.911 224.356 221.203 224.344 221.495 224.347C222.294 224.317 223.089 224.232 223.876 224.093C224.124 224.049 224.384 223.994 224.657 223.932C224.922 223.894 225.172 223.782 225.376 223.609C225.465 223.515 225.52 223.392 225.53 223.263C225.54 223.133 225.505 223.004 225.432 222.896C225.279 222.619 225.067 222.378 224.812 222.189C223.684 221.24 222.33 220.599 220.881 220.329L220.925 220.013C221.427 220.044 221.954 220.063 222.493 220.069C223.979 220.092 225.464 220.013 226.939 219.833L226.87 220.106C225.217 218.951 223.297 218.239 221.29 218.035C219.809 217.887 218.928 218.035 218.928 217.98C219.13 217.919 219.338 217.884 219.548 217.874C220.134 217.824 220.723 217.824 221.309 217.874C223.37 218.018 225.354 218.712 227.056 219.883L227.385 220.112L226.988 220.162C225.5 220.352 224 220.437 222.499 220.416C221.96 220.416 221.421 220.416 220.918 220.36L220.956 220.038C222.46 220.327 223.861 221.01 225.017 222.016C225.291 222.235 225.519 222.507 225.686 222.816C225.772 222.98 225.813 223.164 225.804 223.349C225.785 223.531 225.704 223.702 225.575 223.832C225.33 224.034 225.033 224.162 224.719 224.204C224.44 224.26 224.173 224.31 223.925 224.347C223.126 224.47 222.317 224.524 221.507 224.508C221.208 224.502 220.91 224.46 220.621 224.384Z" fill="#263238"/>
<path d="M241.013 234.534C240.281 234.447 217.378 232.153 214.818 255.781C214.818 255.781 212.958 269.923 224.893 276.861H203.093C203.093 276.861 194.296 277.208 195.945 286.552C195.945 286.552 238.998 286.738 245.222 285.454C251.447 284.171 253.468 280.358 255.669 276.861C257.87 273.364 269.954 237.826 241.013 234.534Z" fill="#7DBA90"/>
<path d="M214.818 255.781C214.818 255.781 212.958 269.923 224.893 276.861H203.093C203.093 276.861 194.296 277.208 195.945 286.552C195.945 286.552 238.998 286.738 245.222 285.454C251.447 284.171 253.468 280.358 255.669 276.861C256.909 274.914 261.156 263.097 259.761 252.396" fill="#7DBA90"/>
<path d="M259.78 252.402C259.78 252.402 259.78 252.532 259.83 252.786C259.879 253.041 259.904 253.406 259.96 253.909C260.09 255.351 260.134 256.801 260.09 258.249C259.88 263.579 258.873 268.847 257.102 273.879C256.819 274.697 256.494 275.5 256.128 276.284C255.926 276.688 255.696 277.078 255.44 277.45L254.715 278.609C253.731 280.272 252.474 281.756 250.995 282.999C250.198 283.634 249.325 284.167 248.397 284.586C247.436 285.008 246.435 285.332 245.408 285.553C244.894 285.665 244.354 285.715 243.821 285.801C243.288 285.888 242.755 285.894 242.209 285.944C241.13 286.049 240.027 286.087 238.917 286.155C230.02 286.564 220.23 286.645 209.957 286.707H195.92H195.784V286.57C195.458 284.887 195.549 283.15 196.05 281.511C196.11 281.298 196.186 281.091 196.28 280.891L196.577 280.333L196.732 280.06L196.924 279.806L197.309 279.31C197.87 278.698 198.531 278.185 199.262 277.791C199.976 277.401 200.739 277.109 201.531 276.923C201.922 276.831 202.317 276.761 202.715 276.712C203.109 276.677 203.504 276.667 203.899 276.681H208.487H224.886L224.824 276.904C221.837 275.171 219.353 272.688 217.62 269.7C216.34 267.43 215.465 264.954 215.035 262.384C214.754 260.765 214.632 259.122 214.669 257.48C214.669 256.916 214.712 256.488 214.737 256.203C214.762 255.917 214.799 255.769 214.799 255.769C214.799 255.769 214.799 255.917 214.799 256.203C214.799 256.488 214.756 256.922 214.762 257.48C214.755 259.116 214.898 260.749 215.19 262.359C215.642 264.906 216.529 267.355 217.812 269.601C219.532 272.563 221.993 275.027 224.955 276.749L225.339 276.973H224.899H208.506H203.918C203.531 276.958 203.144 276.968 202.759 277.004C202.374 277.05 201.993 277.12 201.618 277.214C200.852 277.393 200.113 277.675 199.423 278.051C198.726 278.43 198.097 278.922 197.563 279.508L197.197 279.986L197.017 280.221L196.875 280.488L196.583 281.015C196.5 281.2 196.43 281.391 196.373 281.585C195.887 283.175 195.8 284.859 196.118 286.49L195.963 286.353H210C220.267 286.291 230.057 286.217 238.948 285.826C240.058 285.758 241.155 285.727 242.228 285.622C242.767 285.572 243.307 285.547 243.834 285.479C244.361 285.411 244.881 285.355 245.396 285.243C246.402 285.027 247.384 284.714 248.329 284.307C249.236 283.897 250.09 283.376 250.871 282.757C252.328 281.529 253.565 280.062 254.529 278.417C254.777 278.033 255.018 277.648 255.254 277.264C255.501 276.901 255.721 276.519 255.911 276.123C256.296 275.336 256.593 274.524 256.891 273.742C258.679 268.735 259.724 263.491 259.991 258.18C260.044 256.733 260.02 255.285 259.916 253.84C259.879 253.351 259.848 252.979 259.823 252.712C259.799 252.445 259.78 252.402 259.78 252.402Z" fill="#263238"/>
<path d="M204.891 279.353C204.891 279.415 204.197 279.353 203.112 279.521C201.696 279.737 200.36 280.316 199.236 281.203C198.111 282.09 197.235 283.254 196.695 284.58C196.267 285.591 196.174 286.279 196.118 286.266C196.088 286.107 196.088 285.943 196.118 285.783C196.189 285.343 196.303 284.911 196.459 284.493C196.968 283.102 197.852 281.878 199.014 280.959C200.184 280.046 201.582 279.471 203.056 279.298C203.497 279.253 203.942 279.253 204.383 279.298C204.554 279.287 204.726 279.306 204.891 279.353Z" fill="#263238"/>
<path d="M236.989 234.98C236.989 234.98 236.536 234.98 235.718 235.023C234.565 235.062 233.417 235.188 232.283 235.402C228.519 236.086 225.009 237.771 222.121 240.28C219.233 242.79 217.075 246.03 215.872 249.662C215.498 250.754 215.21 251.873 215.01 253.01C214.867 253.816 214.811 254.25 214.787 254.25C214.769 254.139 214.769 254.026 214.787 253.915C214.787 253.704 214.787 253.382 214.88 252.972C215.032 251.819 215.29 250.682 215.648 249.575C216.815 245.879 218.982 242.579 221.909 240.04C224.837 237.502 228.41 235.823 232.233 235.191C233.382 234.992 234.546 234.898 235.712 234.912C236.121 234.912 236.437 234.912 236.654 234.949C236.767 234.944 236.879 234.954 236.989 234.98Z" fill="#263238"/>
<g opacity="0.3">
<path d="M215.177 260.642C212.778 258.261 212.976 254.33 213.869 251.069C215.369 245.638 218.445 240.529 223.008 237.243C225.279 235.636 227.901 234.593 230.655 234.2C233.41 233.806 236.218 234.074 238.849 234.98C232.302 234.639 225.767 236.406 221.086 240.994C216.405 245.582 213.943 252.445 215.022 258.912" fill="black"/>
</g>
<path d="M160.896 257.238C164.454 257.238 167.338 254.354 167.338 250.796C167.338 247.238 164.454 244.354 160.896 244.354C157.338 244.354 154.454 247.238 154.454 250.796C154.454 254.354 157.338 257.238 160.896 257.238Z" fill="#6F4439"/>
<path d="M200.954 227.676C198.034 228.172 196.292 229.66 194.103 232.785C192.863 234.534 190.315 237.82 188.3 240.374C187.438 241.462 186.32 242.319 185.045 242.869C183.77 243.418 182.379 243.643 180.997 243.524C174.753 242.99 163.965 242.166 162.136 242.68C159.886 243.3 157.251 245.03 157.654 247.02C157.776 247.407 157.816 247.814 157.771 248.217C157.771 248.515 157.232 249.519 158.23 250.325C158.912 250.864 159.253 250.455 159.383 251.317C159.687 253.344 160.766 253.704 163.141 254.076C168.454 254.913 179.006 257.04 190.774 258.292C202.542 259.544 204.643 256.097 206.491 253.022C207.154 251.925 210.453 245.811 213.497 239.791C215.059 236.691 213.937 232.023 211.197 229.915C208.866 228.16 205.623 226.883 200.954 227.676Z" fill="#7DBA90"/>
<path d="M213.497 239.797C213.459 239.897 213.416 239.994 213.367 240.089L212.958 240.932C212.579 241.676 212.04 242.755 211.339 244.144C210.639 245.532 209.746 247.244 208.711 249.184L207.024 252.284C206.72 252.836 206.404 253.4 206.032 253.958C205.671 254.543 205.256 255.093 204.792 255.601C204.297 256.131 203.734 256.594 203.118 256.978C202.468 257.365 201.775 257.675 201.054 257.901C199.524 258.355 197.942 258.607 196.348 258.652C192.846 258.644 189.35 258.375 185.888 257.846C182.224 257.381 178.393 256.81 174.431 256.153L162.173 254.051C161.634 253.962 161.109 253.794 160.617 253.555C160.105 253.292 159.706 252.851 159.495 252.315C159.393 252.061 159.319 251.797 159.272 251.528C159.216 251.261 159.197 250.995 159.08 250.908C158.962 250.821 158.639 250.765 158.404 250.616C158.163 250.47 157.952 250.278 157.784 250.052C157.615 249.819 157.512 249.545 157.486 249.259C157.47 248.983 157.5 248.706 157.573 248.44L157.623 248.26C157.627 248.205 157.627 248.149 157.623 248.093C157.623 247.963 157.623 247.839 157.623 247.727C157.623 247.51 157.517 247.25 157.48 246.989C157.394 246.447 157.495 245.892 157.765 245.415C158.027 244.96 158.367 244.555 158.77 244.218C159.557 243.575 160.448 243.072 161.405 242.73C161.638 242.643 161.876 242.569 162.118 242.507C162.366 242.448 162.619 242.413 162.874 242.401C163.37 242.352 163.854 242.352 164.343 242.346C166.278 242.346 168.169 242.445 170.016 242.55C173.699 242.767 177.196 243.046 180.47 243.331C182.025 243.55 183.61 243.335 185.051 242.711C186.376 242.128 187.526 241.209 188.387 240.045C190.092 237.838 191.63 235.842 192.981 234.081C193.322 233.641 193.651 233.219 193.961 232.81C194.271 232.401 194.581 231.992 194.854 231.62C195.382 230.927 195.969 230.282 196.608 229.691C197.492 228.872 198.553 228.268 199.708 227.924C200.112 227.798 200.528 227.711 200.948 227.664C200.948 227.664 200.849 227.664 200.644 227.738C200.341 227.805 200.041 227.888 199.745 227.986C198.606 228.349 197.564 228.963 196.695 229.784C196.068 230.378 195.491 231.023 194.971 231.713C194.686 232.085 194.401 232.494 194.103 232.909L193.13 234.186L188.567 240.188C187.685 241.385 186.508 242.333 185.151 242.941C183.671 243.584 182.045 243.814 180.445 243.604C177.177 243.331 173.681 243.059 169.998 242.854C168.138 242.749 166.278 242.656 164.343 242.662C163.86 242.662 163.376 242.662 162.899 242.711C162.665 242.728 162.433 242.761 162.204 242.811C161.969 242.873 161.737 242.947 161.51 243.034C160.587 243.359 159.729 243.844 158.974 244.466C158.249 245.086 157.623 245.985 157.796 246.946C157.796 247.194 157.914 247.423 157.939 247.721C157.948 247.855 157.948 247.99 157.939 248.124C157.947 248.194 157.947 248.265 157.939 248.335L157.889 248.533C157.81 248.755 157.783 248.991 157.811 249.225C157.839 249.458 157.921 249.682 158.05 249.879C158.257 250.177 158.559 250.395 158.906 250.499C159.058 250.53 159.201 250.598 159.321 250.697C159.494 250.939 159.593 251.225 159.607 251.522C159.652 251.767 159.721 252.008 159.811 252.241C159.998 252.7 160.343 253.076 160.785 253.301C161.251 253.523 161.745 253.68 162.254 253.766L174.499 255.868C178.461 256.531 182.286 257.108 185.944 257.579C189.602 258.05 193.087 258.503 196.354 258.41C197.926 258.375 199.488 258.136 200.998 257.697C202.387 257.291 203.645 256.525 204.643 255.477C205.109 254.984 205.524 254.446 205.883 253.871C206.243 253.32 206.572 252.768 206.882 252.216L208.587 249.116L211.265 244.1L212.939 240.92L213.373 240.095L213.497 239.797Z" fill="#263238"/>
<path d="M164.852 248.899C163.822 248.925 162.795 249.035 161.783 249.228C161.08 249.364 160.421 249.668 159.861 250.114C159.452 250.474 159.34 250.815 159.29 250.796C159.241 250.778 159.29 250.399 159.7 249.953C160.25 249.417 160.947 249.057 161.702 248.918C162.728 248.609 163.822 248.603 164.852 248.899Z" fill="#263238"/>
<path d="M163.463 245.836C162.433 245.863 161.406 245.973 160.394 246.165C159.69 246.298 159.03 246.603 158.472 247.051C158.063 247.405 157.957 247.752 157.902 247.733C157.846 247.715 157.902 247.33 158.311 246.884C158.867 246.353 159.564 245.993 160.32 245.849C161.345 245.545 162.435 245.541 163.463 245.836Z" fill="#263238"/>
<path d="M44.485 245.303C40.4178 240.963 32.891 240.672 28.2782 244.435C23.6654 248.198 22.3696 255.328 25.0294 260.654C27.6892 265.98 33.883 269.192 39.8164 268.665C45.7498 268.138 51.15 264.114 53.692 258.745L44.485 245.303Z" fill="#AE7461"/>
<path d="M33.9822 258.081C33.8531 258.053 33.7321 257.996 33.6288 257.914C33.2366 257.642 32.9287 257.265 32.7402 256.827C32.5517 256.388 32.4901 255.906 32.5624 255.434C32.6266 255.064 32.7673 254.711 32.9755 254.398C33.1836 254.085 33.4547 253.819 33.7714 253.617L33.9202 253.871L31 255.638L30.2374 256.091C29.9847 256.292 29.6735 256.405 29.3508 256.413C29.2606 256.404 29.1733 256.376 29.0944 256.331C29.0155 256.286 28.9466 256.225 28.892 256.153C28.7937 256.026 28.722 255.881 28.6812 255.725C28.6226 255.45 28.5996 255.169 28.613 254.888C28.6451 253.942 28.9137 253.019 29.3942 252.204C29.7206 251.661 30.1404 251.18 30.6342 250.784C30.8136 250.622 31.0248 250.5 31.2542 250.424C30.5856 250.955 30.0203 251.605 29.5864 252.34C29.1548 253.13 28.9208 254.013 28.9044 254.913C28.8955 255.165 28.9184 255.417 28.9726 255.663C29.0408 255.899 29.1772 256.103 29.3756 256.116C29.6291 256.092 29.8703 255.995 30.07 255.837L30.8264 255.378L33.7714 253.63L33.9264 253.884C33.6398 254.06 33.3927 254.294 33.2007 254.57C33.0087 254.846 32.8758 255.16 32.8104 255.49C32.7093 256.015 32.788 256.558 33.0336 257.033C33.2705 257.447 33.5941 257.804 33.9822 258.081Z" fill="#263238"/>
<path d="M65.6208 256.928L70.091 272.037L71.176 286.142L116.045 286.533C116.045 286.533 117.335 285.498 117.019 281.443C116.579 275.863 97.6128 274.623 97.6128 274.623C101.159 267.443 102.223 259.29 100.638 251.441C100.166 249.058 99.3404 246.76 98.1894 244.621C88.6352 227.193 61.6094 236.561 65.4286 256.072C65.4906 256.339 65.5526 256.63 65.6208 256.928Z" fill="#6F4439"/>
<path d="M111.557 286.471C111.974 285.929 112.243 285.288 112.338 284.611C112.415 283.881 112.293 283.144 111.984 282.478C111.578 281.675 110.955 281 110.186 280.531C108.746 279.709 107.114 279.281 105.456 279.291C104.76 279.297 104.065 279.266 103.373 279.198C103.553 279.143 103.742 279.116 103.931 279.118C104.29 279.118 104.811 279.062 105.456 279.062C106.218 279.055 106.98 279.117 107.731 279.248C108.663 279.407 109.556 279.744 110.36 280.24C111.179 280.742 111.835 281.47 112.251 282.336C112.571 283.053 112.679 283.847 112.561 284.623C112.48 285.146 112.266 285.639 111.941 286.056C111.736 286.372 111.563 286.483 111.557 286.471Z" fill="#263238"/>
<path d="M121.607 223.535C119.468 219.021 104.737 200.967 104.024 197.879C103.311 194.792 106.876 173.408 98.797 171.033L81.22 185.523C81.22 185.523 82.646 207.378 90.4828 211.656C95.7525 214.631 100.759 218.049 105.45 221.873C105.45 221.873 109.492 232.562 115.667 232.798C121.842 233.033 123.746 228.048 121.607 223.535Z" fill="#6F4439"/>
<path d="M115.68 232.822C115.624 232.822 115.742 232.357 115.766 231.613C115.808 230.653 115.627 229.696 115.239 228.816C114.851 227.937 114.266 227.159 113.528 226.542C112.964 226.058 112.549 225.841 112.573 225.792C112.978 225.894 113.354 226.089 113.671 226.362C114.485 226.96 115.129 227.762 115.537 228.687C115.945 229.611 116.103 230.627 115.996 231.632C115.981 232.047 115.873 232.454 115.68 232.822Z" fill="#263238"/>
<path d="M120.162 230.64C120.088 230.263 120.056 229.878 120.069 229.493C120.039 228.584 119.861 227.685 119.542 226.833C119.205 225.995 118.627 225.277 117.881 224.769C117.298 224.39 116.858 224.316 116.87 224.26C117.27 224.239 117.665 224.348 117.998 224.57C118.843 225.052 119.499 225.806 119.858 226.709C120.197 227.595 120.353 228.54 120.317 229.487C120.331 229.877 120.279 230.267 120.162 230.64Z" fill="#263238"/>
<path d="M69.44 166.916C68.727 167.623 57.7964 205.635 53.5184 213.237C49.2404 220.838 39.0042 240.194 43.307 256.017C47.523 271.517 58.2738 274.307 69.44 275.02C80.6062 275.733 95.573 264.331 100.8 251.261C106.026 238.192 104.123 200.421 105.549 189.732C106.975 179.044 100.087 164.79 100.087 164.79L69.44 166.916Z" fill="#AE7461"/>
<mask id="mask0_3427_10749" style="mask-type:luminance" maskUnits="userSpaceOnUse" x="42" y="164" width="64" height="112">
<path d="M69.44 166.916C68.727 167.623 57.7964 205.635 53.5184 213.237C49.2404 220.838 38.5516 240.324 43.307 256.017C48.0624 271.709 58.28 274.294 69.44 275.007C80.6 275.72 95.573 264.318 100.8 251.249C106.026 238.179 104.123 200.409 105.549 189.72C106.975 179.031 100.087 164.777 100.087 164.777L69.44 166.916Z" fill="white"/>
</mask>
<g mask="url(#mask0_3427_10749)">
<path d="M69.0742 167.76C69.0742 167.76 69.75 171.027 86.8806 173.96C95.914 175.503 98.4312 191.704 100.57 196.67C102.709 201.636 105.735 201.754 105.735 201.754L112.555 182.243L104.408 169.657L69.0742 167.76Z" fill="#E0E0E0"/>
</g>
<g opacity="0.3">
<path d="M95.48 276.855C95.1374 275.98 94.5603 275.216 93.8122 274.648C92.4755 273.548 90.906 272.767 89.2227 272.364C87.5394 271.962 85.7865 271.947 84.0968 272.323C86.9612 267.363 89.8876 262.192 90.5448 256.488C90.9234 252.877 90.383 249.229 88.9738 245.883C87.5647 242.536 85.3325 239.601 82.4848 237.348C76.756 232.922 68.2248 231.347 61.4606 233.963L78.9508 277.661C83.222 278.678 87.5486 279.446 91.9088 279.961C92.9566 280.085 94.147 280.147 94.9344 279.453C95.2621 279.116 95.4874 278.693 95.584 278.233C95.6806 277.773 95.6445 277.295 95.48 276.855Z" fill="black"/>
</g>
<path d="M49.1226 256.928L52.9046 270.357L54.6778 286.142L99.5534 286.533C99.5534 286.533 100.837 285.498 100.521 281.443C100.08 275.863 81.1146 274.623 81.1146 274.623C81.1146 274.623 87.6618 261.795 86.5272 249.55C86.1674 246.778 85.1746 244.127 83.6256 241.8C78.368 234.304 67.456 232.023 59.6564 234.496C51.5964 237.051 46.7852 244.658 48.9304 256.035C48.98 256.339 49.0544 256.63 49.1226 256.928Z" fill="#AE7461"/>
<path d="M56.2154 236.22C56.2154 236.22 56.2526 236.177 56.3394 236.108L56.7238 235.811C57.2353 235.451 57.7791 235.14 58.3482 234.881C60.4782 233.959 62.7793 233.498 65.1 233.529C68.5183 233.457 71.9231 233.98 75.1626 235.073C77.0745 235.744 78.8601 236.731 80.445 237.993C82.1303 239.376 83.5253 241.078 84.5494 243.003C85.5543 244.929 86.2609 246.996 86.645 249.135C87.0104 251.121 87.1374 253.144 87.0232 255.161C86.7845 258.562 86.1115 261.919 85.0206 265.149C84.1216 267.914 83.235 270.109 82.6274 271.591L81.9082 273.315C81.8338 273.494 81.7656 273.643 81.716 273.761C81.6664 273.879 81.6416 273.91 81.6354 273.904C81.6487 273.851 81.6652 273.799 81.685 273.749L81.8524 273.29C82.0074 272.868 82.2306 272.285 82.5096 271.548C83.08 270.029 83.9356 267.828 84.7974 265.081C85.8538 261.868 86.5017 258.535 86.7256 255.161C86.8301 253.168 86.6969 251.17 86.3288 249.209C85.9505 247.105 85.2543 245.071 84.2642 243.176C83.2608 241.288 81.8957 239.615 80.2466 238.254C78.6785 237.002 76.9119 236.021 75.02 235.352C71.8276 234.26 68.4738 233.715 65.1 233.74C62.8132 233.697 60.5414 234.119 58.4226 234.98C57.6511 235.326 56.9123 235.741 56.2154 236.22Z" fill="#263238"/>
<path d="M74.5674 286.316C74.5674 286.316 78.1696 275.075 87.9346 275.423C97.6996 275.77 100.409 280.066 100.521 281.443C100.855 285.677 99.5534 286.533 99.5534 286.533L74.5674 286.316Z" fill="#E0E0E0"/>
<path d="M93.3906 286.564C93.341 286.533 93.8122 285.944 94.2462 284.865C94.4972 284.233 94.6154 283.555 94.5934 282.875C94.5727 282.052 94.2683 281.261 93.7316 280.637C93.1551 280.045 92.4217 279.63 91.6174 279.44C90.9517 279.282 90.2678 279.213 89.5838 279.236C88.9447 279.291 88.3032 279.314 87.6618 279.304C87.8251 279.24 87.996 279.199 88.1702 279.18C88.6339 279.099 89.1016 279.043 89.5714 279.012C90.279 278.955 90.9912 279.001 91.6856 279.149C92.5561 279.335 93.3508 279.778 93.9672 280.42C94.5568 281.098 94.8845 281.964 94.891 282.863C94.8996 283.582 94.7516 284.295 94.457 284.952C94.2683 285.393 94.0268 285.809 93.7378 286.192C93.5394 286.44 93.403 286.576 93.3906 286.564Z" fill="#263238"/>
<path d="M50.0402 258.069C50.0402 258.069 50.0898 258.156 50.1518 258.335C50.2138 258.515 50.313 258.807 50.4122 259.123C50.6354 259.805 50.933 260.803 51.2678 262.043C51.9498 264.523 52.7682 267.983 53.4192 271.851C54.0702 275.72 54.4298 279.26 54.5972 281.827C54.6778 283.111 54.7274 284.146 54.7398 284.865C54.7398 285.194 54.7398 285.485 54.7398 285.696C54.7558 285.79 54.7558 285.887 54.7398 285.981C54.7107 285.889 54.6941 285.793 54.6902 285.696C54.6902 285.473 54.653 285.2 54.622 284.871C54.56 284.103 54.4732 283.086 54.374 281.846C54.1508 279.291 53.754 275.764 53.134 271.926C52.514 268.088 51.708 264.604 51.088 262.117L50.2944 259.16L50.0898 258.36C50.0659 258.264 50.0493 258.167 50.0402 258.069Z" fill="#263238"/>
<path d="M66.2036 223.56C66.1014 223.419 66.0238 223.261 65.9742 223.095C65.8072 222.638 65.6948 222.164 65.6394 221.681C65.4331 219.978 65.8758 218.261 66.8794 216.87L67.0964 217.087C66.2535 217.75 65.3577 218.343 64.418 218.86C63.798 219.189 63.178 219.48 62.558 219.74C62.2294 219.895 61.8587 219.937 61.504 219.858C61.3173 219.795 61.159 219.668 61.0576 219.499C60.9752 219.341 60.9286 219.168 60.9212 218.99C60.963 218.068 61.2021 217.166 61.6225 216.345C62.0428 215.523 62.6346 214.802 63.3578 214.229C63.5603 214.05 63.7907 213.905 64.0398 213.801C63.268 214.409 62.609 215.147 62.093 215.983C61.5521 216.889 61.2513 217.917 61.2188 218.972C61.2086 219.102 61.2397 219.231 61.3076 219.343C61.3755 219.454 61.4768 219.541 61.597 219.592C61.8841 219.642 62.1799 219.599 62.4402 219.468C63.075 219.211 63.6959 218.921 64.3002 218.6C65.2348 218.095 66.1301 217.521 66.9786 216.882L67.8652 216.213L67.1956 217.093C66.2083 218.417 65.7346 220.053 65.8626 221.7C65.9224 222.328 66.0364 222.951 66.2036 223.56Z" fill="#263238"/>
<path d="M85.963 79.1058C89.683 77.3822 94.3578 79.1058 97.0114 82.2058C99.665 85.3058 100.862 89.5838 100.837 93.6944C100.837 96.3046 100.347 102.709 99.9316 106.795C98.6916 119.251 95.015 128.253 101.916 134.137L84.6362 128.681C81.5362 119.679 76.9544 96.6766 79.8436 87.5936C80.9286 84.1712 82.6956 80.6 85.963 79.1058Z" fill="#6F4439"/>
<path d="M90.3898 132.866C85.2507 124.012 81.726 114.315 79.98 104.228C79.205 99.7208 78.7896 95.139 77.624 90.7184C76.4584 86.2978 74.4496 81.9454 71.0396 78.895C67.6296 75.8446 62.6262 74.3132 58.3296 75.8756C54.7584 77.1714 52.1296 80.3954 50.8214 83.9356C49.5132 87.4758 49.3954 91.3756 49.6558 95.1886C50.22 103.354 55.18 111.743 60.0284 118.327C65.565 125.879 73.0794 134.025 73.1848 134.143" fill="#AE7461"/>
<g opacity="0.3">
<path d="M62.0372 82.1314C70.06 87.4138 72.1308 97.6314 73.2902 105.549C74.5302 113.863 74.214 116.665 74.4186 124.98C66.7492 118.439 62.3596 112.933 58.435 103.652C56.9222 100.093 55.7256 96.348 55.5272 92.4916C55.3288 88.6352 55.2234 84.9958 58.0506 82.3546C59.1666 81.313 62.0372 82.1314 62.0372 82.1314Z" fill="black"/>
</g>
<path d="M69.0742 167.76C69.0742 167.76 62.7502 155.36 64.976 145.037C67.2018 134.714 69.161 123.275 90.086 122.996C111.011 122.717 124.973 143.139 124.415 151.516C123.857 159.892 114.7 167.09 106.838 169.173C98.9768 171.256 69.0742 167.76 69.0742 167.76Z" fill="#E0E0E0"/>
<path d="M85.3616 165.54C90.9416 164.201 96.348 161.77 100.421 157.747C104.172 154.027 106.621 149.153 107.992 144.069C109.362 138.985 109.61 134.478 109.777 129.289C104.321 125.494 97.774 122.252 90.1294 122.351C68.9006 122.636 66.9166 134.242 64.6536 144.714C62.7316 153.58 66.7988 164.114 68.9316 167.481C74.5426 167.158 79.8994 166.842 85.3616 165.54Z" fill="#AE7461"/>
<path d="M124.428 150.387C124.533 150.307 121.086 148.93 118.067 151.733C118.067 151.733 121.284 157.988 123.151 156.296C125.017 154.603 124.428 150.387 124.428 150.387Z" fill="#7DBA90"/>
<path d="M110.013 157.313C110.446 157.933 110.938 158.51 111.482 159.036C112.819 160.292 114.59 160.981 116.424 160.957C118.258 160.934 120.011 160.201 121.315 158.912C121.843 158.367 122.32 157.776 122.741 157.145C122.692 157.348 122.608 157.541 122.493 157.716C122.214 158.21 121.872 158.666 121.477 159.073C120.826 159.76 120.043 160.309 119.177 160.689C118.31 161.068 117.376 161.269 116.429 161.282C115.483 161.294 114.544 161.116 113.668 160.759C112.792 160.402 111.996 159.873 111.327 159.204C110.917 158.811 110.563 158.365 110.273 157.877C110.155 157.705 110.067 157.514 110.013 157.313Z" fill="#263238"/>
<path d="M100.39 159.997C100.39 159.91 103.596 158.571 107.62 156.996C111.643 155.422 114.942 154.213 114.973 154.293C115.004 154.374 111.767 155.719 107.737 157.294C103.707 158.869 100.44 160.078 100.39 159.997Z" fill="white"/>
<path d="M102.917 154.549C106.886 154.182 109.805 150.667 109.438 146.698C109.07 142.729 105.555 139.81 101.586 140.177C97.6174 140.545 94.698 144.06 95.0655 148.029C95.4329 151.997 98.9481 154.917 102.917 154.549Z" fill="white"/>
<path d="M109.12 145.216L108.965 145.068C107.763 144.001 106.226 143.387 104.62 143.331C103.014 143.275 101.438 143.78 100.164 144.76C98.8902 145.74 97.9974 147.133 97.6393 148.699C97.2811 150.266 97.48 151.909 98.2018 153.345C99.4406 154.182 100.909 154.613 102.403 154.579C103.898 154.544 105.345 154.046 106.544 153.154C107.743 152.261 108.636 151.017 109.097 149.595C109.558 148.173 109.566 146.643 109.12 145.216Z" fill="#263238"/>
<path d="M92.3056 138.074C92.3736 137.902 92.4677 137.741 92.5846 137.597C92.867 137.181 93.1821 136.79 93.527 136.425C94.0342 135.873 94.5904 135.369 95.1886 134.918C95.9223 134.372 96.7071 133.899 97.5322 133.505C98.3647 133.118 99.2326 132.813 100.124 132.593C100.85 132.418 101.591 132.308 102.337 132.265C102.839 132.224 103.342 132.224 103.844 132.265C104.029 132.262 104.214 132.291 104.389 132.351C104.389 132.407 103.602 132.351 102.356 132.469C101.626 132.543 100.903 132.672 100.192 132.854C98.4559 133.312 96.8187 134.085 95.3622 135.135C94.7707 135.565 94.2131 136.04 93.6944 136.555C92.8078 137.466 92.38 138.105 92.3056 138.074Z" fill="#263238"/>
<path d="M108.723 161.448C109.803 160.508 110.954 159.652 112.164 158.887C113.313 158.03 114.526 157.261 115.791 156.587C114.711 157.527 113.561 158.383 112.35 159.148C111.201 160.005 109.988 160.774 108.723 161.448Z" fill="white"/>
<path d="M108.5 168.64C108.254 168.762 107.996 168.859 107.731 168.931C107.229 169.093 106.491 169.334 105.58 169.551C103.165 170.038 100.708 170.285 98.2452 170.289C95.3684 170.37 92.7644 170.351 90.8796 170.32C89.9372 170.32 89.1746 170.283 88.6538 170.264C88.3794 170.27 88.1051 170.247 87.8354 170.196C88.1051 170.146 88.3796 170.125 88.6538 170.134L90.8796 170.091C92.7396 170.06 95.3684 170.047 98.239 169.967C100.682 169.964 103.121 169.757 105.53 169.347C107.353 168.956 108.5 168.603 108.5 168.64Z" fill="#263238"/>
<path d="M58.435 80.4388C59.1342 80.5158 59.8213 80.6782 60.481 80.9224C62.2798 81.6015 63.912 82.6586 65.2674 84.0224C67.2586 86.0669 68.791 88.5124 69.7624 91.1958C70.9366 94.4608 71.8529 97.8129 72.5028 101.221C73.7879 107.384 74.5573 113.643 74.803 119.933C74.8898 122.351 74.8836 124.304 74.8588 125.655C74.8588 126.275 74.8216 126.821 74.8092 127.205C74.8093 127.386 74.7947 127.566 74.7658 127.745C74.7551 127.565 74.7551 127.385 74.7658 127.205C74.7658 126.821 74.7658 126.306 74.7658 125.649C74.7658 124.304 74.7224 122.351 74.6046 119.945C74.2928 113.672 73.4947 107.433 72.2176 101.283C71.5687 97.8933 70.6672 94.5566 69.5206 91.3012C68.5567 88.6496 67.0512 86.2277 65.1 84.1898C63.7749 82.8296 62.1835 81.7574 60.4252 81.0402C59.9456 80.8676 59.4572 80.7206 58.962 80.6C58.7825 80.5598 58.6063 80.5059 58.435 80.4388Z" fill="#263238"/>
<g opacity="0.3">
<path d="M100.868 233.628C99.2715 229.001 96.7389 224.753 93.4278 221.148C87.8168 215.041 80.0668 210.862 75.7578 203.788L68.82 195.164C68.2372 198.648 67.9272 202.225 68.5348 205.704C69.1424 209.182 70.742 212.579 73.4948 214.824C76.5948 217.372 80.7798 218.234 83.917 220.708C86.7876 222.977 88.4988 226.362 90.5324 229.388C92.566 232.413 95.3374 235.377 98.9582 235.904C99.7084 236.015 100.626 235.904 100.986 235.284C101.082 235.015 101.121 234.729 101.101 234.444C101.081 234.159 101.001 233.881 100.868 233.628Z" fill="black"/>
</g>
<path d="M108.395 227.019C106.256 222.506 91.5244 204.451 90.8114 201.364C90.0984 198.276 93.6634 176.892 85.5848 174.518L68.0078 189.007C68.0078 189.007 69.44 210.862 77.2706 215.14C82.5403 218.115 87.5472 221.534 92.2374 225.358C92.2374 225.358 96.2736 236.046 102.455 236.282C108.636 236.518 110.534 231.533 108.395 227.019Z" fill="#AE7461"/>
<path d="M85.56 174.518L85.8948 174.623L86.304 174.778L86.8248 175.069C87.2868 175.379 87.7041 175.75 88.0648 176.173C88.55 176.769 88.9525 177.428 89.2614 178.132C90.0728 180.072 90.5769 182.126 90.7556 184.221C91.0287 186.979 91.1178 189.752 91.0222 192.522C90.9912 194.066 90.9168 195.678 90.8486 197.352C90.8176 198.189 90.7866 199.045 90.7866 199.913C90.7789 200.346 90.8058 200.78 90.8672 201.209C90.9692 201.632 91.1343 202.037 91.357 202.411C92.2926 204.023 93.3129 205.583 94.4136 207.086C95.5234 208.661 96.6952 210.261 97.898 211.897C100.31 215.171 102.858 218.581 105.45 222.196C106.07 223.101 106.721 224.025 107.31 224.973C107.62 225.444 107.93 225.934 108.196 226.43C108.47 226.941 108.7 227.474 108.884 228.024C109.276 229.137 109.401 230.326 109.25 231.496C109.097 232.697 108.56 233.817 107.719 234.689C107.019 235.355 106.168 235.842 105.239 236.108L104.551 236.288C104.321 236.325 104.086 236.35 103.85 236.381C103.385 236.436 102.917 236.457 102.449 236.443C100.587 236.302 98.8411 235.481 97.5446 234.137C96.2745 232.9 95.1757 231.499 94.2772 229.97C93.3966 228.514 92.6377 226.988 92.008 225.407L92.0514 225.475C87.2103 221.526 82.0391 218 76.5948 214.935C75.4563 214.135 74.4924 213.112 73.7614 211.928C73.063 210.846 72.4633 209.702 71.9696 208.512C71.102 206.405 70.4013 204.232 69.874 202.015C69.122 198.874 68.567 195.689 68.2124 192.479C68.0822 191.363 68.0078 190.495 67.9644 189.912C67.9644 189.627 67.9334 189.41 67.921 189.249C67.9127 189.173 67.9127 189.096 67.921 189.019C67.921 189.019 67.921 189.094 67.921 189.243C67.921 189.391 67.9644 189.621 67.9892 189.906C68.0512 190.489 68.1442 191.351 68.2868 192.467C68.6842 195.664 69.268 198.836 70.0352 201.965C70.5723 204.169 71.2812 206.327 72.1556 208.419C72.6474 209.595 73.2451 210.724 73.9412 211.792C74.6591 212.944 75.6017 213.939 76.7126 214.718C82.176 217.774 87.3624 221.301 92.2126 225.258V225.296C92.84 226.856 93.5926 228.364 94.4632 229.803C95.348 231.307 96.4302 232.685 97.681 233.901C98.924 235.189 100.596 235.977 102.381 236.115C102.832 236.127 103.283 236.108 103.732 236.059C103.962 236.028 104.185 236.003 104.408 235.966L105.065 235.792C105.938 235.539 106.738 235.08 107.396 234.453C108.189 233.632 108.696 232.578 108.841 231.446C108.979 230.324 108.858 229.185 108.488 228.117C108.31 227.586 108.088 227.072 107.824 226.579C107.545 226.089 107.254 225.612 106.95 225.141C106.33 224.198 105.71 223.281 105.09 222.375C102.536 218.761 99.9688 215.351 97.5632 212.065C96.3604 210.428 95.1886 208.822 94.0788 207.247C92.9778 205.729 91.9575 204.155 91.0222 202.529C90.7865 202.132 90.613 201.702 90.5076 201.252C90.4473 200.808 90.4204 200.361 90.427 199.913C90.427 199.032 90.4642 198.177 90.5014 197.34C90.5758 195.66 90.6564 194.048 90.6936 192.516C90.804 189.753 90.7315 186.986 90.4766 184.233C90.3111 182.153 89.8303 180.111 89.0506 178.176C88.7499 177.479 88.3601 176.825 87.8912 176.229C87.5313 175.803 87.114 175.43 86.6512 175.119L86.1366 174.815L85.7398 174.648L85.56 174.518Z" fill="#263238"/>
<path d="M103.273 236.307C103.224 236.307 103.342 235.842 103.366 235.098C103.398 234.138 103.218 233.184 102.839 232.302C102.445 231.425 101.861 230.648 101.128 230.026C100.564 229.543 100.149 229.326 100.173 229.276C100.577 229.381 100.953 229.576 101.271 229.846C102.083 230.447 102.724 231.249 103.132 232.173C103.539 233.097 103.699 234.112 103.596 235.116C103.584 235.533 103.474 235.941 103.273 236.307Z" fill="#263238"/>
<path d="M107.756 234.106C107.686 233.728 107.657 233.343 107.669 232.959C107.637 232.049 107.457 231.151 107.136 230.299C106.803 229.459 106.224 228.739 105.474 228.234C104.898 227.856 104.451 227.782 104.464 227.726C104.863 227.705 105.259 227.814 105.592 228.036C106.437 228.518 107.092 229.272 107.452 230.175C107.795 231.06 107.953 232.005 107.917 232.953C107.932 233.344 107.877 233.734 107.756 234.106Z" fill="#263238"/>
<path d="M52.9046 270.357C52.7921 270.321 52.6855 270.269 52.5884 270.202C52.39 270.084 52.0862 269.942 51.7266 269.694C50.6885 269.024 49.7387 268.226 48.8994 267.319C47.6718 265.96 46.6427 264.434 45.8428 262.787C45.3778 261.869 44.9438 260.877 44.516 259.842C44.0552 258.78 43.6597 257.691 43.3318 256.581C42.7562 254.418 42.4072 252.201 42.2902 249.965C42.1713 248.145 42.1713 246.318 42.2902 244.497C42.3657 243.272 42.5294 242.053 42.78 240.851C42.8487 240.522 42.9356 240.197 43.0404 239.878C43.0677 239.766 43.1094 239.657 43.1644 239.556C43.2016 239.556 43.0466 240.021 42.904 240.876C42.7016 242.08 42.5712 243.296 42.5134 244.516C42.4279 246.326 42.4486 248.139 42.5754 249.947C42.7051 252.159 43.0582 254.353 43.6294 256.494C43.9561 257.592 44.3453 258.671 44.795 259.724C45.2166 260.753 45.6444 261.739 46.0908 262.657C46.872 264.287 47.8688 265.805 49.0544 267.17C49.872 268.077 50.7892 268.888 51.7886 269.588C52.5078 270.084 52.917 270.32 52.9046 270.357Z" fill="#263238"/>
</svg>
