<svg width="300" height="300" viewBox="0 0 300 300" fill="none" xmlns="http://www.w3.org/2000/svg">
<path d="M89.658 90.996C89.2277 90.3217 88.5988 89.7976 87.858 89.496C87.1561 89.1689 86.3697 89.0682 85.608 89.208C85.2135 89.3017 84.8416 89.4731 84.514 89.7121C84.1864 89.9511 83.9097 90.2529 83.7 90.6C83.4478 91.0184 83.3015 91.4922 83.274 91.98C82.9162 91.7241 82.5066 91.55 82.074 91.47C81.6702 91.3999 81.2563 91.4121 80.8573 91.5059C80.4583 91.5997 80.0823 91.7732 79.752 92.016C79.1436 92.4975 78.6992 93.1557 78.48 93.9C78.2315 94.6501 78.2189 95.4585 78.444 96.216C78.7505 97.1792 79.3557 98.0199 80.172 98.616C81.0677 99.1826 82.0862 99.5262 83.142 99.618C84.876 99.822 87.132 100.038 87.132 100.038C87.132 100.038 88.134 98.238 89.124 96.78C89.7511 95.9245 90.1627 94.9304 90.324 93.882C90.4186 92.8734 90.185 91.8612 89.658 90.996Z" fill="#E0E0E0"/>
<path d="M217.326 137.796C217.177 137.019 216.791 136.306 216.222 135.756C215.689 135.193 214.992 134.811 214.23 134.664C213.581 134.558 212.916 134.668 212.336 134.977C211.756 135.286 211.294 135.777 211.02 136.374C210.78 136.004 210.46 135.692 210.084 135.462C209.735 135.248 209.345 135.108 208.94 135.05C208.534 134.992 208.121 135.018 207.726 135.126C206.983 135.347 206.328 135.796 205.854 136.41C205.348 137.019 205.042 137.769 204.978 138.558C204.909 139.564 205.166 140.565 205.71 141.414C206.339 142.268 207.161 142.961 208.11 143.436C209.646 144.258 211.674 145.278 211.674 145.278C211.674 145.278 213.27 143.952 214.716 142.974C215.612 142.405 216.359 141.629 216.894 140.712C217.347 139.811 217.498 138.789 217.326 137.796Z" fill="#E0E0E0"/>
<path d="M164.478 50.622C164.486 49.6045 164.184 48.6086 163.614 47.766C163.087 46.9287 162.313 46.2748 161.4 45.894C160.61 45.5927 159.743 45.5599 158.933 45.8007C158.123 46.0414 157.415 46.5423 156.918 47.226C156.709 46.6975 156.385 46.222 155.97 45.834C155.583 45.4776 155.128 45.2031 154.632 45.0268C154.136 44.8505 153.609 44.7761 153.084 44.808C152.092 44.8998 151.154 45.3006 150.402 45.954C149.61 46.5913 149.032 47.4561 148.746 48.432C148.405 49.6826 148.474 51.0097 148.944 52.218C149.516 53.4536 150.373 54.5354 151.446 55.374C153.18 56.802 155.466 58.608 155.466 58.608C155.466 58.608 157.818 57.342 159.894 56.478C161.163 55.9863 162.297 55.1984 163.2 54.18C163.998 53.1627 164.447 51.9147 164.478 50.622Z" fill="#E0E0E0"/>
<path d="M250.446 94.956C250.348 92.8031 249.592 90.7321 248.28 89.022C247.057 87.3018 245.326 86.0073 243.33 85.32C242.265 84.9888 241.143 84.877 240.034 84.9915C238.924 85.1059 237.849 85.4443 236.874 85.986C235.71 86.6356 234.723 87.5606 234 88.68C233.278 87.1092 232.075 85.8089 230.565 84.9675C229.054 84.1261 227.316 83.7873 225.6 84C223.512 84.3141 221.575 85.2752 220.062 86.748C218.461 88.1877 217.342 90.0858 216.858 92.184C216.278 94.88 216.583 97.6913 217.728 100.2C218.958 102.744 221.13 104.91 223.404 106.584C227.238 109.398 232.302 112.944 232.302 112.944C232.302 112.944 237.102 109.98 241.404 107.91C243.948 106.674 246.474 104.91 248.142 102.66C249.718 100.406 250.526 97.7048 250.446 94.956Z" fill="#F5F5F5"/>
<path d="M76.386 39.12C75.4379 37.1869 73.9196 35.5911 72.036 34.548C70.2339 33.4579 68.136 32.9586 66.036 33.12C64.2498 33.2986 62.5725 34.0616 61.2641 35.2907C59.9558 36.5199 59.0897 38.1464 58.8 39.918C57.5108 38.7722 55.8907 38.0658 54.1738 37.9008C52.4569 37.7358 50.7319 38.1207 49.248 39C47.4574 40.1169 46.0636 41.7689 45.264 43.722C44.3689 45.6831 44.0987 47.8721 44.49 49.992C45.0316 52.6834 46.4267 55.1284 48.468 56.964C50.61 58.812 53.46 59.928 56.22 60.564C60.858 61.614 66.912 62.856 66.912 62.856C66.912 62.856 70.152 58.2 73.254 54.6C75.096 52.452 76.716 49.86 77.34 47.1C77.888 44.4066 77.5535 41.6083 76.386 39.12Z" fill="#F5F5F5"/>
<path d="M206.04 28.332C205.887 26.388 205.139 24.5382 203.898 23.034C202.744 21.5117 201.14 20.3908 199.314 19.83C197.753 19.3897 196.091 19.4762 194.584 20.076C193.078 20.6758 191.811 21.7555 190.98 23.148C190.489 22.1729 189.788 21.3185 188.928 20.646C188.125 20.0348 187.207 19.5917 186.228 19.3433C185.25 19.0948 184.232 19.0461 183.234 19.2C181.355 19.5473 179.632 20.4747 178.308 21.852C176.902 23.2039 175.945 24.9548 175.566 26.868C175.125 29.3159 175.485 31.8407 176.592 34.068C177.894 36.3368 179.721 38.2605 181.92 39.678C185.472 42.078 190.158 45.168 190.158 45.168C190.158 45.168 194.436 42.342 198.246 40.368C200.592 39.2145 202.628 37.5174 204.186 35.418C205.552 33.3179 206.203 30.8322 206.04 28.332Z" fill="#F5F5F5"/>
<path d="M62.046 158.436C61.9733 157.527 61.6236 156.662 61.044 155.958C60.5041 155.247 59.7551 154.722 58.902 154.458C58.1746 154.252 57.3994 154.291 56.6965 154.57C55.9937 154.848 55.4023 155.351 55.014 156C54.6866 155.35 54.162 154.821 53.5153 154.488C52.8685 154.155 52.133 154.035 51.414 154.146C50.5266 154.307 49.7135 154.746 49.092 155.4C48.436 156.03 47.9899 156.847 47.814 157.74C47.6087 158.882 47.777 160.061 48.294 161.1C48.9005 162.16 49.7523 163.059 50.778 163.722C52.44 164.856 54.63 166.284 54.63 166.284C54.63 166.284 56.622 164.964 58.404 164.028C59.5001 163.489 60.4524 162.697 61.182 161.718C61.8117 160.744 62.1144 159.594 62.046 158.436Z" fill="#F5F5F5"/>
<path d="M123.786 26.166C123.821 25.0859 123.521 24.0215 122.928 23.118C122.385 22.2123 121.57 21.5007 120.6 21.084C120.08 20.8786 119.524 20.7807 118.965 20.7962C118.406 20.8116 117.856 20.9402 117.348 21.174C116.738 21.4528 116.207 21.8772 115.8 22.41C115.589 21.8438 115.255 21.3315 114.822 20.91C114.417 20.5237 113.939 20.2231 113.415 20.0262C112.891 19.8293 112.333 19.7401 111.774 19.764C110.72 19.8451 109.718 20.2519 108.906 20.928C108.054 21.5891 107.426 22.496 107.106 23.526C106.717 24.8453 106.763 26.255 107.238 27.546C107.818 28.8724 108.709 30.0394 109.836 30.948C111.636 32.502 114.036 34.464 114.036 34.464C114.036 34.464 116.562 33.162 118.776 32.292C120.139 31.7887 121.361 30.9657 122.34 29.892C123.207 28.8361 123.714 27.5305 123.786 26.166Z" fill="#F5F5F5"/>
<path d="M50.85 108.942C50.9058 107.173 50.4156 105.43 49.446 103.95C48.5465 102.461 47.2008 101.294 45.6 100.614C44.2412 100.074 42.7428 99.9938 41.3341 100.386C39.9255 100.778 38.6841 101.621 37.8 102.786C37.3016 101.457 36.3936 100.321 35.2071 99.5427C34.0207 98.764 32.6174 98.3827 31.2 98.454C29.4716 98.5846 27.827 99.2516 26.496 100.362C25.098 101.444 24.0656 102.929 23.538 104.616C22.9001 106.782 22.9758 109.096 23.754 111.216C24.7077 113.388 26.1662 115.301 28.008 116.796C31.008 119.34 34.902 122.556 34.902 122.556C34.902 122.556 39.036 120.426 42.666 118.992C44.8963 118.184 46.9003 116.853 48.51 115.11C49.935 113.36 50.7559 111.197 50.85 108.942Z" fill="#F5F5F5"/>
<path d="M275.466 128.4C275.5 127.274 275.188 126.164 274.572 125.22C273.999 124.277 273.148 123.535 272.136 123.096C271.268 122.744 270.307 122.689 269.404 122.94C268.501 123.191 267.707 123.733 267.144 124.482C266.829 123.634 266.252 122.91 265.497 122.413C264.741 121.917 263.847 121.674 262.944 121.722C261.843 121.796 260.793 122.216 259.944 122.922C259.053 123.612 258.396 124.559 258.06 125.634C257.65 127.012 257.699 128.486 258.198 129.834C258.803 131.217 259.731 132.435 260.904 133.386C262.794 135.006 265.296 137.052 265.296 137.052C265.296 137.052 267.924 135.696 270.24 134.784C271.659 134.267 272.934 133.419 273.96 132.312C274.87 131.204 275.399 129.832 275.466 128.4Z" fill="#F5F5F5"/>
<path d="M235.584 53.79C235.616 52.8012 235.341 51.8268 234.798 51C234.302 50.1742 233.559 49.5255 232.674 49.146C231.917 48.8392 231.08 48.7905 230.293 49.0074C229.505 49.2243 228.811 49.6948 228.318 50.346C228.115 49.8373 227.802 49.3802 227.4 49.008C227.032 48.656 226.597 48.3821 226.121 48.2027C225.644 48.0232 225.137 47.9421 224.628 47.964C223.666 48.0339 222.751 48.4056 222.012 49.026C221.235 49.6272 220.661 50.4523 220.368 51.39C220.011 52.5908 220.053 53.8752 220.488 55.05C221.019 56.257 221.829 57.3203 222.852 58.152C224.502 59.562 226.686 61.356 226.686 61.356C226.686 61.356 228.978 60.156 231 59.376C232.239 58.9255 233.352 58.1848 234.246 57.216C235.049 56.248 235.519 55.0463 235.584 53.79Z" fill="#F5F5F5"/>
<path d="M52.284 252.282C58.884 261.282 70.686 269.304 81.084 273.342C91.482 277.38 99.342 279.342 110.268 281.664C132.048 286.314 160.344 284.832 184.176 280.914C208.008 276.996 232.14 269.514 248.202 251.514L52.284 252.282Z" fill="#EBEBEB"/>
<path d="M227.808 252.828L227.49 253.098C227.262 253.272 226.944 253.53 226.53 253.86C225.696 254.532 224.424 255.474 222.75 256.638C221.076 257.802 218.964 259.146 216.432 260.568C213.566 262.167 210.618 263.615 207.6 264.906C199.715 268.228 191.478 270.643 183.048 272.106C173.55 273.84 162.93 274.62 151.8 274.692C140.67 274.764 130.044 274.398 120.462 273.162C115.925 272.586 111.429 271.731 106.998 270.6C103.14 269.613 99.3576 268.348 95.682 266.814C90.3431 264.617 85.3225 261.716 80.754 258.186C79.152 256.92 77.964 255.864 77.19 255.126L76.308 254.28C76.11 254.088 76.02 253.98 76.02 253.98L76.332 254.256L77.232 255.078C78.024 255.804 79.218 256.842 80.832 258.078C85.4177 261.56 90.4406 264.424 95.772 266.598C99.4429 268.115 103.219 269.364 107.07 270.336C111.492 271.446 115.979 272.284 120.504 272.844C130.062 274.044 140.676 274.368 151.8 274.35C162.924 274.332 173.514 273.51 183 271.794C191.415 270.348 199.641 267.959 207.522 264.672C210.535 263.401 213.481 261.975 216.348 260.4C218.88 258.99 220.986 257.658 222.678 256.524C224.37 255.39 225.648 254.448 226.494 253.788L227.466 253.05C227.688 252.906 227.808 252.828 227.808 252.828Z" fill="white"/>
<path d="M189.858 251.4C189.858 251.4 189.81 251.448 189.696 251.532L189.21 251.886C188.784 252.198 188.13 252.63 187.272 253.164C184.832 254.641 182.259 255.884 179.586 256.878C175.619 258.347 171.511 259.404 167.328 260.034C162.208 260.8 157.037 261.177 151.86 261.162C146.688 261.231 141.516 261.011 136.368 260.502C132.154 260.081 128.006 259.154 124.014 257.742C121.323 256.776 118.765 255.473 116.4 253.866C115.572 253.266 114.96 252.792 114.552 252.45L114.102 252.048L113.952 251.91C114.012 251.941 114.069 251.98 114.12 252.024L114.594 252.402C115.008 252.732 115.632 253.194 116.466 253.764C118.842 255.319 121.396 256.582 124.074 257.526C128.059 258.898 132.191 259.796 136.386 260.202C141.525 260.693 146.686 260.906 151.848 260.838C157.008 260.853 162.162 260.486 167.268 259.74C171.437 259.126 175.534 258.092 179.496 256.656C182.166 255.692 184.742 254.487 187.194 253.056C188.058 252.546 188.724 252.132 189.162 251.856L189.666 251.526L189.858 251.4Z" fill="white"/>
<path d="M278.874 251.808C278.874 251.892 220.674 251.964 148.944 251.964C77.214 251.964 19.002 251.892 19.002 251.808C19.002 251.724 77.166 251.652 148.944 251.652C220.722 251.652 278.874 251.718 278.874 251.808Z" fill="#263238"/>
<path d="M291.762 198.072C291.015 198.148 290.297 198.399 289.664 198.803C289.032 199.207 288.503 199.754 288.12 200.4C292.152 194.118 293.178 185.616 290.802 178.278C290.334 176.856 289.638 175.344 288.354 174.786C287.921 174.629 287.447 174.618 287.007 174.756C286.567 174.894 286.185 175.172 285.918 175.548C286.26 173.404 286.272 171.221 285.954 169.074C285.81 168.114 285.546 167.076 284.82 166.506C283.818 165.714 282.336 166.236 281.568 167.268C280.8 168.3 280.554 169.668 280.368 171C276.39 160.8 267.168 153.252 257.178 151.968C255.192 151.71 252.978 151.746 251.46 153.108C249.942 154.47 249.63 157.566 251.37 158.688C249.486 157.998 247.512 157.368 245.556 157.626C243.6 157.884 241.656 159.258 241.212 161.358C240.612 164.082 242.688 166.668 244.812 168.27C247.71 170.442 251.022 171.828 254.1 173.67C257.178 175.512 260.142 178.002 261.57 181.512C263.37 185.988 262.32 191.232 260.298 195.522C256.524 203.544 249.432 209.556 241.374 211.554L247.938 226.056C256.242 231.72 278.73 227.106 285.27 219.378C286.302 218.178 287.262 216.648 287.16 214.968C287.058 213.288 285.36 211.68 284.004 212.418C288.474 209.4 293.706 200.13 291.762 198.072Z" fill="#A5A7A1"/>
<g opacity="0.6">
<path d="M241.2 161.34C240.6 164.064 242.676 166.65 244.8 168.252C247.698 170.424 251.01 171.81 254.088 173.652C255.386 174.423 256.611 175.31 257.748 176.304C259.002 175.206 259.476 173.148 259.176 171.342C258.834 169.266 257.706 167.448 256.608 165.702C258.032 167.523 259.809 169.038 261.834 170.154C262.572 170.556 263.424 170.904 264.192 170.598C265.434 170.094 265.632 168.198 265.14 166.818C264.648 165.438 263.7 164.292 263.34 162.882C264.405 163.964 265.617 164.891 266.94 165.636C267.58 165.996 268.293 166.209 269.025 166.259C269.758 166.309 270.493 166.195 271.176 165.924C272.712 165.21 273.678 163.434 273.87 161.61C273.897 161.339 273.909 161.066 273.906 160.794C269.358 155.994 263.424 152.742 257.19 151.944C255.204 151.686 252.99 151.722 251.472 153.084C249.954 154.446 249.642 157.542 251.382 158.664C249.498 157.974 247.524 157.344 245.568 157.602C243.612 157.86 241.626 159.24 241.2 161.34Z" fill="white"/>
</g>
<path d="M238.8 191.454L221.016 181.854C221.016 181.854 210.162 175.74 204.69 170.424C194.976 160.986 192.69 152.79 192.69 152.79L140.25 176.862L129.6 180.24C130.932 185.814 131.13 196.356 134.706 207.138C135.696 210.138 138.618 212.898 138.75 211.896C138.852 211.062 138.75 212.448 138.75 212.448C140.604 217.344 142.746 223.698 149.1 228.12C153.858 235.32 164.028 239.436 168.186 241.812C174.336 245.322 197.676 252.21 197.676 252.21L215.826 253.596L261.318 217.494C261.318 217.494 258.6 201.726 238.8 191.454Z" fill="#A5A7A1"/>
<path d="M177.102 231.084C180.21 233.808 181.404 238.11 181.83 242.214C182.256 246.318 182.064 250.518 183.096 254.514C181.05 253.914 178.782 255.558 178.332 257.646C177.882 259.734 178.974 261.936 180.66 263.244C182.416 264.486 184.509 265.164 186.66 265.188C190.26 265.386 194.142 264.384 196.614 261.726C198.882 259.29 199.674 255.876 200.574 252.666C202.11 247.17 204.174 241.83 205.758 236.346C207.342 230.862 208.404 225.126 207.852 219.444L209.4 219.984C211.314 220.542 209.484 214.128 207.57 211.242" fill="#A5A7A1"/>
<path d="M207.558 211.242C207.711 211.447 207.851 211.662 207.978 211.884C208.352 212.532 208.685 213.204 208.974 213.894C209.443 215.003 209.812 216.152 210.078 217.326C210.16 217.686 210.218 218.051 210.252 218.418C210.308 218.819 210.285 219.226 210.186 219.618C210.16 219.733 210.102 219.839 210.02 219.924C209.937 220.009 209.833 220.069 209.718 220.098C209.601 220.119 209.481 220.119 209.364 220.098L209.058 219.99L207.81 219.564L207.93 219.462C208.193 222.299 208.12 225.156 207.714 227.976C207.204 231.406 206.424 234.791 205.38 238.098C204.306 241.698 202.98 245.424 201.708 249.396C201.066 251.376 200.508 253.434 199.908 255.522C199.363 257.689 198.379 259.721 197.016 261.492C195.123 263.581 192.529 264.901 189.726 265.2C188.389 265.384 187.035 265.4 185.694 265.248C184.381 265.116 183.1 264.758 181.908 264.192C180.744 263.629 179.754 262.76 179.046 261.678C178.348 260.633 178.021 259.385 178.116 258.132C178.332 255.648 180.882 253.728 183.132 254.376L182.97 254.532C182.064 250.872 182.106 247.416 181.902 244.416C181.816 241.821 181.378 239.249 180.6 236.772C180.096 235.181 179.307 233.695 178.272 232.386C178 232.042 177.708 231.716 177.396 231.408C177.186 231.204 177.078 231.084 177.078 231.084C177.539 231.458 177.962 231.878 178.338 232.338C179.402 233.639 180.216 235.126 180.738 236.724C181.542 239.213 181.996 241.802 182.088 244.416C182.31 247.416 182.292 250.872 183.198 254.478L183.252 254.7L183.036 254.64C180.978 254.04 178.554 255.84 178.374 258.168C178.285 259.359 178.6 260.545 179.268 261.534C179.949 262.571 180.902 263.401 182.022 263.934C183.181 264.485 184.428 264.83 185.706 264.954C187.021 265.106 188.349 265.09 189.66 264.906C192.408 264.616 194.952 263.318 196.8 261.264C198.134 259.524 199.098 257.529 199.632 255.402C200.232 253.332 200.778 251.256 201.432 249.276C202.692 245.298 204.048 241.554 205.134 237.99C206.184 234.697 206.973 231.327 207.492 227.91C207.908 225.11 207.999 222.271 207.762 219.45V219.306L207.9 219.354L209.148 219.792C209.334 219.886 209.54 219.931 209.748 219.924C209.832 219.899 209.908 219.852 209.967 219.788C210.026 219.723 210.067 219.644 210.084 219.558C210.179 219.19 210.204 218.807 210.156 218.43C210.122 218.069 210.068 217.711 209.994 217.356C209.74 216.188 209.387 215.044 208.938 213.936C208.662 213.245 208.347 212.57 207.996 211.914C207.876 211.698 207.78 211.536 207.714 211.41C207.656 211.36 207.604 211.304 207.558 211.242Z" fill="#263238"/>
<path d="M185.526 256.512C185.526 256.56 185.082 256.758 184.428 257.22C183.571 257.811 182.848 258.577 182.308 259.467C181.768 260.358 181.423 261.353 181.296 262.386C181.188 263.178 181.224 263.682 181.176 263.688C181.049 263.258 181.014 262.806 181.074 262.362C181.146 261.28 181.477 260.23 182.04 259.303C182.603 258.375 183.381 257.597 184.308 257.034C184.672 256.775 185.087 256.597 185.526 256.512Z" fill="#263238"/>
<path d="M190.008 256.8C190.038 256.842 189.576 257.136 188.964 257.742C188.161 258.521 187.533 259.462 187.122 260.502C186.716 261.547 186.533 262.664 186.582 263.784C186.624 264.642 186.756 265.17 186.708 265.182C186.503 264.747 186.386 264.276 186.366 263.796C186.244 262.639 186.403 261.469 186.829 260.386C187.255 259.303 187.936 258.338 188.814 257.574C189.155 257.237 189.561 256.974 190.008 256.8Z" fill="#263238"/>
<path d="M145.68 225.63C147.618 229.674 149.784 233.094 150.204 237.198C150.624 241.302 150.444 245.502 151.47 249.498C149.424 248.898 147.162 250.548 146.712 252.63C146.262 254.712 147.348 256.926 149.034 258.234C150.793 259.469 152.884 260.145 155.034 260.172C158.634 260.376 162.516 259.368 164.988 256.71C167.256 254.274 169.11 245.838 169.788 242.574" fill="#A5A7A1"/>
<path d="M169.8 242.574C169.805 242.634 169.805 242.694 169.8 242.754C169.776 242.886 169.746 243.06 169.71 243.276C169.62 243.732 169.488 244.41 169.296 245.274C168.78 247.711 168.119 250.115 167.316 252.474C167.058 253.224 166.716 253.992 166.38 254.784C166.005 255.615 165.492 256.375 164.862 257.034C163.413 258.435 161.611 259.415 159.648 259.872C157.486 260.402 155.236 260.465 153.048 260.058C151.889 259.851 150.775 259.445 149.754 258.858C148.693 258.245 147.818 257.355 147.222 256.284C146.779 255.5 146.529 254.622 146.49 253.722C146.449 252.829 146.688 251.946 147.174 251.196C147.643 250.473 148.309 249.898 149.094 249.54C149.474 249.367 149.879 249.256 150.294 249.21C150.708 249.179 151.123 249.217 151.524 249.324L151.338 249.504C150.456 245.97 150.474 242.568 150.282 239.58C150.237 238.169 150.076 236.765 149.802 235.38C149.53 234.205 149.155 233.057 148.68 231.948C147.816 229.92 146.988 228.348 146.472 227.28C146.208 226.734 146.004 226.32 145.872 226.032C145.812 225.9 145.764 225.792 145.728 225.702C145.692 225.612 145.68 225.594 145.686 225.588C145.712 225.622 145.734 225.658 145.752 225.696C145.794 225.78 145.848 225.882 145.92 226.008C146.07 226.308 146.286 226.716 146.556 227.208C147.102 228.282 147.954 229.818 148.848 231.852C149.349 232.966 149.75 234.123 150.048 235.308C150.332 236.692 150.503 238.096 150.558 239.508C150.774 242.508 150.774 245.892 151.65 249.378L151.716 249.636L151.464 249.558C150 249.12 148.308 249.954 147.438 251.31C147.013 252.035 146.794 252.863 146.806 253.704C146.817 254.545 147.059 255.367 147.504 256.08C148.07 257.1 148.898 257.949 149.904 258.54C150.892 259.11 151.973 259.504 153.096 259.704C155.232 260.101 157.428 260.044 159.54 259.536C161.456 259.101 163.218 258.155 164.64 256.8C165.254 256.163 165.755 255.427 166.122 254.622C166.479 253.879 166.795 253.118 167.07 252.342C167.891 249.981 168.584 247.578 169.146 245.142C169.346 244.294 169.502 243.634 169.614 243.162C169.662 242.946 169.704 242.778 169.734 242.646C169.755 242.621 169.777 242.597 169.8 242.574Z" fill="#263238"/>
<path d="M153.906 251.496C153.906 251.544 153.462 251.742 152.802 252.204C151.946 252.796 151.224 253.563 150.685 254.453C150.145 255.343 149.799 256.337 149.67 257.37C149.562 258.168 149.604 258.672 149.55 258.672C149.423 258.244 149.388 257.794 149.448 257.352C149.524 256.27 149.857 255.221 150.419 254.293C150.982 253.366 151.757 252.586 152.682 252.018C153.05 251.762 153.466 251.584 153.906 251.496Z" fill="#263238"/>
<path d="M158.4 251.808C158.4 251.85 157.974 252.138 157.356 252.744C156.558 253.53 155.931 254.471 155.514 255.51C155.11 256.553 154.929 257.669 154.98 258.786C155.016 259.65 155.154 260.172 155.1 260.184C154.894 259.752 154.777 259.282 154.758 258.804C154.638 257.65 154.798 256.484 155.223 255.404C155.648 254.325 156.326 253.363 157.2 252.6C157.54 252.255 157.949 251.985 158.4 251.808Z" fill="#263238"/>
<path d="M174.246 244.2C174.071 244.175 173.898 244.135 173.73 244.08C173.4 243.99 172.902 243.87 172.278 243.672C170.507 243.114 168.779 242.431 167.106 241.626C164.628 240.421 162.279 238.97 160.092 237.294C157.417 235.229 155.014 232.834 152.94 230.166C152.424 229.53 151.986 228.852 151.512 228.21L151.77 228.03C152.004 228.318 152.169 228.657 152.25 229.02C152.26 229.148 152.219 229.276 152.136 229.374C152.055 229.459 151.947 229.514 151.83 229.53C151.644 229.554 151.455 229.544 151.272 229.5C150.605 229.359 149.974 229.084 149.418 228.69C147.223 227.266 145.322 225.432 143.82 223.29C142.616 221.609 141.576 219.817 140.712 217.938C139.986 216.354 139.512 215.058 139.176 214.158C139.014 213.714 138.912 213.36 138.834 213.12C138.793 213.002 138.759 212.882 138.732 212.76C138.795 212.868 138.846 212.982 138.882 213.102C138.984 213.36 139.11 213.702 139.278 214.122C139.614 215.01 140.136 216.294 140.892 217.854C141.771 219.71 142.822 221.479 144.03 223.14C145.529 225.244 147.412 227.046 149.58 228.45C150.101 228.807 150.685 229.059 151.302 229.194C151.608 229.254 151.968 229.248 151.902 229.038C151.825 228.734 151.681 228.452 151.482 228.21L151.734 228.03C152.202 228.666 152.64 229.338 153.156 229.968C155.212 232.615 157.588 234.997 160.23 237.06C163.866 239.897 167.95 242.107 172.314 243.6C172.914 243.816 173.424 243.954 173.748 244.062C173.918 244.093 174.084 244.14 174.246 244.2Z" fill="#263238"/>
<path d="M256.278 210.132L239.298 223.2C234.306 223.914 230.898 227.328 227.496 231.036C223.014 235.896 224.028 240.762 222.696 245.622C222.343 246.583 221.91 247.512 221.4 248.4C220.386 250.578 217.722 249.93 216.33 250.35C214.668 250.848 213.93 251.64 213.15 253.2C212.775 253.999 212.64 254.889 212.763 255.763C212.885 256.636 213.26 257.456 213.84 258.12C214.854 259.188 216.558 259.392 217.998 259.71C222.012 260.586 226.158 261.474 230.19 260.682C234.222 259.89 238.128 256.962 238.728 252.882C241.591 253.608 244.618 253.296 247.272 252C249.905 250.685 252.223 248.819 254.07 246.528C258.27 241.554 261.324 235.218 261.72 228.72C262.116 222.222 259.854 215.574 256.278 210.132Z" fill="#A5A7A1"/>
<path d="M243 223.2C242.951 223.192 242.905 223.176 242.862 223.152L242.472 222.984C241.972 222.764 241.456 222.579 240.93 222.432C239.001 221.887 236.974 221.789 235.002 222.144C233.643 222.382 232.325 222.814 231.09 223.428C229.675 224.14 228.378 225.064 227.244 226.17C224.666 228.732 222.851 231.96 222 235.494C221.166 239.042 221.001 242.715 221.514 246.324C221.688 247.155 221.634 248.017 221.358 248.82C221.182 249.205 220.896 249.528 220.536 249.75C220.194 249.951 219.818 250.086 219.426 250.146C218.67 250.278 217.938 250.266 217.26 250.344C216.61 250.406 215.979 250.6 215.406 250.914C214.527 251.382 213.815 252.111 213.369 253.001C212.923 253.891 212.765 254.898 212.916 255.882C213.027 256.607 213.278 257.304 213.654 257.934C213.53 257.789 213.423 257.63 213.336 257.46C213.066 256.976 212.884 256.448 212.796 255.9C212.647 255.029 212.732 254.135 213.042 253.308C213.382 252.441 213.954 251.684 214.694 251.119C215.435 250.554 216.316 250.203 217.242 250.104C217.944 250.02 218.67 250.026 219.39 249.894C219.757 249.856 220.108 249.726 220.411 249.516C220.714 249.307 220.959 249.024 221.124 248.694C221.372 247.934 221.411 247.122 221.238 246.342C220.706 242.701 220.867 238.992 221.712 235.41C222.572 231.808 224.428 228.52 227.07 225.924C228.23 224.806 229.556 223.873 231 223.158C232.261 222.544 233.605 222.117 234.99 221.892C236.993 221.55 239.047 221.681 240.99 222.276C241.695 222.5 242.371 222.811 243 223.2Z" fill="#263238"/>
<path d="M217.332 259.278C217.019 258.955 216.796 258.556 216.684 258.12C216.33 257.079 216.359 255.946 216.767 254.924C217.176 253.903 217.936 253.062 218.91 252.552C219.291 252.311 219.731 252.178 220.182 252.168C220.182 252.216 219.696 252.33 219.024 252.768C218.133 253.296 217.442 254.103 217.057 255.065C216.672 256.026 216.614 257.087 216.894 258.084C217.098 258.828 217.38 259.248 217.332 259.278Z" fill="#263238"/>
<path d="M223.8 260.508C223.666 260.471 223.541 260.405 223.434 260.316C223.126 260.105 222.853 259.848 222.624 259.554C222.226 259.07 221.937 258.506 221.778 257.9C221.62 257.294 221.594 256.66 221.705 256.043C221.815 255.427 222.058 254.841 222.416 254.327C222.775 253.814 223.241 253.384 223.782 253.068C224.1 252.871 224.446 252.724 224.808 252.63C224.939 252.584 225.078 252.567 225.216 252.582C224.762 252.774 224.323 252.999 223.902 253.254C223.409 253.573 222.987 253.991 222.662 254.48C222.337 254.969 222.115 255.52 222.012 256.098C221.908 256.677 221.925 257.27 222.06 257.842C222.195 258.414 222.446 258.951 222.798 259.422C223.107 259.806 223.442 260.169 223.8 260.508Z" fill="#263238"/>
<path d="M261.72 228.708C261.66 228.708 261.846 227.646 261.93 225.924C261.983 224.925 261.983 223.923 261.93 222.924C261.846 221.696 261.692 220.474 261.468 219.264C261.039 217.065 260.391 214.915 259.536 212.844C259.212 212.046 258.936 211.404 258.726 210.972C258.609 210.748 258.514 210.513 258.444 210.27C258.595 210.473 258.725 210.69 258.834 210.918C259.074 211.338 259.386 211.962 259.74 212.754C260.661 214.82 261.343 216.984 261.774 219.204C262.004 220.429 262.153 221.667 262.218 222.912C262.265 223.926 262.249 224.942 262.17 225.954C262.123 226.639 262.035 227.32 261.906 227.994C261.866 228.237 261.804 228.476 261.72 228.708Z" fill="#263238"/>
<path d="M225.036 206.736C224.923 206.675 224.818 206.601 224.724 206.514C224.526 206.358 224.25 206.112 223.914 205.788C223 204.881 222.209 203.859 221.562 202.746L221.808 202.632C222.313 204.087 222.493 205.636 222.336 207.168C222.284 207.666 222.196 208.159 222.072 208.644L221.982 208.998L221.79 208.686C220.542 206.676 219.45 204.894 218.682 203.604L217.8 202.086C217.682 201.907 217.583 201.716 217.506 201.516C217.655 201.669 217.784 201.841 217.89 202.026L218.868 203.496C219.684 204.756 220.806 206.496 222.066 208.524L221.784 208.566C221.901 208.096 221.985 207.619 222.036 207.138C222.188 205.649 222.026 204.145 221.562 202.722L221.814 202.608C222.436 203.713 223.185 204.742 224.046 205.674C224.658 206.352 225.06 206.706 225.036 206.736Z" fill="#263238"/>
<g opacity="0.3">
<path d="M224.94 228.108C221.599 231.178 219.234 235.164 218.142 239.568C217.945 240.78 217.552 241.951 216.978 243.036C215.58 245.202 212.622 245.748 210.048 245.502L203.082 244.86L200.628 252.432C205.122 253.032 212.988 253.374 212.988 253.374C214.05 251.19 215.622 250.164 217.944 250.098C218.596 250.073 219.243 249.98 219.876 249.822C220.28 249.674 220.634 249.413 220.896 249.071C221.157 248.729 221.315 248.319 221.352 247.89C221.411 247.029 221.332 246.164 221.118 245.328C220.078 239.309 221.451 233.122 224.94 228.108Z" fill="black"/>
</g>
<path opacity="0.3" d="M161.64 237.48L181.71 244.374L182.172 247.308C182.172 247.308 163.2 241.698 161.64 237.48Z" fill="black"/>
<g opacity="0.6">
<path d="M183.066 156.396L130.968 183.6C134.328 201.6 140.466 212.646 154.47 224.448C155.952 225.696 162.378 230.082 164.154 230.862C165.918 231.716 167.946 231.847 169.806 231.228C172.086 230.352 173.544 228.126 174.546 225.9C177.33 219.744 177.744 212.826 178.116 206.1C179.138 207.401 179.817 208.938 180.09 210.57C184.122 205.17 176.946 186.654 177.294 179.928C177.9 168.222 185.22 167.916 183.066 156.396Z" fill="white"/>
</g>
<path d="M131.022 183.744C131.022 183.744 120.222 158.304 120.072 147.21C119.922 136.116 129.306 127.89 129.306 127.89C130.765 120.852 132.833 113.954 135.486 107.274C139.602 97.296 152.034 81.942 155.508 83.046C158.982 84.15 160.578 86.046 160.596 95.046C160.614 104.046 161.736 109.242 161.736 109.242C161.736 109.242 169.914 111.042 172.536 113.982C172.536 113.982 174.39 113.814 176.688 111.81C178.986 109.806 195.288 95.562 199.962 98.946C204.636 102.33 203.046 118.518 199.41 125.43C195.774 132.342 189.81 141.246 189.612 142.068C189.414 142.89 191.844 153.204 190.506 158.514C189.168 163.824 185.322 170.514 178.854 175.524C172.386 180.534 153.054 192.444 143.838 190.2C134.622 187.956 131.022 183.744 131.022 183.744Z" fill="#A5A7A1"/>
<path opacity="0.6" d="M131.022 183.744C131.022 183.744 120.222 158.304 120.072 147.21C119.922 136.116 129.306 127.89 129.306 127.89C130.765 120.852 132.833 113.954 135.486 107.274C139.602 97.296 152.034 81.942 155.508 83.046C158.982 84.15 160.578 86.046 160.596 95.046C160.614 104.046 161.736 109.242 161.736 109.242C161.736 109.242 169.914 111.042 172.536 113.982C172.536 113.982 174.39 113.814 176.688 111.81C178.986 109.806 195.288 95.562 199.962 98.946C204.636 102.33 203.046 118.518 199.41 125.43C195.774 132.342 189.81 141.246 189.612 142.068C189.414 142.89 191.844 153.204 190.506 158.514C189.168 163.824 185.322 170.514 178.854 175.524C172.386 180.534 153.054 192.444 143.838 190.2C134.622 187.956 131.022 183.744 131.022 183.744Z" fill="white"/>
<path d="M199.398 125.448C203.034 118.536 204.6 102.348 199.95 98.964C195.3 95.58 178.98 109.8 176.676 111.828C174.372 113.856 172.524 114 172.524 114C172.242 113.689 171.928 113.407 171.588 113.16C168.812 115.207 166.334 117.63 164.226 120.36C161.482 123.887 159.747 128.093 159.204 132.528C159 134.514 159.108 136.62 160.11 138.354C161.358 140.508 163.764 141.714 166.146 142.428C174.408 144.912 190.098 138.828 185.772 157.944C185.772 157.944 182.388 166.698 179.238 172.122C178.428 173.52 177.906 176.586 177.438 178.122C177.978 177.732 180.744 178.536 181.176 178.2C187.65 173.202 196.884 166.992 195.138 161.802C192.348 153.51 189.366 142.89 189.588 142.074C189.81 141.258 195.762 132.354 199.398 125.448Z" fill="#A5A7A1"/>
<g opacity="0.6">
<path d="M198.864 102.108C197.754 101.358 196.26 101.754 195.036 102.294C188.381 105.319 182.697 110.134 178.62 116.202C178.686 122.561 180.593 128.765 184.11 134.064C184.656 134.88 185.442 135.768 186.414 135.636C186.762 135.539 187.088 135.374 187.372 135.15C187.656 134.927 187.893 134.649 188.07 134.334C194.178 126.06 198.84 116.484 199.986 106.26C200.154 104.76 200.112 102.954 198.864 102.108Z" fill="white"/>
</g>
<path d="M151.026 128.766C153.744 125.13 156.222 121.308 159.198 117.882C161.5 115.132 164.263 112.803 167.364 111C165.528 110.304 163.648 109.73 161.736 109.284C161.736 109.284 160.614 104.124 160.596 95.088C160.578 86.052 158.976 84.168 155.508 83.088C152.04 82.008 139.602 97.338 135.486 107.316C133.186 113.075 131.333 119.003 129.942 125.046L130.056 125.1C132.612 126.9 134.634 129.348 137.13 131.22C139.626 133.092 142.908 134.388 145.854 133.356C148.05 132.54 149.628 130.632 151.026 128.766Z" fill="#A5A7A1"/>
<path d="M151.488 140.4C150.075 139.356 148.489 138.569 146.802 138.078C145.77 137.736 144.51 137.514 143.7 138.24C143.397 138.558 143.195 138.957 143.117 139.389C143.039 139.821 143.089 140.266 143.262 140.67C143.621 141.473 144.159 142.183 144.834 142.746C145.471 143.43 146.266 143.947 147.15 144.252C148.638 144.66 149.382 144.384 150.75 143.688C151.383 143.37 151.968 142.967 152.49 142.488C152.868 142.122 152.922 141.15 151.488 140.4Z" fill="#263238"/>
<path d="M157.878 147.894C155.436 149.784 154.782 152.472 154.02 155.466C153.258 158.46 152.724 161.592 151.068 164.196C149.412 166.8 146.226 168.762 143.268 167.88C142.469 167.612 141.73 167.19 141.095 166.636C140.459 166.082 139.94 165.407 139.566 164.652C138.828 163.133 138.44 161.468 138.432 159.78C138.333 157.193 138.796 154.615 139.788 152.223C140.78 149.832 142.279 147.683 144.18 145.926C145.024 146.054 145.845 146.305 146.616 146.67C147.3 147.126 151.152 149.418 153.954 148.734C156.756 148.05 157.878 147.894 157.878 147.894Z" fill="#A5A7A1"/>
<path d="M145.158 157.758C145.071 157.232 145.071 156.694 145.158 156.168C145.297 154.887 145.637 153.635 146.166 152.46C146.687 151.279 147.387 150.186 148.242 149.22C148.581 148.805 148.987 148.448 149.442 148.164C149.478 148.206 149.028 148.614 148.416 149.364C147.628 150.349 146.97 151.432 146.46 152.586C145.944 153.733 145.583 154.944 145.386 156.186C145.2 157.152 145.2 157.758 145.158 157.758Z" fill="#263238"/>
<path d="M162.252 145.128C162.205 145.235 162.145 145.336 162.072 145.428C161.883 145.7 161.663 145.949 161.418 146.172C160.487 146.978 159.392 147.572 158.208 147.912C157.405 148.165 156.59 148.378 155.766 148.548C154.825 148.793 153.858 148.92 152.886 148.926C150.635 148.912 148.445 148.19 146.628 146.862C146.179 146.527 145.67 146.283 145.128 146.142C144.6 146.034 144.03 146.142 143.454 146.028C142.909 145.928 142.393 145.711 141.941 145.391C141.489 145.07 141.112 144.655 140.838 144.174C140.312 143.332 140.035 142.359 140.04 141.366C140.05 140.509 140.238 139.663 140.592 138.882C141.098 137.753 141.908 136.787 142.932 136.092C143.212 135.909 143.507 135.751 143.814 135.618C143.918 135.57 144.027 135.531 144.138 135.504C144.138 135.504 143.7 135.702 143.004 136.194C142.033 136.904 141.271 137.861 140.796 138.966C140.471 139.725 140.302 140.541 140.298 141.366C140.307 142.307 140.577 143.227 141.078 144.024C141.333 144.463 141.679 144.843 142.093 145.137C142.507 145.431 142.979 145.632 143.478 145.728C143.994 145.818 144.564 145.728 145.164 145.836C145.746 145.986 146.295 146.246 146.778 146.604C148.546 147.897 150.672 148.608 152.862 148.638C153.814 148.638 154.763 148.524 155.688 148.296C156.57 148.11 157.392 147.924 158.118 147.696C159.282 147.385 160.369 146.836 161.31 146.082C161.641 145.782 161.956 145.463 162.252 145.128Z" fill="#263238"/>
<g opacity="0.6">
<path d="M134.286 122.226C140.072 117.622 146.326 113.64 152.946 110.346C153.92 109.94 154.806 109.349 155.556 108.606C156.42 107.616 156.72 106.278 156.99 105.006C157.992 100.272 158.994 95.316 157.698 90.654C157.242 89.016 156.204 87.222 154.506 87.096C153.432 87.012 152.448 87.636 151.59 88.296C145.476 92.988 141.882 100.164 138.486 107.088C136.2 111.756 133.866 116.592 133.614 121.788" fill="white"/>
</g>
<path d="M145.836 146.25C145.448 145.804 145.245 145.227 145.266 144.636C145.202 144.047 145.358 143.455 145.704 142.974C145.8 143.01 145.542 143.724 145.578 144.618C145.614 145.512 145.926 146.208 145.836 146.25Z" fill="#263238"/>
<g opacity="0.6">
<path d="M169.308 124.836C167.915 124.539 166.468 124.605 165.108 125.028C164.854 125.084 164.616 125.193 164.409 125.35C164.202 125.506 164.031 125.705 163.908 125.934C163.626 126.684 164.316 127.44 164.988 127.878C166.272 128.703 167.739 129.202 169.26 129.33C169.799 129.397 170.346 129.354 170.868 129.204C171.128 129.128 171.369 128.999 171.575 128.824C171.782 128.649 171.95 128.433 172.068 128.19C172.2 127.8 172.213 127.38 172.106 126.983C171.999 126.586 171.777 126.229 171.468 125.958C170.844 125.419 170.117 125.011 169.332 124.758" fill="white"/>
</g>
<g opacity="0.6">
<path d="M149.094 118.434C147.701 118.136 146.254 118.202 144.894 118.626C144.635 118.678 144.391 118.785 144.178 118.942C143.966 119.099 143.79 119.3 143.664 119.532C143.376 120.282 144.066 121.038 144.738 121.476C146.023 122.3 147.489 122.799 149.01 122.928C149.549 122.995 150.096 122.952 150.618 122.802C150.877 122.725 151.118 122.596 151.325 122.421C151.531 122.247 151.699 122.031 151.818 121.788C151.948 121.398 151.961 120.979 151.854 120.582C151.747 120.185 151.526 119.828 151.218 119.556C150.595 119.015 149.868 118.607 149.082 118.356" fill="white"/>
</g>
<path d="M150.312 96.684C150.354 96.726 149.604 97.494 148.632 98.916C148.065 99.746 147.56 100.616 147.12 101.52C146.038 103.742 145.361 106.14 145.122 108.6C145.027 109.597 145.003 110.6 145.05 111.6C145.14 113.316 145.374 114.366 145.314 114.378C145.222 114.142 145.155 113.896 145.116 113.646C145.049 113.359 144.997 113.069 144.96 112.776C144.918 112.434 144.846 112.044 144.828 111.612C144.744 110.596 144.744 109.574 144.828 108.558C145.04 106.064 145.731 103.633 146.862 101.4C147.32 100.49 147.851 99.6189 148.452 98.796C148.698 98.436 148.956 98.136 149.172 97.872C149.36 97.6411 149.56 97.4208 149.772 97.212C149.932 97.0167 150.113 96.8396 150.312 96.684Z" fill="#263238"/>
<path d="M167.88 135.204C167.869 135.741 167.699 136.262 167.392 136.702C167.085 137.142 166.654 137.481 166.155 137.676C165.655 137.871 165.108 137.913 164.584 137.798C164.06 137.682 163.582 137.414 163.211 137.026C162.84 136.639 162.591 136.15 162.498 135.622C162.405 135.093 162.47 134.549 162.686 134.058C162.902 133.567 163.259 133.151 163.711 132.862C164.164 132.574 164.692 132.426 165.228 132.438C165.584 132.445 165.935 132.522 166.261 132.665C166.587 132.808 166.882 133.014 167.128 133.271C167.374 133.528 167.568 133.831 167.697 134.162C167.826 134.494 167.888 134.848 167.88 135.204Z" fill="#263238"/>
<path d="M147.234 127.998C147.223 128.534 147.053 129.056 146.746 129.496C146.439 129.936 146.008 130.275 145.509 130.47C145.009 130.665 144.462 130.707 143.938 130.592C143.414 130.476 142.936 130.208 142.565 129.82C142.194 129.433 141.945 128.944 141.852 128.416C141.759 127.887 141.824 127.343 142.04 126.852C142.256 126.361 142.613 125.945 143.065 125.656C143.518 125.368 144.046 125.22 144.582 125.232C145.3 125.248 145.983 125.548 146.48 126.066C146.977 126.585 147.248 127.28 147.234 127.998Z" fill="#263238"/>
<path d="M198.312 106.668C198.235 106.762 198.151 106.851 198.06 106.932L197.31 107.652C196.656 108.252 195.72 109.188 194.61 110.364C191.707 113.441 189.118 116.799 186.882 120.39L186.708 120.672L186.6 120.36C186.552 120.21 186.492 120.048 186.438 119.886C185.916 118.398 185.418 116.952 184.944 115.596H185.226C183.845 118.604 183.062 121.853 182.922 125.16C182.881 126.124 182.893 127.089 182.958 128.052C182.996 128.399 183.014 128.747 183.012 129.096C182.981 129.011 182.963 128.922 182.958 128.832C182.958 128.658 182.886 128.4 182.85 128.064C182.749 127.097 182.709 126.126 182.73 125.154C182.806 121.809 183.561 118.514 184.95 115.47L185.106 115.128L185.232 115.482L186.732 119.772L186.894 120.246L186.618 120.216C188.861 116.605 191.489 113.248 194.454 110.202C195.588 109.044 196.548 108.15 197.226 107.55C197.562 107.25 197.826 107.028 198.018 106.872C198.107 106.792 198.206 106.723 198.312 106.668Z" fill="#263238"/>
<path d="M155.556 192.468C155.603 192.632 155.629 192.801 155.634 192.972C155.67 193.302 155.706 193.794 155.736 194.412C155.798 196.137 155.724 197.865 155.514 199.578L155.484 199.812L155.298 199.662C153.316 198.122 151.619 196.248 150.282 194.124C150.138 193.896 150.006 193.668 149.874 193.446L150.162 193.332L151.728 199.812L151.842 200.28L151.506 199.938C150.286 198.701 149.288 197.264 148.554 195.69C148.35 195.25 148.17 194.799 148.014 194.34C147.951 194.18 147.907 194.013 147.882 193.842C147.968 193.991 148.038 194.147 148.092 194.31C148.224 194.616 148.416 195.066 148.692 195.618C149.464 197.146 150.477 198.54 151.692 199.746L151.47 199.872C150.996 197.97 150.444 195.768 149.856 193.404L149.604 192.384L150.144 193.29C150.276 193.512 150.408 193.734 150.546 193.956C151.865 196.05 153.526 197.908 155.46 199.452L155.244 199.542C155.473 197.844 155.585 196.132 155.58 194.418C155.58 193.818 155.58 193.35 155.58 192.978C155.556 192.809 155.548 192.638 155.556 192.468Z" fill="#263238"/>
<path d="M64.638 242.778C61.854 244.74 58.962 246.672 55.68 247.578C52.398 248.484 48.606 248.178 45.966 246.042C42.582 243.282 41.97 238.344 42.366 233.988C43.128 225.12 46.878 216.33 45.168 207.588C44.5227 204.432 43.1904 201.457 41.2658 198.874C39.3412 196.291 36.8715 194.163 34.032 192.642C31.1735 191.167 28.0253 190.338 24.8109 190.216C21.5964 190.094 18.3944 190.68 15.432 191.934C11.754 193.524 8.31001 196.572 7.87201 200.55C9.07201 204.246 14.574 207.3 18.228 208.596C21.882 209.892 25.944 211.308 27.768 214.728C29.352 217.698 28.752 221.292 28.368 224.64C27.7579 230.321 27.9762 236.061 29.016 241.68C29.796 245.88 31.104 250.146 33.93 253.362C38.346 258.39 45.684 259.896 52.338 259.182C58.992 258.468 65.274 255.894 71.682 253.98L64.638 242.778Z" fill="#FF62BD"/>
<g opacity="0.5">
<path d="M44.634 210.786C44.9087 210.054 45.1332 209.304 45.306 208.542C45.258 208.226 45.204 207.908 45.144 207.588C44.4987 204.432 43.1665 201.457 41.2419 198.874C39.3172 196.291 36.8475 194.163 34.008 192.642C31.1495 191.167 28.0013 190.338 24.7869 190.216C21.5724 190.094 18.3704 190.68 15.408 191.934C11.73 193.524 8.28602 196.572 7.84802 200.55C9.04802 204.246 14.55 207.3 18.204 208.596C21.858 209.892 25.92 211.308 27.744 214.728C28.812 216.732 28.884 219.018 28.71 221.328C29.376 221.418 30.0493 221.442 30.72 221.4C36.852 221.022 42.45 216.558 44.634 210.786Z" fill="white"/>
</g>
<path d="M110.256 251.55C112.056 250.404 116.124 250.104 118.236 249.864C120.348 249.624 122.646 250.224 124.05 251.82C125.454 253.416 125.694 256.074 124.26 257.64C122.622 259.44 118.908 259.404 116.46 259.404C109.86 259.404 106.002 259.278 99.954 259.404" fill="#FF62BD"/>
<path d="M99.972 259.404C100.124 259.376 100.279 259.362 100.434 259.362L101.766 259.308C102.918 259.278 104.586 259.242 106.65 259.236H113.904C115.266 259.236 116.7 259.236 118.176 259.236C119.693 259.25 121.202 259.011 122.64 258.528C123.343 258.26 123.956 257.801 124.41 257.202C124.819 256.596 125.048 255.887 125.07 255.156C125.097 254.462 124.969 253.772 124.696 253.134C124.423 252.495 124.012 251.926 123.492 251.466C122.52 250.645 121.325 250.135 120.06 250.002C118.947 249.92 117.827 249.964 116.724 250.134C115.106 250.264 113.5 250.525 111.924 250.914C111.5 251.029 111.085 251.176 110.682 251.352C110.547 251.428 110.407 251.495 110.262 251.55C110.262 251.55 110.292 251.52 110.358 251.478C110.424 251.436 110.52 251.37 110.652 251.298C111.048 251.093 111.462 250.924 111.888 250.794C113.459 250.36 115.065 250.067 116.688 249.918C117.807 249.729 118.945 249.67 120.078 249.744C121.402 249.872 122.657 250.397 123.678 251.25C124.233 251.736 124.673 252.34 124.966 253.018C125.259 253.696 125.397 254.43 125.37 255.168C125.348 255.959 125.101 256.727 124.656 257.382C124.169 258.031 123.507 258.528 122.748 258.816C121.278 259.314 119.734 259.56 118.182 259.542C116.688 259.542 115.26 259.542 113.892 259.542L106.644 259.458H101.76H100.428C100.275 259.451 100.122 259.433 99.972 259.404Z" fill="#263238"/>
<path d="M85.092 163.872C85.092 164.676 80.292 176.34 68.4 185.79C56.508 195.24 46.674 206.304 46.878 220.986C47.082 235.668 56.13 251.76 56.13 251.76L65.484 259.122L99.972 259.404C99.972 259.404 115.86 255.582 117.87 242.508C119.88 229.434 115.86 223.2 115.86 223.2L116.46 210.126C116.46 210.126 125.91 192.63 126.516 187.002C127.122 181.374 121.89 160.854 121.89 160.854L85.092 163.872Z" fill="#FF62BD"/>
<path d="M104.4 201.828C104.113 203.103 104.046 204.418 104.202 205.716C104.405 207.119 104.826 208.481 105.45 209.754C106.209 211.317 107.149 212.785 108.252 214.128C109.422 215.568 110.652 216.864 111.702 218.064C112.752 219.264 113.724 220.38 114.444 221.37C115.025 222.143 115.548 222.957 116.01 223.806C116.178 224.106 116.28 224.352 116.358 224.514C116.436 224.676 116.466 224.766 116.454 224.772C116.25 224.482 116.066 224.18 115.902 223.866C115.405 223.046 114.86 222.257 114.27 221.502C113.532 220.536 112.578 219.45 111.492 218.262C110.406 217.074 109.188 215.778 108.006 214.326C106.892 212.96 105.945 211.465 105.186 209.874C104.567 208.571 104.162 207.177 103.986 205.746C103.87 204.78 103.911 203.801 104.106 202.848C104.154 202.589 104.223 202.334 104.31 202.086C104.329 201.996 104.359 201.91 104.4 201.828Z" fill="#263238"/>
<path d="M117.318 228.498C117.38 228.613 117.43 228.733 117.468 228.858C117.552 229.098 117.696 229.458 117.828 229.92C118.222 231.233 118.501 232.578 118.662 233.94C118.906 235.965 118.906 238.011 118.662 240.036C118.524 241.235 118.289 242.421 117.96 243.582C117.62 244.824 117.16 246.03 116.586 247.182C116.009 248.343 115.321 249.446 114.534 250.476C113.791 251.427 112.973 252.316 112.086 253.134C110.577 254.51 108.897 255.685 107.088 256.632C105.876 257.274 104.611 257.812 103.308 258.24C102.852 258.402 102.486 258.492 102.24 258.564C102.118 258.607 101.991 258.635 101.862 258.648C101.977 258.588 102.098 258.54 102.222 258.504C102.462 258.408 102.822 258.306 103.272 258.126C104.549 257.653 105.791 257.087 106.986 256.434C108.762 255.473 110.41 254.294 111.894 252.924C112.76 252.109 113.563 251.228 114.294 250.29C115.064 249.273 115.737 248.186 116.304 247.044C116.873 245.901 117.329 244.705 117.666 243.474C117.995 242.337 118.234 241.175 118.38 240C118.638 237.995 118.658 235.967 118.44 233.958C118.305 232.602 118.06 231.26 117.708 229.944C117.6 229.476 117.474 229.122 117.408 228.876C117.369 228.752 117.339 228.626 117.318 228.498Z" fill="#263238"/>
<path d="M66.084 259.098C65.7845 258.998 65.4935 258.873 65.214 258.726C64.8753 258.573 64.5448 258.403 64.224 258.216C63.846 258 63.402 257.772 62.952 257.46C62.502 257.148 61.986 256.86 61.476 256.446C60.966 256.032 60.432 255.618 59.874 255.156C57.5082 253.075 55.5385 250.583 54.06 247.8C53.736 247.152 53.418 246.54 53.178 245.94C52.938 245.34 52.71 244.788 52.53 244.272C52.35 243.756 52.218 243.276 52.092 242.862C51.9859 242.505 51.8978 242.142 51.828 241.776C51.7484 241.471 51.6942 241.16 51.666 240.846C51.7876 241.139 51.882 241.442 51.948 241.752C52.02 242.046 52.122 242.406 52.26 242.814C52.398 243.222 52.53 243.696 52.74 244.2C52.95 244.704 53.142 245.262 53.418 245.838C53.694 246.414 54.018 247.038 54.312 247.638C55.0661 249 55.9247 250.302 56.88 251.532C57.8516 252.746 58.9168 253.881 60.066 254.928C60.612 255.396 61.116 255.852 61.632 256.224C62.148 256.596 62.622 256.962 63.072 257.268C63.522 257.574 63.942 257.82 64.308 258.054C64.674 258.288 64.998 258.462 65.268 258.606C65.5544 258.745 65.8276 258.909 66.084 259.098Z" fill="#263238"/>
<path d="M82.116 217.674C81.9035 217.56 81.7026 217.425 81.516 217.272C81.15 216.996 80.628 216.57 79.998 216.006C78.3065 214.474 76.8057 212.743 75.528 210.852L75.798 210.726L76.95 214.428L77.82 217.2L77.958 217.656L77.58 217.368C75.5758 215.821 74.0187 213.769 73.068 211.422C72.7937 210.739 72.5769 210.035 72.42 209.316C72.366 209.064 72.342 208.866 72.318 208.716C72.294 208.566 72.318 208.512 72.318 208.506C72.4052 208.755 72.4773 209.01 72.534 209.268C72.7287 209.971 72.9733 210.658 73.266 211.326C74.2508 213.606 75.8043 215.596 77.778 217.104L77.538 217.272C77.262 216.384 76.976 215.462 76.68 214.506C76.278 213.21 75.894 211.956 75.534 210.804L75.234 209.814L75.804 210.672C77.0572 212.554 78.514 214.293 80.148 215.856C80.748 216.456 81.258 216.882 81.606 217.182C81.79 217.331 81.9607 217.495 82.116 217.674Z" fill="#263238"/>
<g opacity="0.3">
<path d="M104.106 202.566C104.19 201.966 105.15 201.966 105.48 202.488C105.728 203.028 105.797 203.634 105.678 204.216C105.474 207.672 107.628 210.816 109.878 213.438C112.128 216.06 114.618 218.754 115.338 222.138C113.538 220.068 111.426 218.322 109.452 216.432C107.478 214.542 105.618 212.448 104.544 209.934C103.47 207.42 103.266 204.414 104.544 202.008" fill="black"/>
</g>
<g opacity="0.3">
<path d="M103.8 258.03C106.56 258.132 109.41 257.856 111.864 256.584C114.318 255.312 116.304 252.906 116.484 250.152L114.414 250.242C111.761 253.705 108.165 256.328 104.058 257.796" fill="black"/>
</g>
<path d="M108.294 116.916C108.294 116.916 93.294 119.244 90.09 120.516C86.886 121.788 73.758 128.58 71.694 135.048C71.694 135.048 70.668 142.338 73.89 151.308C75.06 154.578 84.582 165.642 86.844 166.908C89.106 168.174 122.244 162.288 122.244 162.288C124.236 159.588 129.966 150.204 129.918 143.172C129.858 134.346 126.696 124.422 126.696 124.422L108.294 116.916Z" fill="#FF62BD"/>
<path d="M119.844 101.676C119.52 101.622 115.536 101.676 112.506 108.534C110.648 112.718 108.501 116.768 106.08 120.654L126.78 125.454C126.78 125.454 125.622 114.27 124.476 110.364C123.33 106.458 122.16 102.054 119.844 101.676Z" fill="#FF62BD"/>
<g opacity="0.6">
<path d="M113.448 144.24C106.758 141.618 99.048 142.782 92.526 145.746C88.884 147.396 85.326 149.784 83.682 153.438C81.024 159.438 84.636 166.536 89.682 170.688C94.728 174.84 101.082 177.09 106.554 180.702C112.026 184.314 116.868 190.188 116.154 196.698L116.478 210.078C117.018 209.076 125.922 192.462 126.51 187.002C127.02 182.202 123.294 166.572 122.19 162.078C122.67 161.478 123.426 160.224 124.326 159.036C124.428 152.55 119.58 146.652 113.448 144.24Z" fill="white"/>
</g>
<path d="M106.524 141.672C106.566 141.522 106.574 141.365 106.549 141.211C106.524 141.057 106.466 140.911 106.379 140.782C106.291 140.653 106.177 140.544 106.044 140.464C105.91 140.383 105.761 140.333 105.606 140.316C103.906 140.104 102.181 140.342 100.602 141.006C100.424 141.057 100.259 141.145 100.118 141.265C99.9774 141.385 99.8641 141.534 99.786 141.702C99.7519 141.89 99.7647 142.084 99.8233 142.266C99.8819 142.448 99.9845 142.613 100.122 142.746C100.526 143.232 101.047 143.609 101.635 143.841C102.223 144.073 102.86 144.152 103.488 144.073C104.115 143.993 104.712 143.757 105.224 143.386C105.736 143.014 106.146 142.52 106.416 141.948C106.458 141.859 106.494 141.766 106.524 141.672Z" fill="#263238"/>
<path d="M107.052 149.136C106.84 149.431 106.572 149.682 106.263 149.873C105.954 150.065 105.611 150.193 105.252 150.252C104.905 150.364 104.54 150.405 104.177 150.373C103.814 150.341 103.462 150.237 103.14 150.066C103.822 150.099 104.506 150.061 105.18 149.952C105.83 149.745 106.458 149.471 107.052 149.136Z" fill="#263238"/>
<path d="M72.072 136.416C72.072 136.416 65.01 111.942 68.022 109.878C71.034 107.814 73.806 110.256 73.806 110.256L89.4 122.088L72.072 136.416Z" fill="#FF62BD"/>
<g opacity="0.6">
<path d="M74.022 131.472C76.6879 127.779 80.2219 124.8 84.312 122.796L73.602 114.396C73.3871 114.172 73.1262 113.997 72.8372 113.883C72.5483 113.769 72.2381 113.719 71.928 113.736C71.6484 113.834 71.3998 114.004 71.2079 114.23C71.016 114.456 70.8876 114.728 70.836 115.02C70.44 116.502 70.836 118.908 71.148 120.42C72.012 124.374 72.948 128.166 74.022 131.496" fill="white"/>
</g>
<g opacity="0.6">
<path d="M123.234 122.256C119.427 120.076 115.144 118.863 110.76 118.722C112.784 114.846 114.804 110.97 116.82 107.094C117.096 106.56 117.45 105.972 118.02 105.852C118.303 105.827 118.588 105.877 118.846 105.999C119.103 106.12 119.323 106.307 119.484 106.542C120.426 107.688 121.038 109.95 121.35 111.402C122.16 115.212 122.856 118.902 123.222 122.256" fill="white"/>
</g>
<path d="M125.262 157.158C125.224 157.284 125.176 157.406 125.118 157.524C124.998 157.788 124.842 158.124 124.644 158.55C124.029 159.795 123.281 160.97 122.412 162.054C121.089 163.647 119.474 164.972 117.654 165.96C117.138 166.224 116.592 166.476 116.028 166.704C115.44 166.939 114.839 167.139 114.228 167.304C113.605 167.466 112.974 167.596 112.338 167.694C111.677 167.782 111.012 167.836 110.346 167.856C109.164 167.892 107.981 167.801 106.818 167.586L106.908 167.292C108.555 167.997 110.043 169.028 111.282 170.322L111.504 170.556H111.18C108.625 170.569 106.086 170.164 103.662 169.356C102.981 169.131 102.312 168.871 101.658 168.576C101.43 168.474 101.256 168.384 101.142 168.33C101.082 168.303 101.025 168.269 100.974 168.228C101.217 168.303 101.456 168.393 101.688 168.498C102.15 168.678 102.834 168.93 103.71 169.2C106.129 169.942 108.65 170.3 111.18 170.262L111.078 170.496C109.86 169.239 108.401 168.241 106.788 167.562L105.45 166.998L106.878 167.268C108.02 167.476 109.18 167.563 110.34 167.526C111 167.526 111.654 167.436 112.29 167.37C112.917 167.278 113.538 167.15 114.15 166.986C114.744 166.835 115.329 166.651 115.902 166.434C116.454 166.212 116.994 165.966 117.504 165.708C119.299 164.747 120.901 163.462 122.226 161.916C123.099 160.855 123.867 159.712 124.518 158.502C124.734 158.094 124.908 157.764 125.04 157.506C125.103 157.383 125.177 157.267 125.262 157.158Z" fill="#263238"/>
<path d="M116.226 194.88C116.281 195.108 116.314 195.341 116.322 195.576C116.364 196.026 116.406 196.68 116.454 197.484C116.544 199.098 116.622 201.324 116.658 203.784C116.694 206.244 116.658 208.47 116.658 210.084C116.658 210.888 116.61 211.542 116.58 211.992C116.582 212.228 116.556 212.464 116.502 212.694C116.459 212.463 116.443 212.227 116.454 211.992C116.454 211.476 116.454 210.834 116.454 210.084C116.454 208.398 116.412 206.208 116.388 203.784C116.364 201.36 116.304 199.176 116.274 197.496C116.274 196.74 116.274 196.104 116.238 195.582C116.207 195.349 116.202 195.114 116.226 194.88Z" fill="#263238"/>
<path d="M93.372 140.262C93.372 140.799 93.2128 141.323 92.9145 141.769C92.6163 142.215 92.1923 142.563 91.6964 142.768C91.2005 142.973 90.6549 143.027 90.1287 142.921C89.6025 142.816 89.1192 142.557 88.7402 142.178C88.3612 141.798 88.1033 141.314 87.9994 140.787C87.8954 140.261 87.95 139.715 88.1562 139.22C88.3623 138.725 88.7109 138.301 89.1577 138.004C89.6044 137.707 90.1294 137.549 90.666 137.55C91.3842 137.552 92.0725 137.838 92.5798 138.346C93.0871 138.855 93.372 139.544 93.372 140.262Z" fill="#263238"/>
<path d="M116.298 136.116C116.299 136.653 116.141 137.178 115.844 137.624C115.547 138.071 115.123 138.42 114.628 138.626C114.133 138.832 113.587 138.887 113.061 138.783C112.534 138.679 112.05 138.421 111.67 138.042C111.291 137.663 111.032 137.18 110.927 136.653C110.821 136.127 110.875 135.581 111.08 135.086C111.285 134.59 111.633 134.166 112.079 133.867C112.525 133.569 113.049 133.41 113.586 133.41C114.304 133.41 114.993 133.695 115.502 134.202C116.01 134.709 116.296 135.398 116.298 136.116Z" fill="#263238"/>
<path d="M111.81 142.362C111.839 142.673 111.819 142.987 111.75 143.292C111.622 144.138 111.335 144.953 110.904 145.692C110.761 145.945 110.581 146.176 110.37 146.376C110.133 146.581 109.868 146.753 109.584 146.886C108.942 147.185 108.21 147.228 107.538 147.006C107.178 146.902 106.838 146.739 106.53 146.526C106.206 146.322 105.895 146.098 105.6 145.854C104.977 145.343 104.415 144.761 103.926 144.12L104.202 144.066L104.154 144.228C103.96 145.002 103.609 145.728 103.123 146.361C102.637 146.993 102.026 147.519 101.328 147.906C100.698 148.231 99.9863 148.362 99.282 148.284C98.6804 148.212 98.1024 148.007 97.59 147.684C96.8643 147.2 96.2689 146.545 95.856 145.776C95.7475 145.57 95.6513 145.358 95.568 145.14C95.514 144.99 95.49 144.906 95.502 144.906C95.514 144.906 95.652 145.206 95.964 145.716C96.3947 146.446 96.9932 147.063 97.71 147.516C98.1947 147.821 98.7426 148.012 99.312 148.074C99.9627 148.135 100.617 148.005 101.196 147.702C101.853 147.326 102.427 146.821 102.883 146.218C103.34 145.615 103.67 144.926 103.854 144.192L103.896 144.036L103.986 143.736L104.172 143.982C104.65 144.599 105.193 145.162 105.792 145.662C106.076 145.9 106.375 146.121 106.686 146.322C106.968 146.525 107.283 146.679 107.616 146.778C108.187 146.966 108.805 146.954 109.369 146.745C109.932 146.536 110.408 146.141 110.718 145.626C111.149 144.917 111.457 144.14 111.63 143.328C111.762 142.692 111.786 142.362 111.81 142.362Z" fill="#263238"/>
<g opacity="0.6">
<path d="M99.9 118.332L96.096 119.052C96.3634 120.637 96.9229 122.159 97.746 123.54C98.034 124.026 98.472 124.554 99.036 124.512C99.2015 124.491 99.3598 124.432 99.4984 124.34C99.637 124.247 99.7519 124.123 99.834 123.978C100 123.688 100.108 123.368 100.152 123.036C100.426 121.469 100.34 119.861 99.9 118.332Z" fill="white"/>
</g>
<path d="M134.958 146.4C134.699 146.377 134.443 146.324 134.196 146.244L132.15 145.734C130.422 145.308 128.022 144.786 125.34 144.354C122.658 143.922 120.216 143.688 118.44 143.556L116.34 143.406C116.08 143.401 115.821 143.373 115.566 143.322C115.822 143.279 116.081 143.265 116.34 143.28C116.838 143.28 117.54 143.28 118.452 143.334C123.102 143.556 127.714 144.288 132.204 145.518C133.068 145.758 133.758 145.962 134.232 146.118C134.483 146.186 134.726 146.281 134.958 146.4Z" fill="#263238"/>
<path d="M137.034 141.492C136.766 141.53 136.494 141.54 136.224 141.522H134.028C132.168 141.522 129.606 141.522 126.774 141.576C123.942 141.63 121.374 141.798 119.526 141.912L117.336 142.05C117.067 142.074 116.795 142.074 116.526 142.05C116.786 141.974 117.054 141.927 117.324 141.912C117.84 141.846 118.584 141.762 119.514 141.672C121.362 141.498 123.93 141.324 126.768 141.246C129.606 141.168 132.168 141.21 134.034 141.288C134.958 141.324 135.714 141.366 136.23 141.408C136.5 141.41 136.769 141.438 137.034 141.492Z" fill="#263238"/>
<path d="M136.8 153.402C136.531 153.289 136.272 153.152 136.026 152.994C135.54 152.706 134.826 152.304 133.95 151.794C131.657 150.528 129.298 149.386 126.882 148.374C124.459 147.387 121.985 146.528 119.472 145.8C118.512 145.518 117.726 145.302 117.18 145.152C116.895 145.091 116.616 145.005 116.346 144.894C116.638 144.913 116.928 144.961 117.21 145.038C117.762 145.146 118.56 145.332 119.532 145.59C124.622 146.947 129.506 148.983 134.052 151.644C134.922 152.154 135.618 152.592 136.08 152.904C136.335 153.048 136.576 153.214 136.8 153.402Z" fill="#263238"/>
<path d="M89.478 149.928C89.2745 150.097 89.0532 150.244 88.818 150.366L87 151.488C85.44 152.43 83.304 153.762 81 155.322C78.696 156.882 76.668 158.376 75.216 159.474L73.464 160.8C73.2622 160.972 73.043 161.123 72.81 161.25C72.9905 161.048 73.1916 160.865 73.41 160.704C73.794 160.368 74.364 159.894 75.072 159.318C76.494 158.172 78.51 156.648 80.82 155.082C83.13 153.516 85.29 152.208 86.88 151.314C87.678 150.864 88.326 150.51 88.782 150.282C89.0026 150.143 89.2356 150.024 89.478 149.928Z" fill="#263238"/>
<path d="M89.052 147.81C88.975 147.869 88.8902 147.918 88.8 147.954L88.05 148.308L85.284 149.562C82.95 150.624 79.728 152.112 76.212 153.822C72.696 155.532 69.534 157.146 67.254 158.322L64.554 159.72L63.816 160.092C63.7316 160.141 63.6407 160.177 63.546 160.2C63.6185 160.136 63.6992 160.081 63.786 160.038L64.494 159.612C65.094 159.252 66.024 158.742 67.152 158.13C69.402 156.9 72.552 155.256 76.074 153.54C79.596 151.824 82.836 150.372 85.194 149.34C86.394 148.83 87.336 148.434 88.002 148.17L88.77 147.87C88.8602 147.835 88.9554 147.815 89.052 147.81Z" fill="#263238"/>
<path d="M85.722 146.916C85.4109 147.038 85.0897 147.132 84.762 147.198C84.162 147.354 83.244 147.588 82.14 147.888C79.932 148.488 76.896 149.406 73.626 150.624C70.356 151.842 67.458 153.144 65.394 154.134C64.362 154.632 63.528 155.046 62.958 155.334C62.6675 155.496 62.3645 155.634 62.052 155.748C62.3212 155.551 62.6062 155.376 62.904 155.226C63.456 154.902 64.272 154.464 65.304 153.936C70.6524 151.228 76.2876 149.129 82.104 147.678C83.22 147.402 84.126 147.198 84.756 147.078C85.074 147.003 85.3968 146.948 85.722 146.916Z" fill="#263238"/>
<path d="M117.912 110.94C117.978 111.134 118.02 111.336 118.038 111.54C118.092 111.954 118.152 112.548 118.188 113.292C118.279 115.256 118.138 117.223 117.768 119.154L117.69 119.568L117.48 119.196C117.348 118.968 117.21 118.716 117.066 118.47L114.924 114.66L115.176 114.624C114.91 115.726 114.755 116.851 114.714 117.984C114.684 118.806 114.714 119.28 114.672 119.286C114.636 119.176 114.615 119.06 114.612 118.944C114.574 118.625 114.554 118.305 114.552 117.984C114.535 116.834 114.656 115.686 114.912 114.564L114.99 114.222L115.164 114.528L117.336 118.314L117.75 119.046L117.462 119.094C117.827 117.184 118 115.242 117.978 113.298C117.96 111.846 117.864 110.946 117.912 110.94Z" fill="#263238"/>
<path d="M78.6 124.326C77.844 123.19 76.9756 122.132 76.008 121.17L76.242 121.086C76.134 122.106 76.008 123.246 75.876 124.464C75.876 124.626 75.84 124.788 75.822 124.938L75.762 125.502L75.528 124.986C74.718 123.186 74.004 121.59 73.506 120.426C73.2111 119.811 72.9604 119.175 72.756 118.524C73.1188 119.098 73.4358 119.7 73.704 120.324C74.25 121.464 74.994 123.06 75.81 124.848L75.516 124.896L75.57 124.416C75.708 123.216 75.846 122.058 75.966 121.044V120.762L76.17 120.96C76.8881 121.659 77.5187 122.443 78.048 123.294C78.2826 123.608 78.4687 123.956 78.6 124.326Z" fill="#263238"/>
<path d="M139.2 58.032C138.034 55.4108 136.09 53.2115 133.632 51.732C131.281 50.1883 128.504 49.4222 125.694 49.542C123.321 49.7057 121.067 50.6446 119.279 52.2144C117.491 53.7841 116.269 55.8977 115.8 58.23C114.139 56.6367 112.013 55.6138 109.732 55.3096C107.45 55.0054 105.131 55.4356 103.11 56.538C100.673 57.941 98.7386 60.0732 97.578 62.634C96.2922 65.1997 95.8271 68.0989 96.246 70.938C96.8334 74.5378 98.5599 77.8542 101.172 80.4C103.938 82.962 107.676 84.6 111.318 85.56C117.438 87.192 125.436 89.13 125.436 89.13C125.436 89.13 129.978 83.13 134.28 78.462C136.842 75.696 139.128 72.318 140.088 68.676C140.942 65.1246 140.63 61.3928 139.2 58.032Z" fill="#FF62BD"/>
<path d="M197.52 82.434C197.964 81.018 197.964 79.5001 197.52 78.084C197.137 76.6695 196.321 75.4105 195.186 74.484C194.573 74.0204 193.873 73.6848 193.128 73.4972C192.383 73.3096 191.607 73.2738 190.848 73.392C189.944 73.5416 189.089 73.908 188.358 74.46C188.288 73.6305 188.033 72.8271 187.614 72.108C187.223 71.4457 186.703 70.8689 186.085 70.4122C185.466 69.9555 184.762 69.6283 184.014 69.45C182.587 69.1615 181.106 69.3273 179.778 69.924C178.401 70.4794 177.228 71.4451 176.418 72.69C175.403 74.2991 174.938 76.194 175.092 78.09C175.364 80.0633 176.107 81.9421 177.258 83.568C179.058 86.298 181.518 89.796 181.518 89.796C181.518 89.796 185.346 89.016 188.61 88.686C190.595 88.5428 192.517 87.9255 194.214 86.886C195.769 85.7989 196.929 84.2367 197.52 82.434Z" fill="#FF62BD"/>
</svg>
