<svg width="35" height="35" viewBox="0 0 35 35" fill="none" xmlns="http://www.w3.org/2000/svg">
<path fill-rule="evenodd" clip-rule="evenodd" d="M26.8561 6.10133L26.4191 7.4775L23.5892 8.64214C21.2972 7.28047 19.0239 7.60744 17.5675 8.52022C16.4792 7.83811 14.9346 7.4831 13.2669 7.91564L11.971 6.14318C11.9299 6.08699 11.8782 6.03945 11.8187 6.00326C11.7593 5.96707 11.6933 5.94295 11.6245 5.93226C11.5557 5.92158 11.4855 5.92455 11.4179 5.941C11.3503 5.95744 11.2866 5.98705 11.2304 6.02813L2.1629 12.6574C2.04949 12.7405 1.97366 12.8651 1.95209 13.004C1.93051 13.1429 1.96496 13.2846 2.04785 13.3981C2.13086 13.5115 2.2555 13.5874 2.39438 13.6089C2.53326 13.6305 2.67503 13.5961 2.78853 13.5132L6.39693 10.875L7.78321 12.7712C7.48607 13.2942 7.19803 13.8653 6.92137 14.4878C5.94302 16.6891 5.99644 18.2105 6.50518 19.2378C7.23237 20.7062 8.94855 21.2488 10.3965 21.3196V21.9059C10.3965 23.371 11.2138 24.645 12.4173 25.2971C12.0667 25.8016 11.7861 26.4379 11.5896 27.2206C10.6691 26.6178 9.56928 26.2672 8.38817 26.2672C5.15762 26.2672 2.53477 28.89 2.53477 32.1206C2.53477 32.4131 2.77225 32.6505 3.06481 32.6505C3.20535 32.6505 3.34011 32.5946 3.43949 32.4952C3.53886 32.3959 3.59472 32.2611 3.59479 32.1206C3.59479 29.475 5.74261 27.3272 8.38817 27.3272C11.0337 27.3272 13.1816 29.475 13.1816 32.1206C13.1816 32.2611 13.2375 32.3959 13.3369 32.4952C13.4362 32.5946 13.571 32.6505 13.7115 32.6505H13.8038C13.9443 32.6505 14.0791 32.5946 14.1784 32.4952C14.2778 32.3959 14.3337 32.2611 14.3337 32.1206C14.3337 30.2095 15.8852 28.658 17.7963 28.658C18.651 28.658 19.4338 28.9685 20.0379 29.4826C19.4418 30.1977 19.0829 31.1175 19.0829 32.1206C19.083 32.2611 19.1388 32.3959 19.2382 32.4952C19.3376 32.5946 19.4724 32.6505 19.6129 32.6505C19.9055 32.6505 20.1429 32.4131 20.1429 32.1206C20.1429 30.4296 21.5157 29.0568 23.2067 29.0568C24.8977 29.0568 26.2706 30.4296 26.2706 32.1206C26.2706 32.2611 26.3265 32.3959 26.4259 32.4952C26.5253 32.5946 26.66 32.6505 26.8006 32.6505H26.8628C27.0034 32.6505 27.1381 32.5946 27.2375 32.4952C27.3369 32.3959 27.3927 32.2611 27.3928 32.1206C27.3928 30.9255 28.3631 29.9552 29.5582 29.9552C30.1989 29.9552 30.775 30.2343 31.1716 30.6772C31.2655 30.7819 31.397 30.845 31.5373 30.8527C31.6777 30.8605 31.8153 30.8122 31.9201 30.7185C32.0247 30.6247 32.0879 30.4932 32.0956 30.3528C32.1033 30.2125 32.0551 30.0748 31.9614 29.9701C31.3706 29.3104 30.5125 28.8952 29.5582 28.8952C28.4575 28.8952 27.4849 29.4477 26.9026 30.2905C26.2988 29.0744 25.1122 28.1978 23.7093 28.0271C23.7085 28.0203 23.7075 28.0136 23.7064 28.0069C23.5201 26.8565 23.1816 25.9663 22.7222 25.3031C23.9318 24.6528 24.7542 23.3754 24.7542 21.9059V21.3188C26.1987 21.2449 27.9053 20.701 28.6299 19.2378C29.1386 18.2105 29.1921 16.6891 28.2137 14.4878C27.633 13.1811 27.002 12.1011 26.3435 11.2177L27.2797 8.26957L28.4661 7.78132C28.3789 8.38552 28.5513 9.01674 28.9895 9.49291C29.7707 10.3418 31.1129 10.3894 31.9852 9.5866C32.8575 8.78378 32.9212 7.44233 32.14 6.59346C31.7264 6.14407 31.1572 5.91924 30.5821 5.92611C30.3476 5.92901 30.1151 5.97025 29.8939 6.04822C29.8288 6.07118 27.6985 6.95102 27.6985 6.95102C27.6985 6.95102 28.4071 4.77082 28.4313 4.70245C28.5093 4.48122 28.5505 4.24869 28.5534 4.01411C28.5602 3.43904 28.3354 2.86983 27.8861 2.45624C27.0372 1.67504 25.6958 1.73877 24.8929 2.6111C24.0901 3.48337 24.1378 4.82552 24.9866 5.60671C25.5045 6.08333 26.2057 6.24545 26.8561 6.10133ZM22.2784 9.18166C20.5511 8.46412 18.9356 8.80279 17.8928 9.58087C17.7088 9.72397 17.4449 9.73288 17.2495 9.58634C16.4315 8.9728 15.2588 8.63018 13.956 8.85819L14.622 9.76913C14.7946 10.0052 14.7431 10.3371 14.5069 10.5097C14.3934 10.5927 14.2517 10.6271 14.1128 10.6055C13.9739 10.584 13.8493 10.5081 13.7663 10.3947L12.8741 9.17441C12.2971 9.41182 11.7075 9.76703 11.1227 10.2629L12.068 11.5558C12.2406 11.792 12.1891 12.1238 11.9529 12.2965C11.7168 12.4691 11.3849 12.4175 11.2123 12.1814L10.3517 11.0044C9.90967 11.4823 9.47471 12.0489 9.0547 12.7142L9.74278 13.6553C9.91539 13.8915 9.86388 14.2233 9.62773 14.3959C9.39159 14.5686 9.05972 14.517 8.88705 14.281L8.47429 13.7163C8.26538 14.1099 8.07049 14.5109 7.89 14.9183C7.09519 16.7066 7.04177 17.9329 7.4551 18.7674C8.00244 19.8726 11.7275 17.1714 11.7275 17.1714C11.9234 16.9541 12.2588 16.9367 12.476 17.1326C12.6933 17.3284 12.7107 17.6638 12.5148 17.8811C12.5148 17.8811 11.4565 19.0638 11.4565 20.7978V21.9059C11.4565 23.4492 12.7076 24.7004 14.2509 24.7004C14.8791 24.7004 15.4889 24.4887 15.982 24.0996C16.4751 23.7105 16.8228 23.1665 16.9688 22.5556C16.9372 22.5271 16.9076 22.4963 16.8804 22.4636L15.9445 21.3405C15.8344 21.2084 15.7642 21.0477 15.7422 20.8771C15.7202 20.7066 15.7473 20.5333 15.8202 20.3776C15.8931 20.2219 16.0089 20.0902 16.154 19.998C16.2991 19.9057 16.4675 19.8567 16.6394 19.8567H18.5113C18.6832 19.8567 18.8516 19.9057 18.9967 19.998C19.1418 20.0902 19.2576 20.2219 19.3305 20.3776C19.4034 20.5333 19.4305 20.7066 19.4085 20.8771C19.3865 21.0477 19.3163 21.2084 19.2062 21.3405L18.2703 22.4636C18.243 22.4963 18.2135 22.527 18.1819 22.5556C18.3279 23.1666 18.6755 23.7105 19.1686 24.0996C19.6617 24.4888 20.2715 24.7004 20.8997 24.7004H20.8998C22.4431 24.7004 23.6942 23.4492 23.6942 21.9059V20.7978C23.6942 18.8234 22.3503 17.9795 22.3503 17.9795C22.1001 17.828 22.02 17.5018 22.1716 17.2516C22.3232 17.0014 22.6493 16.9214 22.8995 17.0729C22.8995 17.0729 27.1353 19.8672 27.68 18.7674C28.0933 17.9329 28.0399 16.7066 27.2451 14.9183C26.8322 13.9892 26.3935 13.1855 25.9383 12.4937L25.2356 14.7066C25.147 14.9853 24.8488 15.1398 24.57 15.0513C24.2912 14.9627 24.1367 14.6645 24.2253 14.3857L25.1615 11.4375C24.6056 10.7643 24.0346 10.2386 23.4647 9.8396L20.8228 10.9269C20.5523 11.0383 20.2423 10.909 20.131 10.6385C20.0197 10.368 20.1489 10.058 20.4194 9.9467L22.2784 9.18166ZM14.7225 14.3561C15.2197 14.3561 15.6235 14.7598 15.6235 15.2571C15.6235 15.7544 15.2197 16.1581 14.7225 16.1581C14.2252 16.1581 13.8214 15.7544 13.8214 15.2571C13.8214 14.7598 14.2252 14.3561 14.7225 14.3561ZM20.1534 14.3561C20.6507 14.3561 21.0544 14.7598 21.0544 15.2571C21.0544 15.7544 20.6507 16.1581 20.1534 16.1581C19.6561 16.1581 19.2524 15.7544 19.2524 15.2571C19.2524 14.7598 19.6561 14.3561 20.1534 14.3561ZM9.70984 10.1264L8.91249 9.03582L7.2526 10.2494L8.38353 11.7962C8.8134 11.153 9.25771 10.5993 9.70984 10.1264ZM25.5394 10.2477L26.0003 8.79611L24.6128 9.36711C24.9242 9.6252 25.2338 9.91782 25.5394 10.2477ZM9.76816 8.41026L10.4884 9.39535C11.0648 8.91282 11.6479 8.54922 12.225 8.28649L11.4281 7.19665L9.76816 8.41026ZM29.7695 8.77513C29.379 8.35079 29.4261 7.68108 29.8622 7.27977C29.9731 7.17724 30.1037 7.09839 30.2461 7.04801C30.3582 7.00845 30.476 6.98752 30.5948 6.98607C30.8769 6.9827 31.1571 7.09082 31.3601 7.31125C31.7506 7.73559 31.7034 8.40529 31.2674 8.80661C30.8313 9.20792 30.16 9.19947 29.7695 8.77513H29.7695ZM25.7044 4.82679C25.2801 4.43629 25.2716 3.76493 25.6729 3.32889C26.0742 2.89285 26.7439 2.84572 27.1682 3.23622C27.3887 3.43911 27.4968 3.71933 27.4935 4.00146C27.492 4.1203 27.4711 4.23809 27.4315 4.35017C27.3811 4.49254 27.3023 4.62315 27.1998 4.73406C26.7985 5.17017 26.1288 5.21729 25.7044 4.82679Z" fill="#FF62BD"/>
</svg>
