<svg width="35" height="37" viewBox="0 0 35 37" fill="none" xmlns="http://www.w3.org/2000/svg">
<g clip-path="url(#clip0_2990_3329)">
<path d="M17.7599 0.624023L0.778809 10.5469L1.78372 12.2727L2.94826 11.5922V29.4659H9.01398V29.0224C9.01398 24.1915 12.9374 20.2613 17.7599 20.2613C22.5825 20.2613 26.5059 24.1915 26.5059 29.0224V29.4659H32.5716V11.5922L33.7362 12.2727L34.7411 10.5469L17.7599 0.624023ZM25.197 16.1645C25.1019 17.6998 23.8743 18.9295 22.3416 19.0248C22.2764 19.0288 22.2112 19.0308 22.1465 19.0308C21.0484 19.0308 20.0452 18.4518 19.4951 17.4873C19.3132 17.1682 18.9541 16.97 18.5581 16.97H16.9617C16.5657 16.97 16.2067 17.1682 16.0246 17.4873C15.4422 18.5086 14.3519 19.0975 13.1782 19.0247C11.6454 18.9295 10.4179 17.6998 10.3229 16.1643C10.2709 15.326 10.5514 14.5274 11.1134 13.9103C10.5514 13.2932 10.2709 12.4946 10.3229 11.6561C10.4179 10.1208 11.6455 8.89107 13.1782 8.79577C14.351 8.72231 15.4422 9.31191 16.0246 10.3331C16.2066 10.6523 16.5657 10.8505 16.9617 10.8505H18.5581C18.9541 10.8505 19.3131 10.6523 19.4951 10.3332C20.0776 9.31191 21.168 8.72251 22.3416 8.79577C23.8743 8.89107 25.1019 10.1208 25.1969 11.6561C25.2489 12.4945 24.9684 13.2931 24.4063 13.9102C24.9685 14.5274 25.249 15.326 25.197 16.1645Z" fill="#FF62BD"/>
<path d="M22.1487 14.9086V12.9106C22.4443 12.9106 22.7187 12.7916 22.9213 12.5757C23.1236 12.3601 23.2249 12.0772 23.2065 11.7793C23.1741 11.2566 22.7399 10.8218 22.2182 10.7893C21.8095 10.7636 21.4296 10.9685 21.2271 11.3237C20.691 12.2638 19.6683 12.8478 18.5583 12.8478H16.9618C15.8518 12.8478 14.8291 12.2638 14.2929 11.3237C14.0904 10.9686 13.7109 10.764 13.3019 10.7893C12.7801 10.8218 12.346 11.2567 12.3136 11.7793C12.2952 12.0773 12.3965 12.3601 12.5988 12.5757C12.8014 12.7917 13.0758 12.9106 13.3714 12.9106V14.9086C13.0757 14.9086 12.8014 15.0275 12.5987 15.2435C12.3964 15.4591 12.2952 15.7419 12.3136 16.0399C12.346 16.5626 12.7802 16.9975 13.3019 17.0299C13.7122 17.0549 14.0905 16.8505 14.2929 16.4955C14.8291 15.5554 15.8517 14.9713 16.9618 14.9713H18.5583C19.6683 14.9713 20.6909 15.5554 21.2271 16.4955C21.4297 16.8505 21.8102 17.0559 22.2182 17.0299C22.74 16.9975 23.1741 16.5626 23.2065 16.04C23.2249 15.7419 23.1237 15.4591 22.9214 15.2435C22.7187 15.0275 22.4443 14.9086 22.1487 14.9086ZM17.76 22.2585C14.0373 22.2585 11.0086 25.2924 11.0086 29.0216V34.5856H24.5115V29.0216C24.5115 25.2924 21.4828 22.2585 17.76 22.2585ZM2.94836 31.4631H9.01408V34.5856H2.94836V31.4631ZM26.506 31.4631H32.5717V34.5856H26.506V31.4631Z" fill="#FF62BD"/>
</g>
<defs>
<clipPath id="clip0_2990_3329">
<rect width="33.9623" height="36.7925" fill="white" transform="translate(0.778809 0.208008)"/>
</clipPath>
</defs>
</svg>
