<svg width="30" height="31" viewBox="0 0 30 31" fill="none" xmlns="http://www.w3.org/2000/svg">
<g clip-path="url(#clip0_2309_1440)">
<mask id="path-1-inside-1_2309_1440" fill="white">
<path d="M20.3789 8.22586C20.4355 8.26642 20.4355 8.26642 20.4931 8.3078C21.1728 8.84149 21.3848 9.66008 21.5576 10.4685C21.5743 10.545 21.5911 10.6215 21.6079 10.698C21.6531 10.9041 21.6976 11.1103 21.7419 11.3165C21.7791 11.4897 21.8167 11.6627 21.8542 11.8358C21.9429 12.2448 22.0309 12.6538 22.1187 13.063C22.2087 13.4828 22.2998 13.9023 22.3915 14.3217C22.4706 14.6838 22.5489 15.046 22.6266 15.4084C22.6729 15.6239 22.7194 15.8394 22.7667 16.0547C23.2502 18.2594 23.2502 18.2594 22.8483 19.2277C22.7494 19.4691 22.6524 19.7111 22.5563 19.9536C22.3795 20.3989 22.1997 20.8429 22.0195 21.2869C21.9333 21.4994 21.8473 21.712 21.7614 21.9246C21.5938 22.3389 21.4259 22.7531 21.2578 23.1673C21.3057 23.167 21.3536 23.1667 21.4029 23.1665C21.8563 23.1641 22.3097 23.1623 22.763 23.1612C22.9961 23.1606 23.2291 23.1598 23.4621 23.1584C23.6874 23.1571 23.9127 23.1565 24.138 23.1562C24.2235 23.1559 24.3091 23.1555 24.3946 23.1549C25.2082 23.1491 25.9012 23.1946 26.5203 23.7715C26.9539 24.2323 27.0286 24.7306 27.016 25.3451C26.9782 25.8749 26.7452 26.2701 26.3555 26.6243C25.7591 27.0699 25.174 27.1019 24.4518 27.1016C24.3858 27.1018 24.3198 27.102 24.2518 27.1022C24.0346 27.1027 23.8174 27.1028 23.6002 27.1029C23.4486 27.1031 23.2969 27.1033 23.1453 27.1035C22.8278 27.1038 22.5104 27.1039 22.1929 27.1039C21.8271 27.1039 21.4614 27.1045 21.0957 27.1054C20.7424 27.1063 20.389 27.1065 20.0357 27.1065C19.8861 27.1065 19.7364 27.1068 19.5868 27.1072C19.3772 27.1078 19.1676 27.1076 18.9579 27.1073C18.8967 27.1076 18.8354 27.1079 18.7723 27.1083C18.0903 27.1054 17.4289 27.0008 16.9219 26.5071C16.5645 26.0631 16.3448 25.5576 16.3718 24.9795C16.4672 24.2612 16.8374 23.5452 17.116 22.8816C17.1726 22.7461 17.2292 22.6105 17.2856 22.4748C17.3204 22.3914 17.3553 22.308 17.3903 22.2246C17.4724 22.0569 17.4724 22.0569 17.5078 21.8782C17.2168 21.9603 16.9258 22.0427 16.6349 22.1253C16.5358 22.1534 16.4367 22.1814 16.3377 22.2094C16.1955 22.2495 16.0534 22.2898 15.9114 22.3302C15.8668 22.3428 15.8223 22.3553 15.7764 22.3682C15.5708 22.4138 15.5708 22.4138 15.3985 22.5227C15.4173 22.6611 15.4401 22.7963 15.4662 22.9333C15.4741 22.9763 15.482 23.0193 15.4901 23.0636C15.5074 23.1573 15.5248 23.2511 15.5424 23.3448C15.5703 23.4936 15.5977 23.6424 15.6251 23.7913C15.6835 24.1083 15.7424 24.4251 15.8013 24.742C15.8692 25.1072 15.9368 25.4725 16.0041 25.8378C16.031 25.9836 16.0583 26.1293 16.0856 26.2751C16.3958 27.947 16.3958 27.947 15.961 28.6652C15.6565 29.0776 15.2589 29.3853 14.7539 29.4954C14.0738 29.5659 13.5485 29.4847 13.0108 29.0559C12.3504 28.4005 12.275 27.5138 12.1216 26.6378C12.096 26.4966 12.0704 26.3554 12.0447 26.2142C11.9775 25.8443 11.9117 25.4743 11.8462 25.1041C11.7793 24.7274 11.711 24.3509 11.6428 23.9744C11.5436 23.4244 11.4447 22.8744 11.3469 22.3241C11.3367 22.267 11.3266 22.2098 11.3161 22.151C11.1748 21.3529 11.0682 20.6803 11.513 19.9593C12.0069 19.2711 12.8115 19.0998 13.588 18.8835C13.666 18.8615 13.744 18.8396 13.8219 18.8175C14.0251 18.7602 14.2284 18.7033 14.4317 18.6465C14.6399 18.5882 14.8481 18.5295 15.0563 18.4708C15.4632 18.3563 15.8702 18.2421 16.2774 18.1282C16.2035 17.7726 16.1294 17.417 16.0553 17.0614C16.0301 16.9404 16.0049 16.8194 15.9797 16.6984C15.9436 16.5246 15.9074 16.3508 15.8711 16.177C15.8542 16.0957 15.8542 16.0957 15.8371 16.0127C15.8212 15.9371 15.8212 15.9371 15.8051 15.8599C15.7958 15.8155 15.7866 15.7712 15.7771 15.7255C15.7494 15.5975 15.7494 15.5975 15.6914 15.4329C15.6603 15.4735 15.6603 15.4735 15.6285 15.5148C14.4841 16.9169 12.5392 17.5667 10.7963 17.7579C10.4765 17.7838 10.1565 17.7936 9.83571 17.7986C9.7795 17.8001 9.7233 17.8017 9.66539 17.8033C9.31777 17.8041 9.08267 17.7443 8.77238 17.5902C8.61403 17.5226 8.52784 17.544 8.3672 17.6009C8.29265 17.6152 8.2181 17.6296 8.1413 17.6444C7.76111 17.7357 7.42355 17.8366 7.20036 18.176C7.0698 18.4114 6.96267 18.6569 6.85684 18.9042C6.73225 19.185 6.58517 19.4538 6.44093 19.7249C6.38131 19.839 6.32181 19.9531 6.26241 20.0673C6.23268 20.1243 6.20296 20.1813 6.17234 20.2401C6.14254 20.2973 6.11275 20.3545 6.08205 20.4134C5.72917 21.0905 5.37606 21.7675 5.01973 22.4428C4.87809 22.7116 4.73745 22.9809 4.59752 23.2506C4.56375 23.3157 4.52998 23.3807 4.49519 23.4478C4.42941 23.5747 4.36368 23.7016 4.29804 23.8286C4.26764 23.8873 4.23723 23.9459 4.2059 24.0063C4.17925 24.0579 4.15261 24.1094 4.12515 24.1625C4.03127 24.3391 4.03126 24.3391 3.95527 24.4516C3.70828 24.836 3.70741 25.1484 3.73532 25.5962C3.73834 25.6651 3.74135 25.7341 3.74446 25.8052C3.75436 26.0246 3.76641 26.2439 3.77858 26.4632C3.78922 26.6816 3.79942 26.9001 3.80956 27.1186C3.81602 27.2541 3.82284 27.3896 3.8301 27.525C3.90452 28.9439 3.90452 28.9439 3.53322 29.3709C3.31955 29.535 3.10358 29.5364 2.84154 29.5242C2.60364 29.4808 2.43514 29.3816 2.27345 29.2024C2.01715 28.7583 2.08317 28.1405 2.06471 27.6424C2.06092 27.5457 2.06092 27.5457 2.05704 27.4471C2.0509 27.29 2.04491 27.133 2.03908 26.9759C2.02966 27.0358 2.02023 27.0958 2.01052 27.1576C1.97509 27.3817 1.93858 27.6056 1.90175 27.8295C1.88601 27.9261 1.87055 28.0228 1.8554 28.1195C1.83347 28.2591 1.81049 28.3986 1.78731 28.538C1.77759 28.6021 1.77759 28.6021 1.76767 28.6675C1.71631 28.9676 1.62463 29.1837 1.45314 29.4368C1.17731 29.5981 0.950044 29.6522 0.632828 29.6126C0.37528 29.5078 0.220953 29.4119 0.0761871 29.1731C-0.150879 28.6215 0.0914261 27.8733 0.180786 27.3045C0.193861 27.2202 0.206913 27.1358 0.219944 27.0514C0.253924 26.8317 0.288196 26.6121 0.322532 26.3925C0.35767 26.1675 0.392525 25.9424 0.427406 25.7172C0.495608 25.2774 0.564117 24.8375 0.632828 24.3977C0.587688 24.3803 0.542549 24.3628 0.496042 24.3448C0.271841 24.2526 0.0722327 24.1229 -0.133926 23.996C-0.60068 23.8127 -1.13066 24.1452 -1.56226 24.3252C-2.34407 24.6428 -2.34407 24.6428 -2.72899 24.5003C-2.8828 24.3977 -2.8828 24.3977 -2.99998 24.222C-3.02173 24.0869 -3.02173 24.0869 -3.02562 23.9363C-3.02796 23.8869 -3.0303 23.8375 -3.03271 23.7866C-2.98535 23.5687 -2.87388 23.4878 -2.70702 23.3431C-2.52893 23.2657 -2.52893 23.2657 -2.33142 23.206C-1.36338 22.9058 -1.36338 22.9058 -0.67918 22.2016C-0.572392 21.9791 -0.474471 21.7542 -0.38129 21.5257C-0.249089 21.224 -0.0757205 20.9474 0.0944977 20.666C0.477712 20.0169 0.843978 19.3591 1.20824 18.6993C1.25733 18.611 1.25733 18.611 1.30741 18.521C1.35933 18.4266 1.41028 18.3316 1.45913 18.2356C1.59295 17.9781 1.74399 17.8451 1.98415 17.6851C2.05792 17.6348 2.13162 17.5843 2.20525 17.5338C2.24465 17.507 2.28406 17.4802 2.32467 17.4526C2.54939 17.2972 2.76812 17.1337 2.98756 16.971C3.08201 16.9012 3.17646 16.8315 3.27092 16.7618C3.41905 16.6523 3.56716 16.5427 3.71524 16.4332C3.8168 16.358 3.91839 16.2829 4.02001 16.2078C4.11527 16.1374 4.21048 16.067 4.30562 15.9965C4.39065 15.9337 4.47592 15.8712 4.5615 15.8091C4.63352 15.7567 4.70487 15.7033 4.77522 15.6486C4.9131 15.5459 4.99241 15.4885 5.16728 15.5035C5.3396 15.556 5.445 15.6275 5.58766 15.7368C6.13541 16.1533 6.13541 16.1533 6.78331 16.3093C7.11357 16.2426 7.4116 16.112 7.71164 15.9615C7.83303 15.9048 7.94696 15.8677 8.07652 15.8348C8.1624 15.8099 8.1624 15.8099 8.25002 15.7845C8.29145 15.6878 8.33003 15.5899 8.3672 15.4915C8.6849 15.1617 8.95512 14.9614 9.41708 14.9245C9.48526 14.9185 9.55345 14.9125 9.62369 14.9063C9.69607 14.9 9.76846 14.8937 9.84303 14.8872C11.3517 14.7376 12.6994 14.2457 13.7021 13.0575C14.2818 12.3307 14.6082 11.4675 14.7546 10.5574C14.9117 9.59568 15.2679 8.86832 16.065 8.26248C17.3794 7.37261 19.0565 7.26902 20.3789 8.22586Z"/>
</mask>
<path d="M20.3789 8.22586C20.4355 8.26642 20.4355 8.26642 20.4931 8.3078C21.1728 8.84149 21.3848 9.66008 21.5576 10.4685C21.5743 10.545 21.5911 10.6215 21.6079 10.698C21.6531 10.9041 21.6976 11.1103 21.7419 11.3165C21.7791 11.4897 21.8167 11.6627 21.8542 11.8358C21.9429 12.2448 22.0309 12.6538 22.1187 13.063C22.2087 13.4828 22.2998 13.9023 22.3915 14.3217C22.4706 14.6838 22.5489 15.046 22.6266 15.4084C22.6729 15.6239 22.7194 15.8394 22.7667 16.0547C23.2502 18.2594 23.2502 18.2594 22.8483 19.2277C22.7494 19.4691 22.6524 19.7111 22.5563 19.9536C22.3795 20.3989 22.1997 20.8429 22.0195 21.2869C21.9333 21.4994 21.8473 21.712 21.7614 21.9246C21.5938 22.3389 21.4259 22.7531 21.2578 23.1673C21.3057 23.167 21.3536 23.1667 21.4029 23.1665C21.8563 23.1641 22.3097 23.1623 22.763 23.1612C22.9961 23.1606 23.2291 23.1598 23.4621 23.1584C23.6874 23.1571 23.9127 23.1565 24.138 23.1562C24.2235 23.1559 24.3091 23.1555 24.3946 23.1549C25.2082 23.1491 25.9012 23.1946 26.5203 23.7715C26.9539 24.2323 27.0286 24.7306 27.016 25.3451C26.9782 25.8749 26.7452 26.2701 26.3555 26.6243C25.7591 27.0699 25.174 27.1019 24.4518 27.1016C24.3858 27.1018 24.3198 27.102 24.2518 27.1022C24.0346 27.1027 23.8174 27.1028 23.6002 27.1029C23.4486 27.1031 23.2969 27.1033 23.1453 27.1035C22.8278 27.1038 22.5104 27.1039 22.1929 27.1039C21.8271 27.1039 21.4614 27.1045 21.0957 27.1054C20.7424 27.1063 20.389 27.1065 20.0357 27.1065C19.8861 27.1065 19.7364 27.1068 19.5868 27.1072C19.3772 27.1078 19.1676 27.1076 18.9579 27.1073C18.8967 27.1076 18.8354 27.1079 18.7723 27.1083C18.0903 27.1054 17.4289 27.0008 16.9219 26.5071C16.5645 26.0631 16.3448 25.5576 16.3718 24.9795C16.4672 24.2612 16.8374 23.5452 17.116 22.8816C17.1726 22.7461 17.2292 22.6105 17.2856 22.4748C17.3204 22.3914 17.3553 22.308 17.3903 22.2246C17.4724 22.0569 17.4724 22.0569 17.5078 21.8782C17.2168 21.9603 16.9258 22.0427 16.6349 22.1253C16.5358 22.1534 16.4367 22.1814 16.3377 22.2094C16.1955 22.2495 16.0534 22.2898 15.9114 22.3302C15.8668 22.3428 15.8223 22.3553 15.7764 22.3682C15.5708 22.4138 15.5708 22.4138 15.3985 22.5227C15.4173 22.6611 15.4401 22.7963 15.4662 22.9333C15.4741 22.9763 15.482 23.0193 15.4901 23.0636C15.5074 23.1573 15.5248 23.2511 15.5424 23.3448C15.5703 23.4936 15.5977 23.6424 15.6251 23.7913C15.6835 24.1083 15.7424 24.4251 15.8013 24.742C15.8692 25.1072 15.9368 25.4725 16.0041 25.8378C16.031 25.9836 16.0583 26.1293 16.0856 26.2751C16.3958 27.947 16.3958 27.947 15.961 28.6652C15.6565 29.0776 15.2589 29.3853 14.7539 29.4954C14.0738 29.5659 13.5485 29.4847 13.0108 29.0559C12.3504 28.4005 12.275 27.5138 12.1216 26.6378C12.096 26.4966 12.0704 26.3554 12.0447 26.2142C11.9775 25.8443 11.9117 25.4743 11.8462 25.1041C11.7793 24.7274 11.711 24.3509 11.6428 23.9744C11.5436 23.4244 11.4447 22.8744 11.3469 22.3241C11.3367 22.267 11.3266 22.2098 11.3161 22.151C11.1748 21.3529 11.0682 20.6803 11.513 19.9593C12.0069 19.2711 12.8115 19.0998 13.588 18.8835C13.666 18.8615 13.744 18.8396 13.8219 18.8175C14.0251 18.7602 14.2284 18.7033 14.4317 18.6465C14.6399 18.5882 14.8481 18.5295 15.0563 18.4708C15.4632 18.3563 15.8702 18.2421 16.2774 18.1282C16.2035 17.7726 16.1294 17.417 16.0553 17.0614C16.0301 16.9404 16.0049 16.8194 15.9797 16.6984C15.9436 16.5246 15.9074 16.3508 15.8711 16.177C15.8542 16.0957 15.8542 16.0957 15.8371 16.0127C15.8212 15.9371 15.8212 15.9371 15.8051 15.8599C15.7958 15.8155 15.7866 15.7712 15.7771 15.7255C15.7494 15.5975 15.7494 15.5975 15.6914 15.4329C15.6603 15.4735 15.6603 15.4735 15.6285 15.5148C14.4841 16.9169 12.5392 17.5667 10.7963 17.7579C10.4765 17.7838 10.1565 17.7936 9.83571 17.7986C9.7795 17.8001 9.7233 17.8017 9.66539 17.8033C9.31777 17.8041 9.08267 17.7443 8.77238 17.5902C8.61403 17.5226 8.52784 17.544 8.3672 17.6009C8.29265 17.6152 8.2181 17.6296 8.1413 17.6444C7.76111 17.7357 7.42355 17.8366 7.20036 18.176C7.0698 18.4114 6.96267 18.6569 6.85684 18.9042C6.73225 19.185 6.58517 19.4538 6.44093 19.7249C6.38131 19.839 6.32181 19.9531 6.26241 20.0673C6.23268 20.1243 6.20296 20.1813 6.17234 20.2401C6.14254 20.2973 6.11275 20.3545 6.08205 20.4134C5.72917 21.0905 5.37606 21.7675 5.01973 22.4428C4.87809 22.7116 4.73745 22.9809 4.59752 23.2506C4.56375 23.3157 4.52998 23.3807 4.49519 23.4478C4.42941 23.5747 4.36368 23.7016 4.29804 23.8286C4.26764 23.8873 4.23723 23.9459 4.2059 24.0063C4.17925 24.0579 4.15261 24.1094 4.12515 24.1625C4.03127 24.3391 4.03126 24.3391 3.95527 24.4516C3.70828 24.836 3.70741 25.1484 3.73532 25.5962C3.73834 25.6651 3.74135 25.7341 3.74446 25.8052C3.75436 26.0246 3.76641 26.2439 3.77858 26.4632C3.78922 26.6816 3.79942 26.9001 3.80956 27.1186C3.81602 27.2541 3.82284 27.3896 3.8301 27.525C3.90452 28.9439 3.90452 28.9439 3.53322 29.3709C3.31955 29.535 3.10358 29.5364 2.84154 29.5242C2.60364 29.4808 2.43514 29.3816 2.27345 29.2024C2.01715 28.7583 2.08317 28.1405 2.06471 27.6424C2.06092 27.5457 2.06092 27.5457 2.05704 27.4471C2.0509 27.29 2.04491 27.133 2.03908 26.9759C2.02966 27.0358 2.02023 27.0958 2.01052 27.1576C1.97509 27.3817 1.93858 27.6056 1.90175 27.8295C1.88601 27.9261 1.87055 28.0228 1.8554 28.1195C1.83347 28.2591 1.81049 28.3986 1.78731 28.538C1.77759 28.6021 1.77759 28.6021 1.76767 28.6675C1.71631 28.9676 1.62463 29.1837 1.45314 29.4368C1.17731 29.5981 0.950044 29.6522 0.632828 29.6126C0.37528 29.5078 0.220953 29.4119 0.0761871 29.1731C-0.150879 28.6215 0.0914261 27.8733 0.180786 27.3045C0.193861 27.2202 0.206913 27.1358 0.219944 27.0514C0.253924 26.8317 0.288196 26.6121 0.322532 26.3925C0.35767 26.1675 0.392525 25.9424 0.427406 25.7172C0.495608 25.2774 0.564117 24.8375 0.632828 24.3977C0.587688 24.3803 0.542549 24.3628 0.496042 24.3448C0.271841 24.2526 0.0722327 24.1229 -0.133926 23.996C-0.60068 23.8127 -1.13066 24.1452 -1.56226 24.3252C-2.34407 24.6428 -2.34407 24.6428 -2.72899 24.5003C-2.8828 24.3977 -2.8828 24.3977 -2.99998 24.222C-3.02173 24.0869 -3.02173 24.0869 -3.02562 23.9363C-3.02796 23.8869 -3.0303 23.8375 -3.03271 23.7866C-2.98535 23.5687 -2.87388 23.4878 -2.70702 23.3431C-2.52893 23.2657 -2.52893 23.2657 -2.33142 23.206C-1.36338 22.9058 -1.36338 22.9058 -0.67918 22.2016C-0.572392 21.9791 -0.474471 21.7542 -0.38129 21.5257C-0.249089 21.224 -0.0757205 20.9474 0.0944977 20.666C0.477712 20.0169 0.843978 19.3591 1.20824 18.6993C1.25733 18.611 1.25733 18.611 1.30741 18.521C1.35933 18.4266 1.41028 18.3316 1.45913 18.2356C1.59295 17.9781 1.74399 17.8451 1.98415 17.6851C2.05792 17.6348 2.13162 17.5843 2.20525 17.5338C2.24465 17.507 2.28406 17.4802 2.32467 17.4526C2.54939 17.2972 2.76812 17.1337 2.98756 16.971C3.08201 16.9012 3.17646 16.8315 3.27092 16.7618C3.41905 16.6523 3.56716 16.5427 3.71524 16.4332C3.8168 16.358 3.91839 16.2829 4.02001 16.2078C4.11527 16.1374 4.21048 16.067 4.30562 15.9965C4.39065 15.9337 4.47592 15.8712 4.5615 15.8091C4.63352 15.7567 4.70487 15.7033 4.77522 15.6486C4.9131 15.5459 4.99241 15.4885 5.16728 15.5035C5.3396 15.556 5.445 15.6275 5.58766 15.7368C6.13541 16.1533 6.13541 16.1533 6.78331 16.3093C7.11357 16.2426 7.4116 16.112 7.71164 15.9615C7.83303 15.9048 7.94696 15.8677 8.07652 15.8348C8.1624 15.8099 8.1624 15.8099 8.25002 15.7845C8.29145 15.6878 8.33003 15.5899 8.3672 15.4915C8.6849 15.1617 8.95512 14.9614 9.41708 14.9245C9.48526 14.9185 9.55345 14.9125 9.62369 14.9063C9.69607 14.9 9.76846 14.8937 9.84303 14.8872C11.3517 14.7376 12.6994 14.2457 13.7021 13.0575C14.2818 12.3307 14.6082 11.4675 14.7546 10.5574C14.9117 9.59568 15.2679 8.86832 16.065 8.26248C17.3794 7.37261 19.0565 7.26902 20.3789 8.22586Z" stroke="#B54686" stroke-width="2" mask="url(#path-1-inside-1_2309_1440)"/>
<path d="M15.2038 1.10254C16.0686 0.867101 17.0939 1.10151 17.8239 1.64844C17.9542 1.7633 18.0788 1.88308 18.2038 2.01172L18.2145 2.02246C18.2474 2.0543 18.2805 2.08655 18.3141 2.11914H18.3151C18.8443 2.66701 19.0871 3.45512 19.0837 4.27246C19.0522 5.13145 18.7086 5.92248 18.0944 6.51562C17.3852 7.114 16.5586 7.3833 15.6306 7.3291C14.9406 7.26179 14.3818 7.00536 13.863 6.55371L13.6423 6.34863L13.6364 6.34277L13.5231 6.2334C12.9986 5.67927 12.7643 4.89811 12.7722 4.08008C12.8046 3.1694 13.1811 2.43536 13.8581 1.80078C14.1289 1.56608 14.4073 1.40136 14.7341 1.26855L15.0807 1.14355L15.2038 1.10254Z" stroke="#B54686"/>
<path d="M4.30322 11.2162C4.48139 11.143 4.63895 11.1297 4.81201 11.1996C4.95065 11.3284 5.04517 11.4765 5.1167 11.6693C5.156 12.2913 5.02638 12.7581 4.64893 13.2299C4.49149 13.398 4.32822 13.5608 4.15771 13.7211L3.92334 13.9408L4.02588 14.2445L4.08838 14.4291L4.16846 14.6693L4.16943 14.6703C4.18286 14.7101 4.19564 14.7504 4.20947 14.7914V14.7904C4.23343 14.8619 4.25559 14.9318 4.27686 15.0004C3.90728 15.2738 3.69597 15.4312 3.53174 15.5511L2.93896 15.976L2.35303 16.3978L2.21143 16.5013C2.12037 16.5677 2.02888 16.6338 1.93799 16.7006C1.82545 16.7824 1.71209 16.8578 1.59814 16.931C1.5508 16.8616 1.50221 16.793 1.45557 16.723L1.06689 16.1224V16.1215L0.648926 15.4623C0.425854 15.1157 0.28293 14.9106 0.0366211 14.5804L-0.434082 13.9584L-0.437012 13.9554L-0.552246 13.8051L-0.557129 13.7992L-0.562988 13.7924L-0.663574 13.6771C-0.764976 13.567 -0.868538 13.4712 -0.981934 13.3773H-0.98291C-1.22662 13.1686 -1.3148 13.0695 -1.34424 12.9525C-1.341 12.9321 -1.33971 12.9187 -1.3374 12.9105C-1.33488 12.9017 -1.33301 12.8986 -1.33252 12.8978C-1.33099 12.8953 -1.32388 12.8844 -1.30029 12.8588C-1.28367 12.8407 -1.26403 12.8202 -1.23779 12.7943C-1.12237 12.7353 -1.00169 12.7216 -0.799316 12.7533C-0.724876 12.7857 -0.650292 12.8201 -0.575684 12.8588L-0.29834 13.0121C-0.142716 13.1035 -0.11909 13.1141 0.0922852 13.2006L0.257324 13.2679L0.428223 13.2152C0.680136 13.1376 0.900412 13.0151 1.0708 12.9232C1.2959 12.8095 1.52973 12.7391 1.80225 12.6722L2.08936 12.6049L2.09912 12.6029C2.56226 12.4879 2.89283 12.3108 3.24756 12.0004L3.24658 11.9994L3.41846 11.8549L3.42334 11.851C3.5043 11.7803 3.50491 11.7804 3.5874 11.7084L3.58643 11.7074C3.8514 11.4818 4.08112 11.3074 4.30322 11.2162Z" stroke="#B54686"/>
</g>
<defs>
<clipPath id="clip0_2309_1440">
<rect width="30" height="30" fill="white" transform="translate(0 0.0812988)"/>
</clipPath>
</defs>
</svg>
