<svg width="35" height="34" viewBox="0 0 35 34" fill="none" xmlns="http://www.w3.org/2000/svg">
<g clip-path="url(#clip0_2990_695)">
<path d="M34.8369 8.46599C34.8362 8.44496 34.8356 8.4242 34.8336 8.40297C34.8323 8.38692 34.8297 8.37087 34.8276 8.35482C34.8253 8.33903 34.8232 8.32318 34.8203 8.30739C34.8162 8.28667 34.8114 8.2661 34.8059 8.2457C34.8037 8.23688 34.8025 8.22839 34.7999 8.21956L33.4004 3.3213C32.8742 1.48004 30.9622 0.0378418 29.0474 0.0378418H6.66687C4.75205 0.0378418 2.84002 1.48004 2.3138 3.3213L0.914317 8.21956C0.91173 8.22839 0.910469 8.23714 0.908082 8.2457C0.902908 8.2662 0.897734 8.28643 0.893886 8.30712C0.890769 8.32344 0.888646 8.33949 0.88659 8.35555C0.884533 8.37113 0.881946 8.38692 0.880355 8.40271C0.878564 8.42427 0.877768 8.44549 0.877303 8.46672C0.877038 8.47554 0.875977 8.4841 0.875977 8.49292V11.6901C0.875977 13.2531 1.73624 14.618 3.00771 15.3389V29.275C3.00771 31.2927 4.64917 32.9344 6.66687 32.9344H29.0473C31.065 32.9344 32.7068 31.2927 32.7068 29.275V15.3389C33.978 14.6177 34.8382 13.2531 34.8382 11.6901V8.49285C34.8382 8.48383 34.8372 8.47501 34.8369 8.46599ZM4.2273 3.86802C4.50742 2.88782 5.64728 2.02782 6.66687 2.02782H29.0473C30.0667 2.02782 31.2068 2.88782 31.4869 3.86802L32.5241 7.49793H3.19012L4.2273 3.86802ZM22.0493 11.6901V9.48784H26.4537V11.6901C26.4537 12.9046 25.4657 13.8925 24.2515 13.8925C23.0373 13.8925 22.0493 12.9046 22.0493 11.6901ZM15.655 9.48784H20.0594V11.6901C20.0594 12.9046 19.0714 13.8925 17.8572 13.8925C16.6427 13.8925 15.6549 12.9046 15.6549 11.6901L15.655 9.48784ZM9.26034 9.48784H13.665V11.6901C13.665 12.9046 12.677 13.8925 11.4628 13.8925C10.2484 13.8925 9.26061 12.9046 9.26061 11.6901V9.48784H9.26034ZM2.86602 9.48784H7.27037V11.6901C7.27037 12.9046 6.28268 13.8925 5.06819 13.8925C3.85404 13.8925 2.86602 12.9046 2.86602 11.6901V9.48784ZM4.99775 29.275V15.8807C5.02103 15.881 5.04465 15.8825 5.06819 15.8825C6.34848 15.8825 7.49583 15.3049 8.26542 14.3975C9.03521 15.3049 10.1823 15.8825 11.4626 15.8825C12.7428 15.8825 13.8902 15.3049 14.66 14.3975C15.4295 15.3049 16.5769 15.8825 17.8572 15.8825C19.1375 15.8825 20.2848 15.3049 21.0544 14.3975C21.3553 14.7524 21.7127 15.0552 22.1123 15.2935V30.9444H6.66687C5.74651 30.9444 4.99775 30.1955 4.99775 29.275ZM29.0474 30.9444H24.1023V24.3173H30.7169V29.275C30.7169 30.1956 29.968 30.9444 29.0474 30.9444ZM30.7169 22.3274H24.1023V15.8787C24.152 15.8805 24.2016 15.8826 24.2515 15.8826C25.5318 15.8826 26.6791 15.305 27.4487 14.3976C28.2183 15.305 29.3656 15.8826 30.6462 15.8826C30.6697 15.8826 30.6933 15.881 30.7169 15.8808V22.3274ZM32.8483 11.6901C32.8483 12.9046 31.8602 13.8925 30.646 13.8925C29.4316 13.8925 28.4439 12.9046 28.4439 11.6901V9.48784H32.8483V11.6901Z" fill="#FF62BD"/>
<path d="M13.5548 21.5692C11.0325 21.5692 8.98059 23.6211 8.98059 26.1433C8.98013 26.6071 9.11534 27.061 9.36957 27.4489C9.81267 28.126 10.5594 28.5299 11.3673 28.5299C11.9342 28.5299 12.383 28.397 12.7437 28.2903C13.0411 28.2022 13.2764 28.1325 13.5548 28.1325C13.833 28.1325 14.068 28.2021 14.3655 28.2903C14.7262 28.3971 15.1749 28.5299 15.7419 28.5299C16.5501 28.5299 17.2968 28.1257 17.7396 27.4489C17.9939 27.061 18.1292 26.6072 18.1288 26.1433C18.1288 23.6211 16.0766 21.5692 13.5548 21.5692ZM16.0746 26.3591C16.0386 26.4146 15.9893 26.4602 15.9312 26.4918C15.8731 26.5234 15.808 26.5399 15.7419 26.54C15.4636 26.54 15.2286 26.4703 14.9309 26.3822C14.5702 26.2754 14.1214 26.1422 13.5548 26.1422C12.9878 26.1422 12.5387 26.2754 12.1784 26.3822C11.8806 26.4703 11.6456 26.54 11.3673 26.54C11.3011 26.54 11.236 26.5234 11.1778 26.4917C11.1197 26.4601 11.0703 26.4144 11.0343 26.3589C10.9921 26.2949 10.9699 26.2199 10.9704 26.1433C10.9704 24.7181 12.1296 23.5592 13.5545 23.5592C14.9794 23.5592 16.1386 24.7181 16.1386 26.1433C16.1392 26.22 16.1169 26.2952 16.0746 26.3591V26.3591ZM10.0023 21.2357C10.2637 21.2357 10.5202 21.1295 10.7055 20.9445C10.8913 20.7587 10.9973 20.5027 10.9973 20.2407C10.9973 19.9788 10.891 19.722 10.7055 19.537C10.5186 19.3511 10.2659 19.2464 10.0023 19.2458C9.7403 19.2458 9.48359 19.3517 9.29852 19.537C9.11265 19.7241 9.00803 19.977 9.00732 20.2408C9.00732 20.5027 9.11352 20.7595 9.29852 20.9445C9.48359 21.1295 9.7403 21.2357 10.0023 21.2357ZM12.3232 20.0039C12.5867 20.0031 12.8394 19.8985 13.0264 19.7127C13.2114 19.5276 13.3176 19.2709 13.3176 19.0089C13.3176 18.7469 13.2114 18.491 13.0264 18.3057C12.8397 18.1194 12.5869 18.0146 12.3232 18.0139C12.0611 18.0139 11.8047 18.1202 11.6194 18.3057C11.4336 18.4927 11.329 18.7453 11.3282 19.0089C11.3282 19.2709 11.4344 19.5276 11.6194 19.7127C11.8066 19.8985 12.0594 20.0031 12.3232 20.0039ZM14.7862 20.0039C15.0482 20.0039 15.3043 19.8977 15.4893 19.7127C15.675 19.5276 15.7813 19.2709 15.7813 19.0089C15.7813 18.7469 15.675 18.491 15.4893 18.3057C15.3026 18.1195 15.0499 18.0146 14.7863 18.0139C14.5243 18.0139 14.268 18.1202 14.0825 18.3057C13.8966 18.4926 13.792 18.7453 13.7913 19.0089C13.7913 19.2709 13.8973 19.5276 14.0825 19.7127C14.2676 19.8977 14.5242 20.0039 14.7862 20.0039ZM17.1072 21.2357C17.3691 21.2357 17.6254 21.1295 17.8109 20.9445C17.9959 20.7587 18.1021 20.5027 18.1021 20.2407C18.1021 19.9788 17.9959 19.7228 17.8109 19.537C17.6251 19.3517 17.3691 19.2458 17.1071 19.2458C16.8451 19.2458 16.5884 19.3517 16.4033 19.537C16.2175 19.7241 16.1128 19.977 16.1121 20.2408C16.1121 20.5027 16.2184 20.7587 16.4033 20.9445C16.5884 21.1295 16.8452 21.2357 17.1072 21.2357Z" fill="#FF62BD"/>
</g>
<defs>
<clipPath id="clip0_2990_695">
<rect width="33.9623" height="33.9623" fill="white" transform="translate(0.875977 0.0378418)"/>
</clipPath>
</defs>
</svg>
