<svg width="117" height="87" viewBox="0 0 117 87" fill="none" xmlns="http://www.w3.org/2000/svg">
<g filter="url(#filter0_d_2995_62)">
<path d="M82.9656 9.86769C77.9805 10.2333 74.3639 14.8743 74.8917 20.2297C75.4196 25.5851 79.8898 29.6298 84.8749 29.2641C89.86 28.8985 93.4766 24.2575 92.9488 18.9021C92.421 13.5467 87.9507 9.50204 82.9656 9.86769ZM84.5752 26.2376C80.9585 26.502 77.7329 23.7343 77.368 20.0497C77.0031 16.365 79.6422 13.1642 83.2588 12.8998C86.8755 12.6354 90.1011 15.4031 90.466 19.0877C90.831 22.7724 88.1918 25.9732 84.5752 26.2376Z" fill="#BA6D24"/>
<path d="M84.5742 26.2376C80.9575 26.502 77.7319 23.7343 77.367 20.0496C77.0021 16.365 79.6412 13.1641 83.2578 12.8997C83.5772 12.8772 83.8899 12.8828 84.2027 12.9053C83.0949 11.8365 81.8438 10.9927 80.4884 10.4414C76.8392 11.8871 74.4541 15.808 74.8842 20.2296C75.4121 25.585 79.8823 29.6297 84.8674 29.264C86.5812 29.1403 88.1256 28.499 89.4029 27.5089C89.442 26.1926 89.3768 24.9043 89.2139 23.6667C88.1517 25.1125 86.503 26.0969 84.5677 26.2376H84.5742Z" fill="#5E3712"/>
<path d="M44.258 8.9337C36.8618 8.56242 30.3193 16.3142 29.6416 26.2543C28.9704 36.1944 34.4182 44.5538 41.8143 44.9307L72.5785 46.4833L75.0156 10.4863L44.258 8.9337Z" fill="#FFB44F"/>
<path d="M41.2996 62.7684C41.2996 62.7684 56.9846 46.5841 68.4145 45.3521L68.1864 12.5391C68.1864 12.5391 43.6064 32.7624 39.5271 54.2121L41.2996 62.774V62.7684Z" fill="#BA6D24"/>
<path d="M87.1978 29.1617C87.8718 19.2213 82.4213 10.86 75.0238 10.4862C67.6262 10.1124 61.0829 17.8676 60.4089 27.808C59.7349 37.7484 65.1854 46.1097 72.5829 46.4835C79.9804 46.8573 86.5237 39.1021 87.1978 29.1617Z" fill="#BA6D24"/>
<path d="M85.0174 29.0558C85.3563 24.0098 83.3623 19.5713 80.2344 17.5687L80.2995 16.6236L76.8002 16.4492C71.8086 16.1961 67.3905 21.4333 66.9343 28.1445C66.4782 34.8556 70.16 40.5035 75.1516 40.751L78.6509 40.9254L78.716 39.9803C82.0981 38.304 84.6786 34.0961 85.0174 29.0558Z" fill="#5E3712"/>
<path d="M38.3406 10.4131C38.3406 10.4131 20.9091 22.3952 8 50.3535L39.5266 54.2125C39.5266 54.2125 52.0707 28.4088 66.4134 13.9908L38.3406 10.4131Z" fill="#DA915D"/>
<path d="M8 50.3535L9.51833 58.3979L41.299 62.7688L39.5266 54.2125L8 50.3535Z" fill="#5E3712"/>
<path d="M88.521 29.231C88.9761 22.5193 85.2966 16.8738 80.3026 16.6215C75.3087 16.3691 70.8913 21.6055 70.4362 28.3171C69.9811 35.0288 73.6606 40.6743 78.6546 40.9267C83.6485 41.179 88.0659 35.9427 88.521 29.231Z" fill="#FFB44F"/>
<path d="M28.8071 22.5137C28.8071 22.5137 41.3251 23.0087 51.8622 25.3095C51.8622 25.3095 49.6923 27.644 48.0436 31.0924C48.0436 31.0924 35.8904 29.0335 23.6917 28.3697L28.8071 22.5193V22.5137Z" fill="#5E3712"/>
<path d="M81.0553 20.1897C77.6994 20.021 74.7148 23.3624 74.1544 27.7671L82.5476 20.5216C82.0719 20.336 81.5701 20.2178 81.0488 20.1897H81.0553Z" fill="#FFB44F"/>
<path d="M84.1636 21.5107L74.1088 30.1908C74.1739 30.9052 74.2912 31.5859 74.4802 32.2328C78.1033 29.105 81.72 25.9773 85.3366 22.844C84.9912 22.3377 84.6002 21.8933 84.1636 21.5164V21.5107Z" fill="#FFB44F"/>
<path d="M86.1903 24.4814C82.528 27.6542 78.8658 30.8213 75.197 33.9884C75.3925 34.3597 75.6076 34.7141 75.8487 35.0347C79.4327 31.9407 83.0102 28.8524 86.5943 25.7584C86.49 25.314 86.3532 24.8865 86.1903 24.4814Z" fill="#FFB44F"/>
<path d="M86.8745 27.8965C83.6228 30.7036 80.3711 33.5106 77.1194 36.3177C77.7906 36.8184 78.5465 37.1503 79.3545 37.2909L86.5422 31.0861C86.6986 30.4504 86.8093 29.7922 86.8549 29.1003C86.881 28.6953 86.881 28.2959 86.868 27.9021L86.8745 27.8965Z" fill="#FFB44F"/>
</g>
<defs>
<filter id="filter0_d_2995_62" x="0" y="0.920898" width="117" height="85.8535" filterUnits="userSpaceOnUse" color-interpolation-filters="sRGB">
<feFlood flood-opacity="0" result="BackgroundImageFix"/>
<feColorMatrix in="SourceAlpha" type="matrix" values="0 0 0 0 0 0 0 0 0 0 0 0 0 0 0 0 0 0 127 0" result="hardAlpha"/>
<feOffset dx="8" dy="8"/>
<feGaussianBlur stdDeviation="8"/>
<feComposite in2="hardAlpha" operator="out"/>
<feColorMatrix type="matrix" values="0 0 0 0 0 0 0 0 0 0 0 0 0 0 0 0 0 0 0.2 0"/>
<feBlend mode="normal" in2="BackgroundImageFix" result="effect1_dropShadow_2995_62"/>
<feBlend mode="normal" in="SourceGraphic" in2="effect1_dropShadow_2995_62" result="shape"/>
</filter>
</defs>
</svg>
