<svg width="32" height="34" viewBox="0 0 32 34" fill="none" xmlns="http://www.w3.org/2000/svg">
<g clip-path="url(#clip0_2990_318)">
<path d="M28.1781 0.0380859H19.6209C19.5263 0.0381005 19.4336 0.0650885 19.3538 0.115887C19.2739 0.166686 19.2102 0.239192 19.1701 0.324908L15.6578 7.84304C14.9408 7.78437 14.2202 7.78428 13.5031 7.84277L9.99078 0.324908C9.95067 0.239212 9.88697 0.166721 9.80715 0.115923C9.72732 0.0651256 9.63467 0.0381257 9.54005 0.0380859L0.982822 0.0380859C0.61932 0.0380859 0.378002 0.41638 0.532225 0.746252L1.35309 2.50353C1.40896 2.62305 1.51 2.71548 1.634 2.76052C1.758 2.80556 1.89481 2.79952 2.01436 2.74372C2.07356 2.71606 2.12674 2.677 2.17085 2.62878C2.21496 2.58056 2.24914 2.52412 2.27143 2.46269C2.29373 2.40126 2.30371 2.33604 2.3008 2.27075C2.29789 2.20547 2.28216 2.14139 2.25448 2.08219L1.76435 1.03307H3.51819L7.61787 9.80662C7.16118 10.0943 6.72262 10.4098 6.30468 10.7513L3.15316 4.00557C3.12551 3.94637 3.08647 3.8932 3.03827 3.84909C2.99006 3.80499 2.93365 3.77081 2.87223 3.74851C2.81082 3.72621 2.74561 3.71623 2.68034 3.71913C2.61507 3.72204 2.55101 3.73778 2.49182 3.76544C2.43263 3.79309 2.37947 3.83212 2.33537 3.88031C2.29127 3.9285 2.2571 3.98491 2.2348 4.04631C2.2125 4.10771 2.20252 4.1729 2.20542 4.23816C2.20831 4.30342 2.22404 4.36747 2.2517 4.42665L5.52786 11.4387C3.03495 13.8252 1.48025 17.1843 1.48025 20.8997C1.48025 28.1234 7.35698 34.0004 14.5805 34.0004C21.8039 34.0004 27.6806 28.1234 27.6806 20.8997C27.6806 18.525 27.0385 16.1989 25.8241 14.1729C25.7905 14.1168 25.7462 14.0679 25.6937 14.029C25.6413 13.9901 25.5816 13.9619 25.5182 13.946C25.4549 13.9301 25.389 13.9269 25.3243 13.9365C25.2597 13.9461 25.1976 13.9683 25.1415 14.0019C25.0855 14.0355 25.0366 14.0798 24.9977 14.1322C24.9588 14.1847 24.9306 14.2443 24.9147 14.3077C24.8988 14.3711 24.8956 14.437 24.9052 14.5016C24.9148 14.5662 24.937 14.6283 24.9706 14.6844C26.0925 16.556 26.6856 18.7053 26.6856 20.8997C26.6856 27.5749 21.2554 33.0054 14.5805 33.0054C7.90549 33.0054 2.4753 27.5749 2.4753 20.8997C2.4753 14.2425 7.88937 8.79398 14.5805 8.79398C18.1279 8.79398 21.4796 10.3432 23.781 13.0323C23.8668 13.1325 23.989 13.1945 24.1205 13.2048C24.2521 13.215 24.3823 13.1727 24.4827 13.087C24.5828 13.0011 24.6448 12.8789 24.655 12.7474C24.6652 12.6158 24.6228 12.4856 24.537 12.3853C24.2526 12.0531 23.9518 11.7352 23.6359 11.4328L28.6288 0.746252C28.7826 0.416845 28.5421 0.0380859 28.178 0.0380859H28.1781ZM12.4641 7.96973C11.9287 8.05706 11.3993 8.17787 10.879 8.33145L7.46942 1.03307H9.22332L12.4641 7.96973ZM4.61659 1.03307H6.37128L9.93042 8.6515C9.43502 8.84032 8.95158 9.05914 8.48278 9.30673L4.61659 1.03307ZM24.5443 1.03307L20.6794 9.30415C20.2102 9.05723 19.7264 8.8391 19.2307 8.65097L22.7899 1.03307H24.5443ZM19.9375 1.03307H21.6915L18.2816 8.33171C17.7613 8.17853 17.2319 8.0579 16.6966 7.97053L19.9375 1.03307ZM22.8588 10.7456C22.4406 10.4046 22.0018 10.0897 21.5449 9.8027L25.6427 1.03307H27.3966L22.8588 10.7456Z" fill="#FF62BD"/>
<path d="M6.72079 22.7094C6.74719 23.9024 7.73468 24.8881 8.9217 24.9062C10.1089 24.9241 11.0793 24.0153 11.183 22.866H17.9781C18.0805 24.0021 19.0309 24.9064 20.2042 24.9064C20.2158 24.9064 20.2274 24.9062 20.2392 24.9062C21.4261 24.8881 22.4135 23.9024 22.4401 22.7094C22.4543 22.0617 22.1993 21.458 21.743 21.026C22.1994 20.5938 22.4543 19.9901 22.44 19.3425C22.4136 18.1493 21.4261 17.164 20.2391 17.1458C19.0446 17.1266 18.082 18.0431 17.9782 19.1861H11.1828C11.079 18.0338 10.1068 17.1274 8.92157 17.1458C7.73461 17.164 6.74719 18.1494 6.72066 19.3423C6.70646 19.9901 6.96144 20.5938 7.41774 21.0258C6.96138 21.458 6.70653 22.0617 6.72079 22.7094ZM8.29512 20.4541C7.92227 20.2165 7.70563 19.8092 7.71551 19.3646C7.73024 18.6997 8.27828 18.1507 8.93696 18.1405C9.62927 18.1299 10.197 18.6906 10.197 19.3962C10.1967 19.8279 10.5461 20.181 10.9795 20.181H18.1813C18.6104 20.181 18.964 19.8331 18.9635 19.3936C18.9635 18.7083 19.5121 18.1406 20.2044 18.1406H20.2238C20.8825 18.1507 21.4306 18.6997 21.4453 19.3646C21.4552 19.8093 21.2383 20.2165 20.8654 20.4541C20.4465 20.7213 20.4475 21.3313 20.8654 21.5976C21.2383 21.8352 21.4551 22.2425 21.4453 22.6874C21.4306 23.3521 20.8825 23.9011 20.2238 23.9113C19.5366 23.9223 18.9635 23.3653 18.9635 22.6558C18.9641 22.2226 18.6145 21.871 18.1813 21.871H10.9751C10.5445 21.871 10.1967 22.2218 10.197 22.6509V22.6584C10.197 23.3569 9.63265 23.9216 8.93696 23.9112C8.27828 23.9011 7.73024 23.352 7.71551 22.6874C7.70563 22.2425 7.92247 21.8352 8.29512 21.5976C8.71415 21.3307 8.71335 20.7208 8.29512 20.4541Z" fill="#FF62BD"/>
<path d="M7.42863 29.396C9.42816 31.0821 11.9682 32.0105 14.5809 32.0105C20.7074 32.0105 25.6913 27.0262 25.6913 20.8998C25.6913 14.7733 20.7071 9.78906 14.5809 9.78906C8.45467 9.78906 3.4707 14.7733 3.4707 20.8998C3.4707 23.4337 4.30477 25.8216 5.88275 27.8053C5.92341 27.8565 5.97375 27.8991 6.03089 27.9308C6.08803 27.9625 6.15086 27.9827 6.21578 27.9901C6.28071 27.9975 6.34646 27.9921 6.40928 27.9741C6.4721 27.9561 6.53075 27.9259 6.5819 27.8852C6.63303 27.8445 6.67565 27.7941 6.70731 27.737C6.73898 27.6798 6.75908 27.617 6.76645 27.5521C6.77383 27.4871 6.76835 27.4214 6.75032 27.3586C6.73229 27.2958 6.70206 27.2372 6.66137 27.186C5.22487 25.3801 4.46569 23.2063 4.46569 20.8998C4.46569 15.3219 9.00324 10.7841 14.5809 10.7841C20.1585 10.7841 24.6963 15.3219 24.6963 20.8998C24.6963 26.4777 20.1585 31.0155 14.5809 31.0155C12.2027 31.0155 9.8905 30.1703 8.0702 28.6353C7.96909 28.5521 7.83928 28.5122 7.70891 28.5241C7.57854 28.5359 7.45811 28.5987 7.37371 28.6988C7.28932 28.7989 7.24776 28.9282 7.25804 29.0587C7.26832 29.1892 7.32961 29.3104 7.42863 29.396Z" fill="#FF62BD"/>
</g>
<defs>
<clipPath id="clip0_2990_318">
<rect width="31.1321" height="33.9623" fill="white" transform="translate(0.484863 0.0380859)"/>
</clipPath>
</defs>
</svg>
