<svg width="35" height="34" viewBox="0 0 35 34" fill="none" xmlns="http://www.w3.org/2000/svg">
<g clip-path="url(#clip0_2990_131)">
<path d="M17.466 0.0023936C17.6901 0.00390533 17.9142 0.00300756 18.1383 0.00148089C19.9251 -0.00886689 19.9251 -0.00886689 20.7201 0.302315C20.7947 0.330404 20.7947 0.330404 20.8708 0.359061C21.4123 0.582386 21.8805 0.905899 22.3121 1.2973C22.3639 1.34373 22.4157 1.39016 22.4691 1.438C23.3789 2.29721 23.9571 3.53065 23.9957 4.78483C23.9969 4.94017 23.997 5.09552 23.9962 5.25086C23.9967 5.37933 23.9967 5.37933 23.9972 5.5104C23.9981 5.74256 23.9978 5.97471 23.9971 6.20687C23.9966 6.45139 23.9971 6.69592 23.9974 6.94044C23.9978 7.35069 23.9973 7.76093 23.9964 8.17118C23.9953 8.64372 23.9956 9.11625 23.9967 9.5888C23.9976 9.99662 23.9978 10.4044 23.9972 10.8123C23.9969 11.0549 23.9969 11.2976 23.9975 11.5402C23.9982 11.8109 23.9973 12.0815 23.9962 12.3521C23.9966 12.4312 23.997 12.5103 23.9974 12.5919C23.9923 13.2707 23.8531 13.8532 23.5434 14.456C23.5052 14.5318 23.467 14.6075 23.4276 14.6856C23.0937 15.2672 22.5914 15.6136 21.967 15.8443C21.239 16.0253 20.5707 15.8864 19.9345 15.515C19.0577 14.9285 18.5251 13.972 18.3005 12.9547C18.082 11.8096 18.2137 10.6319 18.8315 9.6223C19.2198 9.0804 19.7879 8.6443 20.4548 8.52755C21.2854 8.45328 21.9182 8.6145 22.5774 9.12455C22.6212 9.16832 22.665 9.2121 22.7101 9.25721C22.7147 8.6569 22.7183 8.0566 22.7204 7.45628C22.7214 7.17745 22.7228 6.89863 22.7251 6.61981C22.7273 6.35014 22.7285 6.08048 22.729 5.8108C22.7293 5.70852 22.7301 5.60624 22.7311 5.50396C22.7436 4.27829 22.4684 3.27605 21.599 2.36847C20.7787 1.5852 19.8245 1.2655 18.7016 1.26854C18.587 1.26802 18.587 1.26802 18.47 1.26749C18.3094 1.26707 18.1487 1.26715 17.9881 1.26772C17.7446 1.26828 17.5011 1.26637 17.2576 1.26427C16.1425 1.25467 16.1425 1.25467 15.0819 1.56263C15.0227 1.58634 14.9636 1.61004 14.9027 1.63446C13.9608 2.02529 13.3468 2.89231 12.9476 3.79384C12.789 4.24837 12.7408 4.65299 12.7422 5.13087C12.7419 5.19361 12.7415 5.25635 12.7412 5.32098C12.7405 5.45634 12.7401 5.5917 12.74 5.72706C12.7397 5.94151 12.7386 6.15594 12.7373 6.37039C12.7336 6.9798 12.7316 7.58921 12.7299 8.19863C12.7289 8.57214 12.7269 8.94563 12.7243 9.31913C12.7236 9.46112 12.7232 9.60311 12.7232 9.7451C12.7231 9.94369 12.7219 10.1422 12.7205 10.3408C12.7208 10.3991 12.7211 10.4574 12.7214 10.5174C12.7161 10.9635 12.6347 11.2753 12.3456 11.6286C11.9363 11.9635 11.5739 12.0058 11.0631 12.0013C11.001 12.0016 10.939 12.0018 10.875 12.0021C10.7408 12.0025 10.6065 12.0025 10.4723 12.0021C10.2591 12.0015 10.046 12.0021 9.83282 12.0032C9.22695 12.0058 8.62108 12.0059 8.01521 12.0058C7.64392 12.0057 7.27265 12.007 6.90137 12.009C6.69264 12.0097 6.48395 12.0089 6.27521 12.0081C5.02713 12.0103 4.02286 12.2679 3.09018 13.1519C2.30008 13.9657 1.98255 14.9311 1.98558 16.0516C1.98506 16.1663 1.98506 16.1663 1.98453 16.2832C1.98411 16.4439 1.98419 16.6045 1.98476 16.7652C1.98532 17.0087 1.98341 17.2521 1.98131 17.4957C1.97727 18.8357 2.15759 19.9031 3.11453 20.9128C3.87982 21.6372 4.80058 22.0141 5.84792 22.0111C5.91065 22.0114 5.97339 22.0117 6.03802 22.0121C6.17338 22.0128 6.30874 22.0132 6.4441 22.0133C6.65855 22.0135 6.87299 22.0146 7.08743 22.016C7.69684 22.0197 8.30625 22.0217 8.91567 22.0233C9.28918 22.0244 9.66267 22.0264 10.0362 22.029C10.1782 22.0297 10.3202 22.0301 10.4621 22.0301C10.6607 22.0301 10.8593 22.0314 11.0579 22.0328C11.1162 22.0325 11.1744 22.0322 11.2345 22.0319C11.6805 22.0371 11.9924 22.1186 12.3456 22.4076C12.6805 22.817 12.7229 23.1794 12.7184 23.6901C12.7187 23.7833 12.7187 23.7833 12.7191 23.8783C12.7195 24.0125 12.7195 24.1468 12.7191 24.281C12.7185 24.4942 12.7192 24.7073 12.7202 24.9205C12.7229 25.5263 12.7229 26.1322 12.7228 26.7381C12.7228 27.1094 12.7241 27.4806 12.7261 27.8519C12.7268 28.0606 12.726 28.2693 12.7251 28.4781C12.7274 29.7261 12.985 30.7304 13.869 31.6631C14.6827 32.4532 15.6481 32.7707 16.7687 32.7677C16.8451 32.768 16.9215 32.7684 17.0003 32.7687C17.1609 32.7692 17.3216 32.7691 17.4822 32.7685C17.7258 32.768 17.9692 32.7699 18.2127 32.772C19.5527 32.776 20.6201 32.5957 21.6299 31.6387C22.4167 30.8076 22.7346 29.8584 22.7231 28.7338C22.7229 28.664 22.7227 28.5942 22.7225 28.5223C22.7217 28.3013 22.7201 28.0803 22.7184 27.8593C22.7177 27.7087 22.7171 27.558 22.7166 27.4073C22.7151 27.0398 22.7129 26.6722 22.7101 26.3047C22.6695 26.3232 22.6289 26.3417 22.587 26.3607C22.5336 26.3848 22.4801 26.4089 22.425 26.4338C22.3721 26.4577 22.3192 26.4817 22.2646 26.5064C21.5406 26.8104 20.628 26.7717 19.9034 26.4995C19.2071 26.175 18.7382 25.6538 18.4651 24.9373C18.1056 23.8038 18.2058 22.5927 18.7426 21.5329C18.9377 21.1981 19.1646 20.9224 19.4303 20.6418C19.9599 20.0724 20.3853 19.451 20.7824 18.7844C21.4387 17.6912 22.1727 16.8399 23.448 16.4958C24.5969 16.2646 25.8186 16.3922 26.8227 17.0181C27.5122 17.5006 27.9414 18.2455 28.3761 18.9487C28.7455 19.5462 29.1418 20.0763 29.6087 20.6001C30.4286 21.5436 30.8446 22.5949 30.8027 23.8504C30.733 24.672 30.4947 25.4651 29.874 26.0393C29.2103 26.5713 28.4944 26.7459 27.6501 26.6861C26.8983 26.5947 26.3586 26.359 25.73 25.9474C25.2477 25.6395 24.7887 25.5735 24.2254 25.5745C24.1412 25.5747 24.0571 25.5749 23.9704 25.575C23.971 25.6243 23.9716 25.6736 23.9722 25.7245C23.9776 26.1937 23.9816 26.6629 23.9842 27.1321C23.9855 27.3733 23.9874 27.6144 23.9904 27.8555C23.9934 28.089 23.9949 28.3225 23.9956 28.5561C23.9963 28.6867 23.9984 28.8173 24.0005 28.9479C24.0007 29.7542 23.8341 30.522 23.4522 31.2382C23.4177 31.3045 23.4177 31.3045 23.3826 31.3723C23.1938 31.7267 22.9811 32.0434 22.7101 32.3409C22.6652 32.3911 22.6203 32.4413 22.5741 32.493C22.2178 32.8708 21.8336 33.146 21.3834 33.4023C21.331 33.433 21.2786 33.4637 21.2246 33.4953C20.1973 34.0558 19.147 34.0416 18.0043 34.0338C17.7802 34.0323 17.5561 34.0332 17.332 34.0348C15.5453 34.0451 15.5453 34.0451 14.7502 33.7339C14.7005 33.7152 14.6507 33.6965 14.5995 33.6772C14.058 33.4539 13.5899 33.1303 13.1582 32.7389C13.1064 32.6925 13.0546 32.6461 13.0012 32.5982C12.125 31.7707 11.5284 30.5738 11.4825 29.3618C11.4744 28.9731 11.4775 28.5846 11.4805 28.1959C11.4808 28.0529 11.4811 27.9099 11.4813 27.7669C11.4821 27.3931 11.484 27.0195 11.4862 26.6457C11.4883 26.2633 11.4892 25.8809 11.4902 25.4985C11.4923 24.7501 11.4957 24.0017 11.4999 23.2534C11.3823 23.2543 11.3823 23.2543 11.2623 23.2552C10.5198 23.2606 9.77724 23.2645 9.03468 23.2671C8.65302 23.2685 8.27137 23.2704 7.88971 23.2734C7.52069 23.2763 7.15168 23.2779 6.78265 23.2786C6.64258 23.279 6.50251 23.28 6.36244 23.2814C5.34316 23.2915 4.4331 23.2247 3.51512 22.7352C3.44874 22.7007 3.44874 22.7007 3.38101 22.6656C3.02656 22.4768 2.70989 22.264 2.41234 21.9931C2.36215 21.9482 2.31196 21.9033 2.26024 21.857C1.88247 21.5008 1.60726 21.1166 1.35102 20.6664C1.32032 20.614 1.28963 20.5616 1.258 20.5076C0.697509 19.4803 0.711643 18.4299 0.719435 17.2873C0.720947 17.0631 0.720049 16.8391 0.718522 16.615C0.708174 14.8282 0.708174 14.8282 1.01936 14.0332C1.04745 13.9586 1.04745 13.9586 1.0761 13.8824C1.29943 13.3409 1.62294 12.8728 2.01434 12.4412C2.06077 12.3894 2.10721 12.3375 2.15504 12.2842C2.98256 11.408 4.17949 10.8114 5.39152 10.7654C5.78014 10.7574 6.16868 10.7604 6.55735 10.7634C6.70037 10.7638 6.8434 10.7641 6.98642 10.7643C7.36013 10.765 7.73383 10.767 8.10753 10.7692C8.48996 10.7712 8.87239 10.7721 9.25483 10.7731C10.0032 10.7753 10.7515 10.7787 11.4999 10.7829C11.4993 10.7045 11.4987 10.6261 11.4981 10.5453C11.4927 9.80274 11.4887 9.0602 11.4862 8.31764C11.4848 7.93598 11.4829 7.55433 11.4799 7.17267C11.477 6.80365 11.4754 6.43464 11.4747 6.06561C11.4742 5.92554 11.4733 5.78546 11.4718 5.6454C11.4618 4.62612 11.5286 3.71606 12.0181 2.79808C12.0526 2.73169 12.0526 2.73169 12.0877 2.66397C12.2765 2.30952 12.4892 1.99285 12.7602 1.6953C12.8051 1.64511 12.85 1.59491 12.8963 1.5432C13.2525 1.16543 13.6367 0.890221 14.0869 0.633978C14.1393 0.603281 14.1917 0.572584 14.2457 0.540957C15.273 -0.0195319 16.3234 -0.00539797 17.466 0.0023936ZM19.9075 10.2232C19.4432 10.9089 19.3247 11.6999 19.4349 12.5117C19.5938 13.3008 19.9393 14.034 20.5903 14.5356C20.9061 14.7152 21.2256 14.7576 21.5824 14.6965C21.9557 14.577 22.2422 14.3739 22.4448 14.0332C22.8287 13.225 22.9166 12.3154 22.6686 11.4503C22.4312 10.7869 22.097 10.2664 21.5161 9.8542C20.9097 9.5687 20.3281 9.70861 19.9075 10.2232ZM22.3992 18.5479C22.0891 18.9495 21.836 19.3874 21.5729 19.8204C21.2973 20.2698 21.0044 20.6699 20.6538 21.0644C19.915 21.9001 19.4113 22.6802 19.4722 23.8296C19.5281 24.3719 19.6556 24.7847 20.0568 25.177C20.5086 25.4805 20.9527 25.5443 21.4829 25.4631C21.8797 25.3807 22.1903 25.2299 22.5305 25.0143C23.3938 24.4708 24.2739 24.28 25.282 24.4616C25.866 24.6037 26.359 24.8674 26.8512 25.2068C27.3099 25.4836 27.8645 25.5612 28.3898 25.4714C28.767 25.3706 29.0823 25.171 29.3003 24.8433C29.649 24.171 29.6575 23.2806 29.4429 22.561C29.2254 22.0079 28.8508 21.5713 28.452 21.139C28.0024 20.6494 27.6486 20.0959 27.3014 19.5315C26.5839 18.3627 26.5839 18.3627 25.4214 17.6897C24.2813 17.4238 23.1705 17.6502 22.3992 18.5479Z" fill="#FF62BD"/>
<path d="M29.508 8.89283C30.1988 9.38793 30.6061 10.1938 30.7775 11.0148C30.9737 12.2654 30.7746 13.5017 30.0739 14.5637C29.5713 15.2163 28.9834 15.7517 28.1502 15.8904C27.4028 15.9509 26.819 15.8361 26.21 15.3888C25.4805 14.7586 25.139 13.8407 25.0461 12.898C24.9637 11.7167 25.2515 10.5038 26.0276 9.58881C26.0719 9.53639 26.1162 9.48398 26.1618 9.42997C27.043 8.47085 28.3746 8.20059 29.508 8.89283ZM26.857 10.5081C26.3649 11.1807 26.1521 12.0477 26.2559 12.873C26.3629 13.4388 26.5101 14.0388 26.9604 14.4311C27.3455 14.6933 27.6199 14.7435 28.0839 14.6964C28.6459 14.4949 29.0538 13.9608 29.3082 13.4356C29.6865 12.5481 29.7504 11.6176 29.4238 10.6996C29.2418 10.2828 29.0174 10.0155 28.6146 9.7878C27.8549 9.53458 27.3262 9.92499 26.857 10.5081Z" fill="#FF62BD"/>
<path d="M33.6538 14.5433C34.2166 14.9094 34.5721 15.3568 34.7167 16.0236C34.7797 16.7381 34.7569 17.4217 34.4514 18.0799C34.4273 18.1327 34.4033 18.1854 34.3785 18.2398C33.9946 18.9985 33.4021 19.5211 32.5982 19.7963C31.9294 19.9727 31.3827 19.8883 30.7906 19.5517C30.3532 19.2115 30.0589 18.7556 29.9407 18.2126C29.8401 17.0705 30.0731 16.1526 30.7906 15.2442C31.4861 14.4765 32.6855 14.0268 33.6538 14.5433ZM31.5537 16.2141C31.1995 16.7869 31.0375 17.3394 31.1347 18.0136C31.2177 18.2701 31.3454 18.4321 31.5535 18.6064C31.7968 18.7027 31.9344 18.7155 32.1961 18.6769C32.7982 18.416 33.1418 18.0224 33.4149 17.4373C33.5884 16.9676 33.6022 16.4611 33.4439 15.9863C33.2496 15.7249 33.1083 15.5798 32.7806 15.522C32.2924 15.594 31.8551 15.8165 31.5537 16.2141Z" fill="#FF62BD"/>
<path d="M17.6168 14.7216C17.7517 14.8182 17.8762 14.9199 18.0005 15.0297C18.0407 15.0645 18.0809 15.0993 18.1223 15.1352C18.7331 15.7019 19.0923 16.4826 19.1417 17.3127C19.1513 18.0869 19.0619 18.7405 18.5312 19.3413C18.0639 19.7324 17.6149 19.906 17.0055 19.8927C16.1919 19.808 15.5241 19.3983 15.0057 18.7798C14.4467 18.0145 14.2102 17.1249 14.3105 16.1833C14.4289 15.5453 14.6844 15.02 15.2146 14.6317C15.9694 14.1768 16.8824 14.2722 17.6168 14.7216ZM15.7647 15.7811C15.5257 16.0902 15.4602 16.4368 15.484 16.8207C15.5711 17.4192 15.8697 17.9886 16.3313 18.3844C16.6699 18.6337 16.9183 18.7135 17.3372 18.678C17.6242 18.54 17.7939 18.3938 17.9029 18.088C18.0438 17.46 17.8978 16.8865 17.5813 16.3369C17.3175 15.9527 16.9829 15.7076 16.5412 15.5604C16.2138 15.5233 16.0104 15.5466 15.7647 15.7811Z" fill="#FF62BD"/>
<path d="M6.25505 13.1091C6.38764 13.2469 6.45466 13.3836 6.47012 13.5744C6.45523 13.7617 6.42468 13.9213 6.31646 14.0774C6.13899 14.2062 5.96958 14.2191 5.75419 14.2536C5.21509 14.3615 4.80643 14.5422 4.47729 14.9957C4.29786 15.3106 4.25424 15.6578 4.20159 16.0124C4.12246 16.2715 4.03753 16.3524 3.80567 16.4881C3.64969 16.5089 3.64969 16.5089 3.49888 16.4881C3.44878 16.4827 3.39867 16.4772 3.34704 16.4715C3.15892 16.4039 3.10449 16.3316 3.00968 16.1565C2.89473 15.4015 3.11945 14.7201 3.55692 14.1087C4.10414 13.443 5.35642 12.6151 6.25505 13.1091Z" fill="#FF62BD"/>
<path d="M8.3831 13.002C8.42944 13.0012 8.47578 13.0005 8.52353 12.9998C8.7596 13.0031 8.90648 13.035 9.11042 13.1556C9.26083 13.3216 9.28914 13.383 9.28273 13.6031C9.2709 13.821 9.25574 13.8878 9.12105 14.0674C8.87085 14.244 8.70204 14.2479 8.39553 14.254C8.27381 14.2577 8.27381 14.2577 8.14964 14.2615C7.88071 14.2286 7.77679 14.1569 7.5871 13.9679C7.48301 13.7597 7.49742 13.6005 7.52077 13.3709C7.76919 13.04 7.98673 12.9884 8.3831 13.002Z" fill="#FF62BD"/>
</g>
<defs>
<clipPath id="clip0_2990_131">
<rect width="33.9623" height="33.9623" fill="white" transform="translate(0.754761 0.0378418)"/>
</clipPath>
</defs>
</svg>
