<svg width="20" height="20" viewBox="0 0 20 20" fill="none" xmlns="http://www.w3.org/2000/svg">
<g clip-path="url(#clip0_2226_1644)">
<path d="M4.50764 13.1834C6.3583 15.3957 8.58608 17.1374 11.1288 18.3699C12.0969 18.8287 13.3916 19.373 14.834 19.4663C14.9234 19.4702 15.0089 19.4741 15.0984 19.4741C16.0665 19.4741 16.8441 19.1397 17.4778 18.4516C17.4817 18.4477 17.4894 18.4399 17.4933 18.4321C17.7188 18.16 17.9754 17.915 18.2437 17.6545C18.4264 17.4796 18.6131 17.2969 18.7919 17.1102C19.62 16.2471 19.62 15.1507 18.7841 14.3148L16.4475 11.9782C16.0509 11.566 15.5766 11.3483 15.0789 11.3483C14.5813 11.3483 14.1031 11.566 13.6948 11.9743L12.3029 13.3662C12.1746 13.2923 12.0425 13.2262 11.918 13.164C11.7625 13.0862 11.6187 13.0124 11.4904 12.9307C10.2229 12.1259 9.07207 11.0762 7.97179 9.72705C7.41581 9.02334 7.04257 8.43237 6.78208 7.82974C7.14755 7.49927 7.48968 7.15324 7.82016 6.81499C7.9368 6.69446 8.05732 6.57394 8.17785 6.45341C8.59775 6.03352 8.82325 5.54752 8.82325 5.05376C8.82325 4.55999 8.60163 4.074 8.17785 3.6541L7.01924 2.4955C6.88317 2.35942 6.75486 2.22723 6.62267 2.09115C6.36607 1.82677 6.0978 1.55462 5.83342 1.30968C5.43297 0.916998 4.96253 0.710938 4.46487 0.710938C3.9711 0.710938 3.49678 0.916998 3.08077 1.31357L1.62668 2.76765C1.09792 3.29641 0.79855 3.93792 0.736343 4.68052C0.662473 5.60973 0.833542 6.59727 1.27677 7.79086C1.95715 9.63763 2.98357 11.3522 4.50764 13.1834ZM1.685 4.76216C1.73165 4.24507 1.92994 3.81351 2.30318 3.44027L3.74949 1.99395C3.97499 1.77623 4.22382 1.66348 4.46487 1.66348C4.70204 1.66348 4.94309 1.77623 5.1647 2.00173C5.42519 2.24278 5.67013 2.4955 5.93451 2.76377C6.0667 2.89984 6.20278 3.03592 6.33886 3.17589L7.49746 4.33449C7.73851 4.57554 7.86293 4.82048 7.86293 5.06153C7.86293 5.30258 7.73851 5.54752 7.49746 5.78858C7.37693 5.9091 7.25641 6.03352 7.13588 6.15404C6.7743 6.51951 6.43605 6.86553 6.06281 7.19601C6.05504 7.20378 6.05115 7.20767 6.04337 7.21545C5.72067 7.53815 5.77122 7.84529 5.84898 8.07857C5.85286 8.09023 5.85675 8.09801 5.86064 8.10967C6.16001 8.82894 6.57602 9.51321 7.22531 10.3297C8.39169 11.7682 9.62027 12.8841 10.9733 13.7433C11.1405 13.8521 11.3193 13.9377 11.4865 14.0232C11.642 14.101 11.7859 14.1748 11.9142 14.2565C11.9297 14.2643 11.9414 14.272 11.9569 14.2798C12.0852 14.3459 12.2096 14.377 12.3341 14.377C12.6451 14.377 12.8473 14.1787 12.9134 14.1126L14.3674 12.6586C14.5929 12.4331 14.8379 12.3125 15.0789 12.3125C15.3744 12.3125 15.6155 12.4953 15.7671 12.6586L18.1115 14.9991C18.5781 15.4656 18.5742 15.9711 18.0999 16.4648C17.9366 16.6398 17.7655 16.807 17.5828 16.9819C17.3106 17.2463 17.0268 17.5185 16.7702 17.8256C16.3231 18.3077 15.7904 18.5332 15.1023 18.5332C15.0362 18.5332 14.9662 18.5293 14.9001 18.5254C13.6248 18.4438 12.439 17.9461 11.5487 17.5224C9.13039 16.3521 7.00758 14.6919 5.24635 12.5847C3.79615 10.839 2.82028 9.21384 2.17488 7.47205C1.77442 6.40287 1.62279 5.54364 1.685 4.76216Z" fill="#FF62BD"/>
</g>
<defs>
<clipPath id="clip0_2226_1644">
<rect width="18.7632" height="18.7632" fill="white" transform="translate(0.684204 0.710938)"/>
</clipPath>
</defs>
</svg>
