<svg width="17" height="21" viewBox="0 0 17 21" fill="none" xmlns="http://www.w3.org/2000/svg">
<path d="M7.81159 13.3663H9.54739C9.69204 13.3663 9.8166 13.306 9.92107 13.1855C10.0255 13.0649 10.0617 12.9323 10.0296 12.7877L9.5715 10.2563C9.89294 10.0956 10.1461 9.86253 10.3309 9.55716C10.5157 9.25178 10.6082 8.91427 10.6082 8.54461C10.6082 8.01423 10.4193 7.56019 10.0416 7.18249C9.66391 6.80479 9.20987 6.61595 8.67949 6.61595C8.14911 6.61595 7.69507 6.80479 7.31737 7.18249C6.93968 7.56019 6.75083 8.01423 6.75083 8.54461C6.75083 8.91427 6.84325 9.25178 7.02808 9.55716C7.21291 9.86253 7.46604 10.0956 7.78749 10.2563L7.32943 12.7877C7.29728 12.9323 7.33345 13.0649 7.43792 13.1855C7.54239 13.306 7.66694 13.3663 7.81159 13.3663ZM8.67949 20.0201C8.56699 20.0201 8.46252 20.0121 8.36609 19.996C8.26965 19.98 8.17322 19.9559 8.07679 19.9237C5.90704 19.2005 4.17928 17.8625 2.89351 15.9097C1.60773 13.9569 0.964844 11.8555 0.964844 9.60537V5.04891C0.964844 4.6471 1.08137 4.28548 1.31441 3.96404C1.54746 3.64259 1.84881 3.40955 2.21847 3.2649L8.00446 1.09515C8.22947 1.01479 8.45448 0.974609 8.67949 0.974609C8.9045 0.974609 9.12951 1.01479 9.35452 1.09515L15.1405 3.2649C15.5102 3.40955 15.8115 3.64259 16.0446 3.96404C16.2776 4.28548 16.3941 4.6471 16.3941 5.04891V9.60537C16.3941 11.8555 15.7513 13.9569 14.4655 15.9097C13.1797 17.8625 11.4519 19.2005 9.2822 19.9237C9.18577 19.9559 9.08933 19.98 8.9929 19.996C8.89647 20.0121 8.792 20.0201 8.67949 20.0201ZM8.67949 18.0915C10.351 17.5611 11.7332 16.5003 12.8261 14.9092C13.919 13.318 14.4655 11.5501 14.4655 9.60537V5.04891L8.67949 2.87916L2.89351 5.04891V9.60537C2.89351 11.5501 3.43996 13.318 4.53287 14.9092C5.62578 16.5003 7.00799 17.5611 8.67949 18.0915Z" fill="#FF96D3"/>
</svg>
