<svg width="29" height="28" viewBox="0 0 29 28" fill="none" xmlns="http://www.w3.org/2000/svg">
<path fill-rule="evenodd" clip-rule="evenodd" d="M5.57947 17.8764C6.65755 16.7983 8.11975 16.1926 9.64439 16.1926H18.8422C20.3669 16.1926 21.8291 16.7983 22.9072 17.8764C23.9852 18.9545 24.5909 20.4166 24.5909 21.9413V24.2408C24.5909 24.8757 24.0762 25.3905 23.4412 25.3905C22.8062 25.3905 22.2914 24.8757 22.2914 24.2408V21.9413C22.2914 21.0265 21.928 20.1492 21.2812 19.5023C20.6343 18.8555 19.757 18.4921 18.8422 18.4921H9.64439C8.7296 18.4921 7.85229 18.8555 7.20543 19.5023C6.55858 20.1492 6.19519 21.0265 6.19519 21.9413V24.2408C6.19519 24.8757 5.68044 25.3905 5.04546 25.3905C4.41048 25.3905 3.89572 24.8757 3.89572 24.2408V21.9413C3.89572 20.4166 4.50138 18.9545 5.57947 17.8764Z" fill="#F8F8F8"/>
<path fill-rule="evenodd" clip-rule="evenodd" d="M14.2433 4.69522C12.3384 4.69522 10.7941 6.23948 10.7941 8.14441C10.7941 10.0494 12.3384 11.5936 14.2433 11.5936C16.1483 11.5936 17.6925 10.0494 17.6925 8.14441C17.6925 6.23948 16.1483 4.69522 14.2433 4.69522ZM8.49465 8.14441C8.49465 4.96952 11.0684 2.39575 14.2433 2.39575C17.4182 2.39575 19.992 4.96952 19.992 8.14441C19.992 11.3193 17.4182 13.8931 14.2433 13.8931C11.0684 13.8931 8.49465 11.3193 8.49465 8.14441Z" fill="#F8F8F8"/>
</svg>
