<svg width="20" height="20" viewBox="0 0 20 20" fill="none" xmlns="http://www.w3.org/2000/svg">
<g clip-path="url(#clip0_2505_3477)">
<path d="M8.23405 6.78985H14.7692M8.23405 10.218H12.8946M11.5016 16.0039C13.1308 16.0035 14.7157 15.4727 16.0164 14.4916C17.3171 13.5105 18.2629 12.1325 18.7109 10.5661C19.1589 8.99967 19.0846 7.32996 18.4993 5.8095C17.914 4.28904 16.8495 3.00052 15.4668 2.13881C14.0841 1.2771 12.4584 0.889069 10.8356 1.0334C9.21276 1.17774 7.68106 1.84658 6.47215 2.93879C5.26323 4.03099 4.44284 5.48715 4.13506 7.08704C3.82727 8.68694 4.04883 10.3435 4.76622 11.8063C4.85378 11.9847 4.88297 12.1858 4.83838 12.3788L4.17676 15.2458C4.1581 15.3262 4.16024 15.4101 4.18297 15.4895C4.2057 15.5689 4.24828 15.6412 4.30668 15.6996C4.36508 15.7581 4.43739 15.8006 4.51679 15.8234C4.5962 15.8461 4.68008 15.8482 4.76054 15.8296L7.62676 15.1671C7.82027 15.1248 8.02249 15.1505 8.19919 15.2401C9.2268 15.7448 10.3568 16.0061 11.5016 16.0039Z" stroke="#FF62BD" stroke-width="1.5" stroke-linecap="round" stroke-linejoin="round"/>
</g>
<defs>
<clipPath id="clip0_2505_3477">
<rect width="20" height="20" fill="white" transform="translate(0 0.00390625)"/>
</clipPath>
</defs>
</svg>
