<svg width="24" height="24" viewBox="0 0 24 24" fill="none" xmlns="http://www.w3.org/2000/svg">
<path d="M19.9 12.6633C19.7397 12.4808 19.6513 12.2462 19.6513 12.0033C19.6513 11.7604 19.7397 11.5258 19.9 11.3433L21.18 9.90331C21.3211 9.74598 21.4087 9.54802 21.4302 9.33782C21.4518 9.12762 21.4062 8.916 21.3 8.73331L19.3 5.27331C19.1949 5.09083 19.0349 4.94619 18.8428 4.86C18.6506 4.77381 18.4362 4.75047 18.23 4.79331L16.35 5.17331C16.1108 5.22274 15.8618 5.1829 15.6499 5.06131C15.438 4.93972 15.278 4.7448 15.2 4.51331L14.59 2.68331C14.5229 2.48469 14.3951 2.31218 14.2246 2.19016C14.0542 2.06813 13.8497 2.00277 13.64 2.00331L9.64002 2.00331C9.42195 1.99193 9.20615 2.05224 9.02558 2.17503C8.84501 2.29781 8.7096 2.47633 8.64002 2.68331L8.08002 4.51331C8.00202 4.7448 7.84199 4.93972 7.63013 5.06131C7.41827 5.1829 7.16924 5.22274 6.93002 5.17331L5.00002 4.79331C4.80457 4.76569 4.60532 4.79654 4.42737 4.88195C4.24941 4.96737 4.10072 5.10354 4.00002 5.27331L2.00002 8.73331C1.89118 8.91396 1.84224 9.1244 1.8602 9.33454C1.87816 9.54467 1.9621 9.74375 2.10002 9.90331L3.37002 11.3433C3.53034 11.5258 3.61875 11.7604 3.61875 12.0033C3.61875 12.2462 3.53034 12.4808 3.37002 12.6633L2.10002 14.1033C1.9621 14.2629 1.87816 14.462 1.8602 14.6721C1.84224 14.8822 1.89118 15.0927 2.00002 15.2733L4.00002 18.7333C4.10512 18.9158 4.26514 19.0604 4.45727 19.1466C4.6494 19.2328 4.86384 19.2562 5.07002 19.2133L6.95002 18.8333C7.18924 18.7839 7.43827 18.8237 7.65013 18.9453C7.86199 19.0669 8.02202 19.2618 8.10002 19.4933L8.71002 21.3233C8.7796 21.5303 8.91501 21.7088 9.09558 21.8316C9.27615 21.9544 9.49195 22.0147 9.71002 22.0033H13.71C13.9197 22.0039 14.1242 21.9385 14.2946 21.8165C14.4651 21.6944 14.5929 21.5219 14.66 21.3233L15.27 19.4933C15.348 19.2618 15.508 19.0669 15.7199 18.9453C15.9318 18.8237 16.1808 18.7839 16.42 18.8333L18.3 19.2133C18.5062 19.2562 18.7206 19.2328 18.9128 19.1466C19.1049 19.0604 19.2649 18.9158 19.37 18.7333L21.37 15.2733C21.4762 15.0906 21.5218 14.879 21.5002 14.6688C21.4787 14.4586 21.3911 14.2606 21.25 14.1033L19.9 12.6633ZM18.41 14.0033L19.21 14.9033L17.93 17.1233L16.75 16.8833C16.0298 16.7361 15.2806 16.8584 14.6446 17.2271C14.0086 17.5958 13.5302 18.1852 13.3 18.8833L12.92 20.0033H10.36L10 18.8633C9.76987 18.1652 9.2914 17.5758 8.65542 17.2071C8.01945 16.8384 7.27024 16.7161 6.55002 16.8633L5.37002 17.1033L4.07002 14.8933L4.87002 13.9933C5.36197 13.4433 5.63395 12.7312 5.63395 11.9933C5.63395 11.2554 5.36197 10.5433 4.87002 9.99331L4.07002 9.09331L5.35002 6.89331L6.53002 7.13331C7.25024 7.28054 7.99945 7.15819 8.63542 6.78951C9.2714 6.42083 9.74987 5.83147 9.98002 5.13331L10.36 4.00331H12.92L13.3 5.14331C13.5302 5.84147 14.0086 6.43083 14.6446 6.79951C15.2806 7.16819 16.0298 7.29053 16.75 7.14331L17.93 6.90331L19.21 9.12331L18.41 10.0233C17.9236 10.5721 17.655 11.28 17.655 12.0133C17.655 12.7466 17.9236 13.4546 18.41 14.0033ZM11.64 8.00331C10.8489 8.00331 10.0755 8.23791 9.41774 8.67743C8.75994 9.11696 8.24725 9.74167 7.9445 10.4726C7.64175 11.2035 7.56254 12.0078 7.71688 12.7837C7.87122 13.5596 8.25218 14.2723 8.81159 14.8317C9.371 15.3912 10.0837 15.7721 10.8597 15.9265C11.6356 16.0808 12.4398 16.0016 13.1708 15.6988C13.9017 15.3961 14.5264 14.8834 14.9659 14.2256C15.4054 13.5678 15.64 12.7944 15.64 12.0033C15.64 10.9424 15.2186 9.92503 14.4684 9.17489C13.7183 8.42474 12.7009 8.00331 11.64 8.00331ZM11.64 14.0033C11.2445 14.0033 10.8578 13.886 10.5289 13.6663C10.2 13.4465 9.94363 13.1341 9.79226 12.7687C9.64088 12.4032 9.60128 12.0011 9.67845 11.6131C9.75562 11.2252 9.9461 10.8688 10.2258 10.5891C10.5055 10.3094 10.8619 10.1189 11.2498 10.0417C11.6378 9.96457 12.0399 10.0042 12.4054 10.1556C12.7708 10.3069 13.0832 10.5633 13.303 10.8922C13.5227 11.2211 13.64 11.6078 13.64 12.0033C13.64 12.5337 13.4293 13.0425 13.0542 13.4175C12.6792 13.7926 12.1705 14.0033 11.64 14.0033Z" fill="#FF62BD"/>
</svg>
