<svg width="18" height="18" viewBox="0 0 18 18" fill="none" xmlns="http://www.w3.org/2000/svg">
<path d="M8.67947 13.7877C8.95269 13.7877 9.18172 13.6953 9.36655 13.5105C9.55138 13.3257 9.6438 13.0966 9.6438 12.8234C9.6438 12.5502 9.55138 12.3212 9.36655 12.1363C9.18172 11.9515 8.95269 11.8591 8.67947 11.8591C8.40624 11.8591 8.17721 11.9515 7.99238 12.1363C7.80755 12.3212 7.71514 12.5502 7.71514 12.8234C7.71514 13.0966 7.80755 13.3257 7.99238 13.5105C8.17721 13.6953 8.40624 13.7877 8.67947 13.7877ZM8.67947 9.93042C8.95269 9.93042 9.18172 9.83801 9.36655 9.65318C9.55138 9.46835 9.6438 9.23932 9.6438 8.96609V5.10876C9.6438 4.83554 9.55138 4.60651 9.36655 4.42168C9.18172 4.23685 8.95269 4.14443 8.67947 4.14443C8.40624 4.14443 8.17721 4.23685 7.99238 4.42168C7.80755 4.60651 7.71514 4.83554 7.71514 5.10876V8.96609C7.71514 9.23932 7.80755 9.46835 7.99238 9.65318C8.17721 9.83801 8.40624 9.93042 8.67947 9.93042ZM5.8588 17.6451C5.60164 17.6451 5.35654 17.5969 5.1235 17.5004C4.89045 17.404 4.68553 17.2674 4.50874 17.0906L0.554979 13.1368C0.378185 12.96 0.241571 12.7551 0.145138 12.5221C0.0487048 12.289 0.000488281 12.0439 0.000488281 11.7868V6.14542C0.000488281 5.88827 0.0487048 5.64317 0.145138 5.41012C0.241571 5.17707 0.378185 4.97215 0.554979 4.79536L4.50874 0.8416C4.68553 0.664806 4.89045 0.528192 5.1235 0.431759C5.35654 0.335326 5.60164 0.287109 5.8588 0.287109H11.5001C11.7573 0.287109 12.0024 0.335326 12.2354 0.431759C12.4685 0.528192 12.6734 0.664806 12.8502 0.8416L16.804 4.79536C16.9808 4.97215 17.1174 5.17707 17.2138 5.41012C17.3102 5.64317 17.3584 5.88827 17.3584 6.14542V11.7868C17.3584 12.0439 17.3102 12.289 17.2138 12.5221C17.1174 12.7551 16.9808 12.96 16.804 13.1368L12.8502 17.0906C12.6734 17.2674 12.4685 17.404 12.2354 17.5004C12.0024 17.5969 11.7573 17.6451 11.5001 17.6451H5.8588ZM5.88291 15.7164H11.476L15.4298 11.7626V6.16953L11.476 2.21577H5.88291L1.92915 6.16953V11.7626L5.88291 15.7164Z" fill="#FF96D3"/>
</svg>
