<svg width="131" height="113" viewBox="0 0 131 113" fill="none" xmlns="http://www.w3.org/2000/svg">
<g clip-path="url(#clip0_2147_5377)">
<path d="M100.655 78.2279C100.381 78.2275 100.117 78.1228 99.9165 77.9351C99.7163 77.7474 99.5949 77.4907 99.577 77.217L99.4164 74.7663C99.3976 74.4801 99.4934 74.1981 99.6827 73.9824C99.8719 73.7668 100.139 73.6351 100.426 73.6163L119.637 72.3589C119.94 72.3389 120.244 72.3787 120.532 72.476C120.82 72.5734 121.085 72.7265 121.313 72.9265C121.542 73.1265 121.728 73.3695 121.863 73.6417C121.997 73.9138 122.077 74.2097 122.096 74.5125C122.116 74.8153 122.076 75.1191 121.978 75.4064C121.881 75.6937 121.727 75.959 121.527 76.1871C121.327 76.4151 121.083 76.6015 120.811 76.7355C120.539 76.8696 120.242 76.9486 119.939 76.9682L100.728 78.2255C100.703 78.2271 100.679 78.2278 100.655 78.2279Z" fill="#FF62BD"/>
<path d="M104.444 78.5439C104.164 78.5434 103.895 78.4348 103.693 78.2407C103.492 78.0466 103.373 77.7821 103.363 77.5026L103.226 73.8422C103.22 73.7003 103.243 73.5587 103.293 73.4256C103.342 73.2924 103.417 73.1703 103.514 73.0662C103.611 72.9621 103.727 72.878 103.856 72.8188C103.985 72.7596 104.125 72.7264 104.267 72.7211L120.065 72.131C120.352 72.1203 120.631 72.2239 120.842 72.419C121.052 72.6141 121.176 72.8848 121.187 73.1715L121.324 76.8318C121.329 76.9738 121.307 77.1154 121.257 77.2485C121.208 77.3817 121.133 77.5038 121.036 77.6079C120.939 77.712 120.823 77.7961 120.694 77.8553C120.565 77.9145 120.425 77.9477 120.283 77.953L104.485 78.5431C104.471 78.5436 104.457 78.5439 104.444 78.5439Z" fill="#2F2E41"/>
<path d="M122.957 112.286H120.499C120.212 112.285 119.937 112.171 119.734 111.969C119.531 111.766 119.417 111.491 119.417 111.204V90.7351C119.417 90.4484 119.531 90.1735 119.734 89.9707C119.937 89.7679 120.212 89.6539 120.499 89.6536H122.957C123.244 89.6539 123.519 89.7679 123.722 89.9707C123.925 90.1735 124.039 90.4484 124.039 90.7351V111.204C124.039 111.491 123.925 111.766 123.722 111.969C123.519 112.171 123.244 112.285 122.957 112.286Z" fill="#2F2E41"/>
<path d="M117.086 112.286H114.629C114.342 112.285 114.067 112.171 113.864 111.969C113.661 111.766 113.547 111.491 113.547 111.204V90.7351C113.547 90.4484 113.661 90.1735 113.864 89.9707C114.067 89.7679 114.342 89.6539 114.629 89.6536H117.086C117.373 89.6539 117.648 89.7679 117.851 89.9707C118.054 90.1735 118.168 90.4484 118.169 90.7351V111.204C118.168 111.491 118.054 111.766 117.851 111.969C117.648 112.171 117.373 112.285 117.086 112.286Z" fill="#2F2E41"/>
<path d="M119.224 68.2919C123.914 68.2919 127.716 64.4925 127.716 59.8058C127.716 55.119 123.914 51.3196 119.224 51.3196C114.535 51.3196 110.733 55.119 110.733 59.8058C110.733 64.4925 114.535 68.2919 119.224 68.2919Z" fill="#FF62BD"/>
<path d="M114.628 62.7032C114.355 62.6136 114.104 62.4664 113.893 62.2718C113.753 62.1329 113.645 61.965 113.576 61.7799C113.508 61.5948 113.481 61.397 113.497 61.2004C113.506 61.0603 113.547 60.9242 113.617 60.8026C113.687 60.6811 113.785 60.5774 113.902 60.4997C114.206 60.305 114.612 60.3045 115.025 60.4866L115.01 57.1737L115.342 57.1721L115.361 61.0668L115.104 60.9055C114.807 60.7187 114.382 60.5873 114.082 60.7798C114.007 60.8307 113.946 60.898 113.902 60.9764C113.858 61.0549 113.833 61.1424 113.828 61.2322C113.817 61.3787 113.838 61.5259 113.888 61.6637C113.939 61.8016 114.019 61.9269 114.123 62.0311C114.49 62.3821 115.027 62.4919 115.639 62.59L115.586 62.9185C115.261 62.8755 114.94 62.8035 114.628 62.7032Z" fill="#2F2E41"/>
<path d="M111.577 57.0068L111.533 57.3367L113.311 57.5713L113.355 57.2415L111.577 57.0068Z" fill="#2F2E41"/>
<path d="M117.189 57.7469L117.146 58.0768L118.924 58.3115L118.967 57.9816L117.189 57.7469Z" fill="#2F2E41"/>
<path d="M124.761 96.227H111.996C111.68 96.2266 111.373 96.1206 111.124 95.9258C110.875 95.7311 110.698 95.4587 110.622 95.1521C110.584 94.9839 110.578 94.8101 110.603 94.6395C110.603 94.6395 113.097 80.6455 114.33 73.9247C114.51 72.9451 115.028 72.0595 115.794 71.422C116.559 70.7845 117.524 70.4355 118.521 70.4357C120.963 70.4357 123.306 71.4053 125.033 73.1312C126.76 74.8572 127.73 77.1981 127.73 79.6389V93.2602C127.73 93.6498 127.653 94.0356 127.504 94.3956C127.355 94.7555 127.136 95.0825 126.861 95.358C126.585 95.6335 126.258 95.8521 125.897 96.0011C125.537 96.1502 125.151 96.227 124.761 96.227Z" fill="#2F2E41"/>
<path d="M122.3 94.3779C122.206 94.5647 122.061 94.7206 121.881 94.8267C121.701 94.9329 121.494 94.9848 121.286 94.9762L118.83 94.8728C118.688 94.8669 118.549 94.833 118.42 94.7732C118.291 94.7133 118.175 94.6287 118.079 94.5242C117.983 94.4196 117.908 94.2971 117.86 94.1637C117.811 94.0303 117.789 93.8886 117.795 93.7467L118.605 74.5227C118.618 74.2197 118.69 73.9221 118.818 73.6471C118.946 73.372 119.127 73.1248 119.35 72.9196C119.573 72.7143 119.835 72.5551 120.12 72.4509C120.405 72.3467 120.708 72.2997 121.011 72.3125C121.314 72.3252 121.612 72.3976 121.887 72.5253C122.162 72.6531 122.41 72.8337 122.615 73.057C122.821 73.2803 122.98 73.5419 123.084 73.8267C123.188 74.1115 123.235 74.4141 123.223 74.7171L122.412 93.9411C122.406 94.093 122.368 94.2419 122.3 94.3779Z" fill="#FF62BD"/>
<path d="M123.556 89.2808C123.463 89.4676 123.318 89.6234 123.138 89.7296C122.958 89.8357 122.751 89.8876 122.542 89.8791L118.348 89.7025C118.062 89.6901 117.792 89.5646 117.598 89.3534C117.403 89.1423 117.301 88.8629 117.313 88.5764L117.978 72.7907C117.984 72.6488 118.018 72.5094 118.078 72.3806C118.138 72.2518 118.222 72.136 118.327 72.0399C118.432 71.9438 118.554 71.8692 118.688 71.8204C118.821 71.7716 118.963 71.7496 119.105 71.7556L123.299 71.9321C123.441 71.9381 123.58 71.972 123.709 72.0318C123.838 72.0916 123.954 72.1762 124.05 72.2808C124.146 72.3854 124.221 72.5079 124.27 72.6413C124.318 72.7747 124.34 72.9164 124.334 73.0583L123.669 88.844C123.663 88.9959 123.624 89.1448 123.556 89.2808Z" fill="#2F2E41"/>
<path d="M118.752 54.2936C116.921 55.0154 114.153 55.7827 112.946 53.6396C112.71 53.2016 112.57 52.7184 112.536 52.2223C112.502 51.7262 112.574 51.2284 112.747 50.7622C113.112 49.7511 113.888 48.9181 114.772 48.3295C116.428 47.2269 118.523 46.9268 120.452 47.3529C121.422 47.5639 122.342 47.9592 123.163 48.5172C124.096 49.1563 124.753 50.0192 125.413 50.9222C126.088 51.8454 126.852 52.7765 127.962 53.1809C128.869 53.5116 130.006 53.3428 130.648 52.5733C130.797 52.3936 130.912 52.1876 130.986 51.9658C131.083 51.683 130.635 51.5616 130.54 51.8426C130.202 52.8329 128.961 53.0549 128.085 52.7343C126.928 52.3111 126.197 51.2117 125.503 50.2626C124.84 49.3552 124.107 48.5564 123.149 47.9545C122.287 47.4175 121.334 47.0454 120.336 46.8572C118.328 46.4755 116.166 46.8138 114.464 47.9796C113.526 48.5933 112.791 49.471 112.352 50.5018C111.962 51.477 111.972 52.5664 112.38 53.5345C112.585 54.0169 112.904 54.4421 113.31 54.7731C113.717 55.1041 114.198 55.331 114.712 55.4339C115.834 55.6612 117 55.3997 118.065 55.0394C118.338 54.9471 118.608 54.8458 118.876 54.7402C119.15 54.6321 119.03 54.184 118.752 54.2936Z" fill="#2F2E41"/>
<path d="M7.43443 0H65.5687C67.5397 0.00221802 69.4294 0.785716 70.8232 2.1786C72.2169 3.57149 73.0009 5.46001 73.0031 7.42984V39.2142C73.0009 41.184 72.2169 43.0725 70.8232 44.4654C69.4294 45.8583 67.5397 46.6418 65.5687 46.644H7.43443C5.46337 46.6418 3.57368 45.8583 2.17994 44.4654C0.786193 43.0725 0.0022149 41.184 0 39.2142V7.42984C0.00221448 5.46001 0.786193 3.57149 2.17994 2.1786C3.57368 0.785716 5.46337 0.00221802 7.43443 0Z" fill="#F2F2F2"/>
<path d="M7.4343 2.13892H65.5686C66.9723 2.14049 68.318 2.69843 69.3105 3.69034C70.303 4.68224 70.8613 6.0271 70.8629 7.42987V39.2142C70.8613 40.617 70.303 41.9618 69.3105 42.9537C68.318 43.9456 66.9723 44.5036 65.5686 44.5051H7.4343C6.03068 44.5035 4.685 43.9456 3.6925 42.9537C2.69999 41.9618 2.14171 40.6169 2.14014 39.2142V7.42987C2.14171 6.02711 2.69999 4.68226 3.69249 3.69036C4.685 2.69845 6.03068 2.1405 7.4343 2.13892Z" fill="white"/>
<path d="M8.00167 58.0239C7.82625 58.0234 7.65265 57.9883 7.49082 57.9206C7.24928 57.8236 7.04267 57.656 6.89804 57.4396C6.75341 57.2233 6.6775 56.9684 6.68025 56.7083V45.7206L21.3379 45.2278L8.92182 57.6362C8.80175 57.7584 8.65859 57.8557 8.50064 57.9222C8.34269 57.9888 8.17309 58.0233 8.00167 58.0239Z" fill="#F2F2F2"/>
<path d="M58.2877 10.0448H14.5737C12.8235 10.0448 11.4047 11.4627 11.4047 13.2118V13.2118C11.4047 14.9609 12.8235 16.3789 14.5737 16.3789H58.2877C60.0379 16.3789 61.4567 14.9609 61.4567 13.2118C61.4567 11.4627 60.0379 10.0448 58.2877 10.0448Z" fill="#F2F2F2"/>
<path d="M58.3585 20.1549H14.6445C12.8943 20.1549 11.4755 21.5728 11.4755 23.3219V23.3219C11.4755 25.0711 12.8943 26.489 14.6445 26.489H58.3585C60.1087 26.489 61.5275 25.0711 61.5275 23.3219C61.5275 21.5728 60.1087 20.1549 58.3585 20.1549Z" fill="#F2F2F2"/>
<path d="M58.4294 30.265H14.7154C12.9652 30.265 11.5464 31.6829 11.5464 33.432V33.4321C11.5464 35.1812 12.9652 36.5991 14.7154 36.5991H58.4294C60.1796 36.5991 61.5984 35.1812 61.5984 33.432C61.5984 31.6829 60.1796 30.265 58.4294 30.265Z" fill="#F2F2F2"/>
<path d="M99.2329 16.2106H41.0986C39.1276 16.2128 37.2379 16.9963 35.8441 18.3892C34.4504 19.7821 33.6664 21.6706 33.6642 23.6404V55.4247C33.6664 57.3946 34.4504 59.2831 35.8441 60.676C37.2379 62.0689 39.1276 62.8524 41.0986 62.8546H99.2329C101.204 62.8524 103.094 62.0689 104.487 60.676C105.881 59.2831 106.665 57.3946 106.667 55.4247V23.6404C106.665 21.6706 105.881 19.7821 104.487 18.3892C103.094 16.9963 101.204 16.2128 99.2329 16.2106Z" fill="#E6E6E6"/>
<path d="M99.2329 18.3495H41.0986C39.6949 18.3511 38.3492 18.909 37.3567 19.9009C36.3642 20.8928 35.8059 22.2377 35.8043 23.6404V55.4248C35.8059 56.8275 36.3642 58.1724 37.3567 59.1643C38.3492 60.1562 39.6949 60.7141 41.0986 60.7157H99.2329C100.637 60.7141 101.982 60.1562 102.975 59.1643C103.967 58.1724 104.525 56.8275 104.527 55.4248V23.6404C104.525 22.2377 103.967 20.8928 102.975 19.9009C101.982 18.909 100.637 18.3511 99.2329 18.3495Z" fill="white"/>
<path d="M94.8105 73.8467L82.3944 61.4384L97.052 61.9312V72.9188C97.0548 73.179 96.9789 73.4339 96.8342 73.6502C96.6896 73.8665 96.483 74.0342 96.2414 74.1312C96.0796 74.1988 95.906 74.2339 95.7306 74.2344C95.5592 74.2339 95.3896 74.1994 95.2316 74.1328C95.0737 74.0662 94.9305 73.969 94.8105 73.8467Z" fill="#E6E6E6"/>
<path d="M57.3437 43.5466C59.5619 43.5466 61.3602 41.7495 61.3602 39.5326C61.3602 37.3157 59.5619 35.5186 57.3437 35.5186C55.1254 35.5186 53.3271 37.3157 53.3271 39.5326C53.3271 41.7495 55.1254 43.5466 57.3437 43.5466Z" fill="#FF62BD"/>
<path d="M70.1657 43.5466C72.384 43.5466 74.1822 41.7495 74.1822 39.5326C74.1822 37.3157 72.384 35.5186 70.1657 35.5186C67.9474 35.5186 66.1492 37.3157 66.1492 39.5326C66.1492 41.7495 67.9474 43.5466 70.1657 43.5466Z" fill="#FF62BD"/>
<path d="M82.9877 43.5466C85.206 43.5466 87.0042 41.7495 87.0042 39.5326C87.0042 37.3157 85.206 35.5186 82.9877 35.5186C80.7694 35.5186 78.9712 37.3157 78.9712 39.5326C78.9712 41.7495 80.7694 43.5466 82.9877 43.5466Z" fill="#FF62BD"/>
</g>
<defs>
<clipPath id="clip0_2147_5377">
<rect width="131" height="112.286" fill="white"/>
</clipPath>
</defs>
</svg>
