<svg width="207" height="207" viewBox="0 0 207 207" fill="none" xmlns="http://www.w3.org/2000/svg">
<g clip-path="url(#clip0_3656_5260)">
<path d="M170.722 24.7769C172.285 26.1631 173.803 27.594 175.307 29.0448C175.544 29.2734 175.782 29.5019 176.026 29.7374C181.248 34.7914 186.953 40.6378 190.233 47.1982C190.366 37.7464 190.499 28.2945 190.636 18.5562C195.961 18.5562 201.286 18.5562 206.773 18.5562C206.773 37.3268 206.773 56.0974 206.773 75.4368C188.135 75.4368 169.498 75.4368 150.295 75.4368C150.295 69.9787 150.295 64.5206 150.295 58.8971C163.674 58.6974 163.674 58.6974 177.324 58.4937C164.597 38.4941 145.659 24.0915 122.317 18.8683C120.354 18.4552 118.385 18.0908 116.409 17.7494C116.114 17.6964 115.819 17.6434 115.515 17.5888C95.1087 14.0616 71.8539 19.6133 54.9649 31.47C54.6071 31.7347 54.2493 31.9994 53.8807 32.2721C53.6701 32.4269 53.4595 32.5816 53.2425 32.7411C50.5606 34.7219 47.9988 36.8068 45.5462 39.0686C44.6167 39.9236 43.6664 40.7495 42.7113 41.5757C41.0345 43.0676 39.5781 44.665 38.1478 46.3914C37.7461 46.861 37.7461 46.861 37.3362 47.34C22.3634 65.1354 15.2195 87.8422 17.1278 111.02C18.6588 126.806 24.1256 141.842 33.7103 154.505C34.0607 154.977 34.4111 155.448 34.7613 155.92C36.3643 158.06 37.986 160.11 39.9332 161.952C40.5918 162.596 41.1687 163.274 41.7532 163.985C43.0977 165.577 44.6222 166.885 46.2159 168.221C46.5784 168.533 46.9408 168.846 47.3143 169.168C65.5792 184.738 88.7629 191.207 112.534 189.394C113.288 189.33 114.042 189.266 114.795 189.198C116.873 202.066 116.873 202.066 116.812 205.738C90.8879 209.721 63.5292 202.348 42.4628 186.978C35.0473 181.453 28.0526 175.175 22.4148 167.817C22.1039 167.433 21.7929 167.048 21.4725 166.651C10.5977 152.998 3.56733 136.251 1.03416 119.005C0.962623 118.519 0.891088 118.033 0.817385 117.532C0.172346 112.83 0.0827564 108.165 0.101275 103.423C0.10201 103.032 0.102746 102.641 0.103503 102.238C0.121815 96.4482 0.325677 90.815 1.43757 85.1187C1.53497 84.5759 1.53497 84.5759 1.63435 84.0221C5.97577 60.0296 19.513 37.0793 38.9546 22.1869C39.2195 21.9806 39.4845 21.7742 39.7575 21.5617C44.6187 17.7906 49.6464 14.562 55.0909 11.6982C55.4548 11.5064 55.8187 11.3145 56.1936 11.1168C92.5984 -7.80085 138.852 -2.33641 170.722 24.7769Z" fill="url(#paint0_linear_3656_5260)"/>
<path d="M95.4319 30.6592C100.89 30.6592 106.348 30.6592 111.972 30.6592C111.972 57.2842 111.972 83.9091 111.972 111.341C91.6035 111.341 71.2354 111.341 50.2501 111.341C50.2501 106.016 50.2501 100.691 50.2501 95.2046C65.1601 95.2046 80.0701 95.2046 95.4319 95.2046C95.4319 73.9046 95.4319 52.6046 95.4319 30.6592Z" fill="#91DF92"/>
<path d="M189.83 110.131C195.288 110.131 200.746 110.131 206.369 110.131C206.11 113.755 205.808 117.193 205.184 120.746C205.082 121.354 205.082 121.354 204.977 121.975C204.568 124.364 204.155 126.745 203.545 129.091C202.237 129.745 200.968 129.115 199.614 128.754C199.304 128.674 198.995 128.593 198.676 128.511C197.685 128.253 196.695 127.991 195.704 127.73C195.038 127.556 194.372 127.383 193.705 127.21C188.892 125.955 188.892 125.955 187.409 125.46C187.721 122.194 188.278 118.983 188.846 115.753C189.171 113.898 189.495 112.043 189.83 110.131Z" fill="#91DF92"/>
<path d="M166.028 162.978C167.489 164.2 168.904 165.425 170.239 166.785C171.212 167.775 172.212 168.704 173.264 169.609C174.973 171.08 176.556 172.661 178.131 174.273C174.214 178.992 169.738 182.747 164.818 186.375C163.73 185.326 162.786 184.262 161.897 183.041C161.658 182.715 161.419 182.389 161.173 182.053C160.928 181.715 160.683 181.378 160.431 181.03C159.945 180.364 159.458 179.698 158.972 179.032C158.737 178.708 158.503 178.383 158.262 178.049C157.795 177.419 157.316 176.798 156.824 176.188C156.599 175.908 156.374 175.627 156.142 175.338C155.938 175.093 155.735 174.848 155.525 174.595C155.136 173.87 155.136 173.87 155.212 173.032C155.748 171.763 156.831 171.049 157.884 170.214C158.361 169.824 158.836 169.434 159.311 169.043C159.554 168.843 159.797 168.643 160.048 168.436C161.233 167.441 162.371 166.398 163.507 165.348C163.714 165.157 163.921 164.966 164.134 164.769C165.093 163.885 165.093 163.885 166.028 162.978Z" fill="#91DF92"/>
<path d="M182.165 138.773C185.528 139.796 188.679 141.229 191.872 142.681C192.419 142.929 192.966 143.176 193.513 143.423C194.841 144.023 196.168 144.625 197.494 145.228C197.013 146.753 196.476 148.165 195.737 149.582C195.554 149.934 195.371 150.286 195.182 150.649C194.988 151.015 194.794 151.381 194.595 151.758C194.297 152.322 194.297 152.322 193.994 152.897C190.019 160.36 190.019 160.36 188.216 160.961C187.371 160.539 187.371 160.539 186.401 159.878C186.044 159.638 185.688 159.398 185.321 159.151C184.945 158.891 184.569 158.632 184.182 158.364C183.801 158.105 183.42 157.846 183.027 157.58C180.417 155.799 177.83 153.989 175.307 152.086C175.962 150.278 176.871 148.677 177.828 147.018C179.371 144.313 180.81 141.579 182.165 138.773Z" fill="#91DF92"/>
<path d="M143.034 180.727C145.455 185.567 147.875 190.408 150.296 195.249C146.515 197.29 142.668 199.001 138.647 200.519C138.003 200.764 138.003 200.764 137.346 201.015C136.945 201.164 136.543 201.313 136.129 201.466C135.769 201.6 135.408 201.733 135.037 201.871C134.159 202.107 134.159 202.107 133.352 201.704C132.965 200.682 132.624 199.675 132.303 198.633C132.206 198.324 132.108 198.015 132.008 197.696C131.802 197.041 131.598 196.386 131.396 195.73C131.085 194.727 130.77 193.726 130.453 192.726C130.254 192.089 130.055 191.453 129.857 190.817C129.715 190.368 129.715 190.368 129.571 189.91C129.145 188.52 128.915 187.44 128.915 185.971C129.654 185.707 129.654 185.707 130.407 185.438C133.965 184.155 137.434 182.832 140.828 181.157C141.824 180.727 141.824 180.727 143.034 180.727Z" fill="#91DF92"/>
</g>
<defs>
<linearGradient id="paint0_linear_3656_5260" x1="103.436" y1="-0.0566406" x2="103.436" y2="206.804" gradientUnits="userSpaceOnUse">
<stop stop-color="#B5EDB6"/>
<stop offset="1" stop-color="#91DF92"/>
</linearGradient>
<clipPath id="clip0_3656_5260">
<rect width="206.545" height="206.545" fill="white" transform="translate(0.227356)"/>
</clipPath>
</defs>
</svg>
